<mxfile host="app.diagrams.net" agent="Mozilla/5.0 (Windows NT 10.0; Win64; x64) AppleWebKit/537.36 (KHTML, like Gecko) Chrome/128.0.0.0 Safari/537.36" version="24.7.13">
  <diagram name="PÃ¡gina-1" id="SirB2r5hf-sJaUJzQ9O2">
    <mxGraphModel dx="1400" dy="533" grid="1" gridSize="10" guides="1" tooltips="1" connect="1" arrows="1" fold="1" page="1" pageScale="1" pageWidth="827" pageHeight="1169" math="0" shadow="0">
      <root>
        <mxCell id="0" />
        <mxCell id="1" parent="0" />
        <mxCell id="nvOVnxIDYfyf6h51sC6R-1" value="" style="shape=image;verticalLabelPosition=bottom;labelBackgroundColor=default;verticalAlign=top;aspect=fixed;imageAspect=0;image=data:image/png,iVBORw0KGgoAAAANSUhEUgAAAnsAAACICAYAAACfrS0JAAAAAXNSR0IArs4c6QAAAARnQU1BAACxjwv8YQUAAAAJcEhZcwAADsMAAA7DAcdvqGQAAP+lSURBVHhe7H0FYBZH8/fElSQEd7dCgUIFrbu7u7t7qdGWurtRpUChLaVAi7tT3F1DEiwQ1/1+v9nbJ5eQIC3t+37v/5mw3N3K7Ozs7Mys3D0hWVlZRnwQEhJSJhwcEJWRkpISKS4uxrVYikuKbJKUeNcDBdaNYLyrQigC8IQQV1l8ldMaKqGhDOESFhqGaxjiKssbhCAEIQhBCEIQgvC/BSE7duwIOHvGmL3CwYF19hjoe4WwfMi+8Nh0e0tHzg/OyXMBQMcvpBg35R1HD08Zx9CBjQNFgfu98wQhCEEIQhCCEIQg/G9CSGpqamWe2F8AoioNobra5hwzxDnHbn+gThvBOWZwBNXRY3k6ewQfPnVM7W1ZcA5kRc4eQxCCEIQgBCEIQQjC/zaUX047ZEBXKhQOmAZ9hrvl+WeBeO95r0BHUUOJhhANxV6w6ZoHeQM4vDrLBwdln1EgCEEIQhCCEIQgBOH/ABxyZ885VO6qFagzVvrHVboQLwQctvJ/gTxM95w+5tO8Xn6HA/esx179wdbPe6XHK/v/I3BLvHzwO60B3pQLQQhCEIIQhCAE4f82HPJtXHVC4GXwym1crsCxAl73BuTb66482BRbet95yt4RcI9/Bg4hN5MVB+7xD3DI/dxDCHvzyjp3e4Mhj23D9NlCKQ9sW4MQhCAEIQhBCML/VfhnnD2AbrP6HA3r7O1dlcuyLyL2lUffwtUE1I17v7Pn7rkJzDx0O53PZEL+u5298s6d8g/NUPdZ09ia0rZa/jrw8cE2PQhBCEIQghCEIPwfhX/M2SOEHcA+ol1zY8nKnC+6LcTjc2DKAf29feWhY1f6hjGfmadiXPuDA/kczcG/xezAltMtWLZE67J0u2cGftJGTInXDss3235755XGxUcrbv8qVYS/3qYgEP5ZuflrsC+agv0dhCAEIQj/OxCSlpb2D2l1uBs+g8Ezdw4818X7v+Lq/Xno2FQETBc4cpqTt168A7d6V1Li1YFMWua/ACoypiFeO60NLuWPOnuI1Leb2YaSIgTk9dpjjbbDZ9ts2+m1VW+Zt2IIGvb/f+Dv9tWBOJ1BCEIQghCE/y3415y9vw52NW5fYO3XARgxzzn6O3CoVmj25+yxHtbEt5L5kepQnoNkHAJX9kqQVylhXi+ngve9whLNy9IAJuO5svN7Sst+SA46hH8P/km5ORiwZOA//Vc5TRh1+5WJIAQhCEEIwv8f8A86e2VBt2vL1wRb47ZvnaNTHljEOmj7cB5pwXQVr2yef+Jc3oEY7f2BM9jlDbflgee6wbnjmUe6p7oyyawBh69EyyolHopSR85z9oiHzh7jPZr36eztB/6uk/F/HQ6p3LiV6r8ASodHyr5oCvZ3EIIQhCD878Ch94YqATp1enbOH3zV75XmhYBlotsD41RRKJvHX/b/b9DVFQb8C5Ei+HoIUqD3ofwlETp9GvY2zC6KVw2+uCAEIQhBCEIQgvB/B/7rPaKy/olz7MqG/x0fhu0BoEF8B8MGtE9XWWwaF3V4XK+YabxHNAPX+by1Pu+6r026IAQhCEEIQhCC8H8FQq2LUDZYwH0ItxDhVQTiKgOmcwuSV+disBx/8cKWddgJ3K4sfQu3NL70iWXsutahhVK8Zet1YFP+c0B6ytLk/Dz2Bbd26dgVIpiwECkqKmCOANU8p2fvy+IIwr8M6AT9WLg3JEowyuCz/2Wgsx/Ywj3Y7VXUG+r/BlIQghCEIATh/xyEqjdRPljXQULhUBQW5suePbslLy/XC3llwrZt2yQM+WLjomVP5m7Jzc3VsiEhhTA0RYqPzkdJSKgGgnVJ+D+q9zkmgZ9EgzMYcMa4TYvsxYXFQGUkMjISxmvfC5JhYWHeHRoYFo7/WR/xW7D1EgeCvtBg2+vylYfdu3dr3QUFBZKfn4cY5qsslEiJKQadEeqgFRYWBMLuPRkSEQF6dD91H4HNhoHW83lhodrewAeqQ8IQwiUMeHJyszQvXWd7Ho98ttzls7sGYd8QHR0tOTk5cJ6LIOt79OqXoYOFyIgIiUD5olyMEYyHPbnZUkxR89L3BexzvpCzZ/ceiYuNlfj4eH0uKS7W68E6e5SaMIwBylNsXKzKi8ZzXAUhCEEIQhD+T4BvZQ9AJwSBDpc6ezBQBQX50q/f93Laaad64bQyYfz48ep0DB/+q5x99lnyxZdfqpNYUpIvpsStPHEdD8YzlI6XA69WrY+OlrcSCEeJceqs0PAhlQ5beHi49OzZU9555x0p5h5mBUBDqIYR4Y477tDAvHxpQ7/5p4aSjhHw8lyf+rrO+jHNhmJdzbT40tPT5aabbpIPP/xQHQA6cS5fRYGOWW5ujrzwQm85pssx0rVbl0Do0b27dOl6jLz22qvA7ZxLX3A08ErWgE51bOn4IYX/8YfjQsOjpKi4RN577z3p3q2bpKVvQ6nSnnRNosuszoH3fLBwwA4BquBLAxpQnwuHGtivlQHr21f6PkFZFCJDhw6Vq666SlK3plYqY+WBPCrfVsblZGbLpRdeJFdfeaWsWLnygFf2CgsLNdStV1d+/+MPWbJ4sU4yij25Pli+hnqThaysLPn55591gqZtO/TdE4QgBCEIQfgvBZ+z57ZWPceLThcckuKSIsnI2CVr1qyRAhghrqz5w4YNGyQvP1dq1a4BhyxM6tWpB7cOBkbLF2l5WD8ExMFZCofxiYAzaLztYa460DmJjAmHIcpWGkCUhHiGOywiUkxomFJVLbmaNGjQoIzRo2F1wRl8GreEhAQNPPhmf1eXGDwLpyuMoZKdnYsYtD0EjiiJ8JytQji4MTHRkpqaKrfeequkpKRIGNpWtWqSlLh6QWRhUYEaUxAdCO6TKLvAs7Vr1uuKjOVVhFSpEq8rfEcdeaRERkWATnIe9dOZCwSRTBjmzKxMKSwuAs8L0Ca0yxTqvQmLkOKwSNQVJolVqoDfdcFLyyuW573yAYE8IT9i4+JQX5TyxfEK1e7l0DieBniL4Bwo5zAUFRWhD9FnHn4CV4xYt9KHeC2Pf3RSWI5lXByf6TTzGorGEgfTubpGcHUr8BYhJjpG80SERyCEB9pA2tgGBjpIJXCA3QqYP09ebp7SznxhkCUC491brbl5uRKB/pk/f746Q+S9a4fSizLuykmHH1gvVwVZF/OwDJ/r1KqNxGJZsmSJruwVQS72AG9+fn6AbspF+RVEPmdnZ8vQX4fqZGX0mDFKJ3GT75ofbKfchUeES1Z2lspmEWSFsser6wc+K6+R9+6775ZbbrlFtm/fDvnmqrtXIUDzgibLE1uG/cE2BSEIQQhCEP7/h7DHH3n4OdXpoVD0qtvpLMDAw/EJhXHLhuGaNXum/PnnXHn7rbflqad6yZVXXilXXHGFroIcc8wxMFqhEhMbLvFxiXJYq/ZSv34dGOdMyYPRmT5trqxctVqq16wlMXA4cvfs5J6sDBv2G4xKuGzeslVWrlsvsVVipVnDOrITxmjChCmyZOkyiY2OkygYejoSNNZ1ateR2rVrAX99NYg0vAsXLpTJkyerM1C1alU1XDRWvDZq1AjOEOuFgwS7npmZDeM5XjZvSpGG9RtKUmIi8sIhgJNAHnDblW0nrgkTJspDDz2kxnrXrp1ybM8e0rlzJ3XWaKhnz54l06ZNlXbt2nplS0NRUaFMmjQRzmKKfPvtN/Lkk0/IzTfdDGN7k9xy6y3SuEljNd7jxo+T9evWgYZQGT16lGzevEmS4FA2bNRA5s2bK7NnzZLkaskSFx8vMRHsEiN9BwyR3/4YLW1bNpcq0RFwfhtKp6O7SK1aDWQr6luyaLFs3bpVHVQ61zExMersjQT+efPn6TMddDo4SUlJoNc6RQwsNwt1sv3JyckUBvlzzp8yf8F8qVmzpqRsSZEhQ4aAnjjZuWOnTgDWrl2rTkhMrHXI2C4F8IGOxS+//CLVq1dXB2Pq1Km6JZ4IvjPftGnTZNLESdpP7C/2J+nLzMzUFeNFixZJ1eSqygM6jtu2b5MxY8eCT5u1DxYvXixpaWlSr249xUfHi+2gTIwePRrO9lqJgswddthhkp2VLYlJiejLXerUrV69WuskPcRVBY5zy5YtpWHDhtKlSxctx7gFyLt02TIt17x5c1m+fLnSz3oILEva+Ez6Fy9dIgvmzZcmmPS80vslySrOl/OuvVKq1qguDWvUljRMIChTnEjExsaqXLPNDlw/9P2qr9ZF3tHxoszXrFFTtqRskXHjxunxCW7xsl8y92TKoMGDNI40RkREKF8XLlqIMVMb42+VvPXWW1KjRg1Nr1e/ntbJNnK7ePSY0ZC3eTo5ql69hjqXHF/kqWtnEIIQhCAE4f9fCNmVttlbSsHMXrjOZK801hGRsTCwO+Tjjz+S9979UL7+6ms5/viT1EgyELiKUTU5WsaOHyFXXX6XPPf0i3LnnTfJ9l1r5ORTT4fhyhUDg5hQtbr8NvQ3adOsgSyaN0suuPAiadK8jaxYv0nyw6NgxH8Tydgkl1x4ueQX8jxagToQV19zg7zUpw+M3Gbp1rWLbot9+umn6uDR2eQZKxpbGq8OHTrIV199pY5Kjx7dhb+tMaB/P33+9PMv5NU33pKsPbsRGykJ8VXk8y++kNPPPk1ys7kyU4RW81xgieTnFci7774P47lDzjvvPLn44ovlmWeelgceuE+dX8Jxx/aU7Tu2y4IFCyQOzpQfyJPevXurw0F6Dj/8cI2n3XS/5sGt3ksvvVR27sxQZ4+OXh7qrVu3jm638dzXJRdfoqs/48eNlfCSbHUwTz33Grnghtvkkzd6y13XXSIjfp8kC1YsBR8y5dFHHpWxYycqfkK7w1rJM88+I0ceeaS89fZbSksc2k3H5ayzzpQv0H7XjwQ6WPfee69cfvnl8vTTT+sq2WOPPy4DBw6UqVOmSlp6mq50Nm3aVB2RrSnbtNxtt98kDz34kPKBEkQHgeFHlOv9wgvSunUb2bhxo+zO2CXVqlWXE048Ac7wJEmFU5OdXSC333Gz1qcraOBFt65dZbd3di4uNk6G/jZUGjdurA7s+eefj/4DI/GP50O5GkWnh04onfzrrr1OVqxcoQ4PaaDj+MMPP6C/jpOZs2bKiy++KFMmz1C6w+FA01nuP2CANGncSHo//7w6p4MGDZbWbVrLBx98IC+//LLmjYZjVLdePfnpp590UkEnjyuNXFWjU0QHmrz7c+5cMYVFEp1fIllcWYsIkS9H/SotW7eWlZNnYYxcjfIJ2q90vl4Af7p162ZXMdEm9sfs2bPl7LPOh/xHSG5OoVxy6QV6jKAPxsHnn38O+eIRCZFjj+umY4EOIen87NPPtL+vueYaadasmdLFvps4caK89upbth0x4drvZ599ttJ80UUXqeOel5+nTiWPLDDv1tRNys8gBCEIQQjC//9g9yANAl2jEBguBG7Hhodzuw0GMSxEigoL9Z4OwyWXXCKXXXaZruxdffXVdgVAYNyQX21wdKRk5O6Siy+5HPGRMEBfyq+//Cx1a9aQy1FuT1YGMhXBuBhZvALO3SVXyZP33yatG9WQBx55TCQmSd756Ev56eeh0rJZSxk2ZLCsXbFAcjLTpCA/CwY+X7Zv3yn9+vXT1RHS89FHH8mpp54qU6ZM0RW1aNDA1TX4i5JXFC5zFy+X3jCGRx51jPz84xAZ+E1fiQwplOuvuVpWLFsBerit5W39SRic3Ch58MEH5c23Xpco3BNKisPtljTaytDr6Sfl8ccfhYPDVRlude4ddu/eJXfffScM65kazj//XLnrrjvgRKbDEHO7djsM7mZ1vAYN+lHOOONU2bRpq0yYME7iE+LgILSQVWtWyvRZ01F3iIwaP0UEDvj999wjkaFGItFPcXAIIsJj4IRmwOjXlPvuv0d+GzZEnnvuaVm8dIUsXbFKStB/Bo5RBHokLj5ZHn7kcd0ipDPlHDMGrjTRcd6yZYs19IhThwtOHFdXeeXq3p9//im33HyL/PrrT1K7TnV1IlPTUss4ejwRWSU+Fo7EHskDe59/oY+8+9abkrE9XYbAobr++uvlMzgurVo3k8GDB+vqFLcfr4Cjmb5tG5ztd9XB6dCxgxx99NG6asW+YOAK3zVXX6POD1e8Vq5YK8uWLUNdO2TZ8mXyxBNPqBNOp5l4ateure2qmpSkq28fffguaBgo555zjqxbu1FGjBoveQUlsmvndklL3aYrekuXLpVnn3lBz6V+99138lSvXrJl8xZd7eVqHEG38D2YMH6COmkdO3aUb7/7Vp5+5hlplVRDCovgxaGf0nZskxdBb2v06eeffS6vvspzm0ZefeVVyHWBbr+6SVTbtm3hcF+seJ948hF1hEf+MRJt+UCdtK+++kJeeeUFtHuF8ohO3YknniiHtz9c3nrzLbn/vvslB040nVXSc/JJJ0tsXKQG9lX79u21j3v06KEO80t9XtKJWKtWreTjjz6Wvn0/Uz4FIQhBCEIQ/jcg1H4GhcsK3jUEBtt7lpISXYEohiEiuC1Od4icgcYpnI6S2HNAeTD0kYmRsnTJZmnWornUrFMbBjpS6tSqI2lbU2XtmlVAlM/cElOzCZywV+TZB66QjHXz4PxtkOT6reX0c86T43p2lTde6S3Dh/wkbVq1kMhoOmF0SOJl+7adMOS/aP1caaKh6wVjzJWp448/Xnbu2m7bwTdtEX786ScpDAmVhx5/Qrp0P0ZOOOEYeev1FyWnMFvGjJokJaBHzymyjQg8S0aHV5/0HB/bToe4RMIj4A7CsT31tFPluuuv0zNYlYEz3gz2TBSvfKu3UM9T4U6SEqrLLbfcLB06tJWbbr5REhNj7IpVcYk6RNwynDFjpuTjefjI0VK7aTNJrJqIPsmXiAgDWumQGThFbeWTTz+R++59AIYeDjicdEJ+YTHaEiFREaGSmZ0nl115ldxy1z26CqorZD5wZ8mKi+ybz6SBjgTvmZf3PAtIJ4FnwM6Ek3rGGWdoWbeFWgp8KcbexcDJOhH8OvfcMyU5OV5q1Kwpl116mVx44YW6DUnIycnWuufAkXQOI+ngqix5oM7crp2Sk5ujq7hXXnWlruxyy5XN4JZtYmKSyidXubhCxW3iFs1bSLVq1eB0FaKuWrrK17xlC8nPy0Xf2VVayiI/aRMB543dTTq45Ux569G9h67kkYao6ChZsXw5nEKuUFbT1UNCRkaGfN/ve3WWH3vsMbnooovl/AsvkPqNG6kIRYaGya5t22XpwqXqUHELnatodKgXL1ksGbszdLXVAXF3694NNBZKixYttMzYcWOFviVXA2tUr6Fb9Gz42DFjJD0tXftTXy5J2y4jfh8h5553ppx++unapzw2QKe4Vq1auuJHHo0YMUJl9+GHH8Zk4yx1Cl/o/YKu8E2bPk3LBSEIQQhCEP43wC7HKcDFgwNCJV9USKMPRwHGgKlq5KH7aRh+//13NRTDhw/XLS+e8ykqptOHDDSUCOFwLAiL5s6VSy+5SC659GKZv3CBxCdUkYysTHVQiDcxLhoGUyQzZ5eu+ITkG6mTXEdiomLhUIXIkUd2llYtW8PhjICTwc+X0AHhgX/R1TECV5toOGloaczopIWE8LdjQVNxGEK4rNuYAmteLIkwonwxwsBROv64HpIcmyQ7duyR4pIc5C+yB/bVqWPAPT8dw6uE40LDXgJ6Q/QlAZ5TYxIdD65oVQTcXnz77bdlyK9D5Ndff5UBAwbI66+9AWNdx9YVWgAckcIXRfiyB1dQ8wvydRuYh++5UkND/+OPP8q02XNl2botcuaZcJjiIiWkOBdtRSVwTENDIiQtfaNcDCfjsMPayfO9e+sKjoRHSVYez17CsRDwENmPOrob+ioEdNvPevjB9n0h+MtQpFeetSvGvXPAEqpUkeSqybp9yS10noUj0EHyO7ch4HcEPSf4JJFxiZILmeLWdQlwEkd0TLTKFycTrDcP92mpacCZrc4ut0R5vpE8y8jYref/HA1ceWNf08miE5acnKDnz+KrxMs333yjK2PTp0+H4/UEnP+T5csvvlSncf2G9boa/cgjj8jzvR6XNUsWSEhUOJx+IyAPNMNhBcnsT/YBHfNnn3tWTjnldF0t5OpgPs/nhfKTRIX6zHY7yNi1Wxo1bKhl6zVpJGFJcXyPRuJMmITlwqVEHVwVvf/+++Wee+7RbVTSRaeRfCDfCJb3kD2IIeWaL43o+UM4m19//bXccMMN8sYbbyidNcGHbDjKLE8nPDExTjL35GJCc4LiI1+IgyvwmzZt0rFCyM3J1XrbtGkjdepgzMXG6BvAJMG9zBKEIAQhCEH434BQ+jYMallglPh7qgQ1/FD4NBb5ML5c6NI3ZWFgGGgVaHjpbBUX86UOFAKiEhOOspGK44SeJ8umjWtl4dJZ8ueCqbJk6Tw57vjjJAqGJQaOSnJiPHDAuIVFS91GrSQuPFRS16+U7ambdfVj0ZLlMmLkGFm8ZKmEw8CSBjpZPCuVkJCk57joiJIGOgg8xzd//jzQHAEDRwcwDkYsVhITYlEwRDZvXAcHI0+qV68tAwcMhsHLkfp166A9YRrYQrZJIYSuEQMb5sXhmY4sPzTtHDw6R/yALnO44IAvczggnTS6yXA46SAnJvFt4VjQGotrFS+XgWNFxydPz6/Fx8WrAV+7dqP8OPgXiYXTdMuN10ukFKPOQu/NVNIdKh9//KGMHTteXnnlFT1XxrNd4XDo0DW6CsRmsWf17WfcsQ1c7fID+7wQTgZDUaG98oWNMNRDR4OyEBkVCYcBV/RBQV6+FHBlkyuWRcXKO8c/XvjyC88j2k/nwFmGkBSijMvHlcPICMgK+YdndTZA76mnnKpbu3wRgy8rpKelweE6Reun07IbTh5XwvhyBc/kcauYq8eko1PHjjJ50nSZP3eeTJk8SerVqwWevKHbuu+//76MGztJ+vfvL8OHDZOTTj5Jac3h50jQ9jDQwF4lXdwu5oL2448/LtvS7UsVK1eulAkTJqijSSDNdKi4QkcHlp1PftFhT925XYZPmKhbvdEl6HuMLcLNN98sC+YvkDlz5qizN3PGTPAGfYL6OQEgTq5oEhClcsO2tm3XVp1LbrPyxZhVq1bJyhUrZdhvw3TVji/bcGuY4yAuPkp6PdVLX3Ch0+ZWEYmPkxOuHNatW1fb8d233+pKJfPNnDkT9YUEHPAgBCEI/zngxLOi4KCiNBccVJTmgoOK0lxwUFEag2cG/zKUx+PHXT44qCjNhX8CKqqH4f83gN8GFwCGCCYLLaA7EA4DFQnnioErWGFqSOAbyFdf9pUffvhe+g/4QQb8OEAGDRooY8aMho2DIxYCYx4B5yOcDkOudOnUScaPmiwvvfiq/PzLEHnssUfkjTdfl6ycbHUydOECHCuEYcvNE6leq5H07H6MrFm1SF7r85z0/+EHufOee+XWu++R3Xk5EhUfLZExIhm7d8HxiJSHHnpA1q9fL72efkr69ftOevV6Sm688UYZP2G8GtvduzOQd4/UrFVbbrjuGkmIjZJH779b+sIJ6vVsb3ny+T5Sr34dOfnkY9DyGG1DSCiNrHszl9uWIepgJCfWh2OYJ/l0CkA432A864wz9WWRrD2ZtixKusAyNNLb0vfouTGeh/r5l591ha7f99/Lt99+p6s17nA/gU4DHdMoOFNcTdNPtkREyI3XXy/RUeHyy6+/yTFde0iNaskSE8ntRq4+wdGCg50LB4i8jI+P1Tc1B/QfoNvbRXSE4CiUwGuJjYzg+iR4wxdR7LYrHToadQbWn5iQqIf96VDx3Nlrr70mW1O3SjTPysEp25aeLumpO2TH9h3qnNBp3QOHi23gCwxhuNKp4DN5yNXeaDjdXNGNhIOoxwEgSO7Mm/bTnt16Xo1xdevUlfMvOFsmTpqoDitX6V584UVdxdqxY4eu6JEndI5i4bTUqFZd6eJ2MR2aX8Drbl27yQnHddczneR5FdRNh691q9bqbHM1lC/PDBs+TLfHeT6T/OC3Ffn5Fbo4dISPPuZoSaoaL6NGjdLV2Zdeekl5On7ceG0fHS+3EkdZufOuuzDpiNUzdD/AmXzokYelSmKsvvnKDyy3bNpcWrduriu8r772qr4kwZdFPvv8M52sVAEvuWJI+eEbyHpmDuj/+OMP0DlDXxIqLDDyZd8v9SUMbhc/+dST0u+HfuocEl//Hwbpih6d2lw41czD1VuuoNKZa9iwvvKFK6h8SYaror8OHSqvv/G6fr/y2Wefxbg0ct1119n6gxCEIPxr4HckGCqD/aUT/q081Fd/BcrjJZ6/S8shAa8Of/hfgVB+YFgD2Q1nj0frQ/hWZEiYfTsSMVxN46e5eAD98ccfgxF5VJ5gwP3zzz8Lg5IAB2AXPQjJyd6jjsePg/pLp07t5aMP30O+Z2TsmEkSFckXAArh5ETqaw5hoXAG4NxERSZIdk4xjN+z0v3o9jLgh2/lwYcek4zMbLnn/gek/RGd4NhtgLFqAKMeKXXq1JJzzjlbjju+p8yYPl3ugqGd8+dsuejiC+Tqq67SM1Z0DKpUiZOUlM3S5chO8t6br0oU/NnevZ+Xt9/9QBo2aCyff/mlNG1aFz5qHAw4DS0dvdIVDRpxsoW/DJKQWEUNZ0lRiR6opxBsTUnR1UFYfQ00/tz6iwC/Mvfs0bc9P//sG7n9tnvlrjsekAceeADOaS+loSC/ULIyc+FYZUouvF3WRbzEwRU9OjMUvKSkqnLWmWeqQW/VsoUU5efqKidX9GJjq4CuJKlRo7r07HkcnJp68vvvw+Wrr/rqCxR1mjRGf8AZBbHkSVKVeOStps4RtwnpdLM+S3eJNG3WVN8+5goWDf+M6TP07ddsbushP50rrpJWS05W2eBb1rVq1gTdxfp5GDp6jGcIgUPEFbPsPTmSl5sDJw2TCMQnV6+mn5fRFSyUZz9VJ144HmwwzwLy3CXf/H7mmWf0LBzP6h3e7nDZuXOnJFRJkFo1ako+eEaHNRFOUlRkmGTC6eT3C0866WR9a/flPn3kWziLpJ2O646dO+Tcc8/VlzV4FOGZ556Trt26SzU4z8uWLlX+RkAWOba5ot2kcRN5/fXXdUWPztlHH32sK2X87AzpJv/IN9LAl0v4Ri23evkpmOeAe+OmTboayZU2tpVbzI9hvHA1ji8U9cZkgw6t+8ix6wPWzy1Wrlo3aFhHt7H5Ri3fgH78iYf17OKXkFtu0/ON5ksvuURStqbosYo6dWvoub3jjjtOLr/sEpk3d5Gu9lFu+cIRX2j6ApOd338foVu4fPGDZx7pzPJlF24pv/XW6+B1O6VH5T8IQQjCfwQ4+pzDUSbY5MrTERxUlKbBpTNUlM5gs1ScxyYp8FkV1z7ATmM90PzqceyFr8K6XLBZ9s5joxVc3F8FPy4H/1Rd/zaE7EjbGmiCMpHUc18SPcJnrmLwDUd+T61KQqLO/JlKQ8CzdxFR0dKpfQsYnnFyyRV3yisffiJnnn60VI+Ik/zsHFm9ZbOeuerYsQucxkipVjNO9mzbBMdxvkQn1ZcjOneUkMI9EinhYoqyJK+gWM/YZeYVSvWa9aVlq9aSlb0dBjBNVixfJbWqt9JPeWRm7dBVR648bdywUc+A8YPL/A5fVDS/WzdGTGGinALjn7F7E9JFtmxJA54iOEC50qJ5a+FLErHx3DaLRkP5M2hwQbkNzQVP3ocUS252kcyesVzatm0j9RrEwEHKk927smXdug24ZsCgn4w4uq5WhukocJVJt9rWrFZDq+ex+AcB5zYlF7i6dO0ss+eOk/zMGnLeBafKylUL4HjUkDGjx0rbw9pKo0YN1aHg9ujqNWslGw5Vw6Yt4DSFSNUY0FeQKcth+DN2G+l+3KlSHJ4mG9btlhS0kdt49evXk+VrNoN3edKtQ1tJXbdSUndkSMsju0sEnKNIsQ6mM+jan+hrrrDxsyrcHuUq2WY4LXSy2rVtq1uA/B5bfTiV3AqkU8eVrwI4jSeedJKuUKnTgrZym7koP08mzZovDVp1lCYN6krJnq0ya9oUiUqsLh06dNS8c+fO1TNu55xzjtZDfvHKb+gxnQ5svXr19YUK4p8yebJwS/jIzp2VrzzLxu8g1kcebk1yBZGyyi3SBDiQXKkMDYeTCUeGzhSdpdTUNGndrCHSkmXxmi2SULOBxGMm8MXbL0nfr76V334fJZ2P7Kx0kIZ169ZpXVztqlOnLq7248qOf+QbnTquHJI/dOBatmwFebPb0J1BK51annFkXm5PEx/pdWfoHDCdzh/zsizrJ94mTZpoXVxVpcyzLfwmIFfduZ3NvNzu5ZvLLFMEuVm8eJGW5XcMudpMmaRzym1f8pnOOXHyu4NczSU+OpnMw75mO4IQhCD8s1DeYXAORWXxfJmMUJGjcaB5GG3+Rh7Gly/m8pYH6pgAlKglVHyM1SvSXV2V0ULYV5tcmoPKaNkX+PH6i/vjD6bd/20AZy8VpsF7QOCvTeA/bSEbyRUvGmNucTGfbvcy2Tvbl5tfICN++0k/wzFi5DT5sO93cv65x0oEnDae17KnwlBGz/HBOIYVSmgJ34IMk9ziMDVCUpIv4SU8NVdAMZDikDCEcCkWvhTBtUaUCclDGuosiSVCAJ0xSzmNW6AHNM47XF4Srz9GHxqSi+p4fo5bYzw7BmdJ6Ude4BUTLSGhdNi4qsctba52AgdX+eD8hRbDUwReE8Lt0iIpzOfbx/YjuhRU/rFW1+kqziSpQiFgJPLDGZJQ8KGopr2CZuIhbXZs8J4tRiz4UaIB94gLNwXKq4LCfAkLTwDVEVISxt/vjUMZbsfbthTDpaPjGlqQL4VZuyUuIUnyQ6MRVwhO2POEgYHIi+OhBx57lb907BlcHjo8erYMcWwnnRQ6IHymsxcGr5ZcKQqJlPyQaAnHBCIsbzdKwoGF00/+EBQ3yvqhjHLwQGN89HEbmc6+nnPz4gjKc9LkMuu9xalyokCZKlJeFoZGwQnOlE8//EB+/7mfvu36/ief6UoaobRMKbCdfpororc8VITHgUsrj7cMsApk219drp2V5XN1KX8qJ+mA2hSEIATh74PTsw5UA3hx/lHo7vcxbJ2a2CccijzUsy49cHUE+sDpEb1C91BfWx3EBQHqYZu2r7oc2sryKDYv075o2Rdodl8FfHb94kd1oO3+bwTdxgW3vUc2AMaaHQI7TttNg87D7+wUDcjKYJtq9C3Jx594Sh29c887X04/5ST1tfiD/SU8D2i7E//oGNiPFtNhZD0RcBiMfrvOMgzuIRwFvkCAzgenQ2CQaZRD6Tjo2ULiokNGp8LWbwOAz4E4AomkQ8h6GWfpoFjpdq0ae+INw32hxlMGbWmHg4B7dZ4QNDpUt8C4ukRstkr8xwC+8aqyvE9gBtJHxxn0KfCZAYBkfUK/uDeXyQM6UGFAzhcIisGwqGj7/Tv9GLS2j3jJH7aROOhAFktoeKjEJFSBs4h4tCVUr8Dr63ctWgkoDczr5WEpfSEDzzxbWFTAt3btm6l0wgiBowEAuIUUJDj6YfqyBjG4+kn/wQBzM9Apco5emUDeecEPfmeLssWSSiN4mZedJb8NHSIpW3dIu/YdpE7dOrrqq85rBVCpQ/YXwfFin3jLtacy2JejF4QgBOG/F5wO8+tZf3AQ0HG8LxcIev9P5/HiDwqYn/rJu3d2RYOHb696EBzsK48/7e+Aw+eHQB0MXj3/P0LItrR0JV0byO/l4UkNhnaKx73Am6k0kNYgsRDfNIyvkijLly+V1NSt0rhpS4mK4fm3YglHvjAE+j8WtAbFpb+bi2eu4BkYuFA6JEDPHMxuvWet2CvFRJRRZ8+uLFp6LPgNuR9CSmxe4leB0icLtsMQgxttWSiuiOOKpd97Z55QrRcAx5T5lByHjRm9/K6MK89rWWAEAx1COqFwIEuicCUF5L1N5/9uFY1viCqABq7s2bL8WTIk8h/jUcKE8sULttfm4ZUOoLo1qIuOIvNxxZR1MWV/4ISaVTn+edS4KsAzJjKddKAu5LPtZgbWDu6jn9XBJv8QaycBHvIKgDjKg0PJq7t3WPy5FStp0D+AOsN7g41FHtBWBIKLCvLVKeXPhW3fsVMdPf9W7b5gf+mEymTUDweS50Dq2lceV4dyZx/VHUg9QQhCEP4+UM9ytDl9q/f2tsIx6tL2MXz/2TyI5LMGL4P/vjwwmm1T3cMJOnQLn/WcvKdntO1I14vG7A0Ovab76vKXcTSU39bdH2h2IOHV9YNn9UuRI9HVdSDt/m+DkPR06+zRoNPpCAgcrmoQPUfE4MpG2RUkAB/wLzwiin2EeLgaYWF61osdyHubz14qBFRyKGxKpc6eF72Xs8JnXnnr3egqD/F4K022rRaUNwQKKtPdipKLB7j8LirwzIwVQEU0Ex/zs4hu3+KZTh/jAjR4oLgR6GC5pIrqqow3BwIHyj/NRqeK3nIF/HPgaNkfTU4B+MEfQ7o04J6YAoPSAXmmf959BbQ4IC36dnhhka5M6m/NQob5Rq4908Zt9b3p8cP+0gkH0g8HkudA6tpXnkAfkCP7qO5A6glCEILw98HpMqdv9Z5hH+PzPwlKFgjkVYN3T6jIBgV0NXUPbAS/2qDtg47RO8RreXf1AfPoZ6l4H8bFI2t7ywPTXVlHT0W0VAaaFYV4dXx3dsU968Xh9u7dktPB1PWfgr3sZHmgiSd7S9AaBvaX9hkax81D/lYsvwtXVGQ/wstzetpBzBSEgwInMOQc+ctnN0NxV6b9X+Ssa7eG8rxhnO96MEBZ5fcKeXaUL4Doh8SphELdCnIQghCEIAThYCDgqHIBgA4arlw0cMeSqGO530M/IRBsibKAfHTwig20O++p+xFdPgRh/1Chs8eOcMEZVjp81g+3fyzKZ35mhNu17FSe4woLCdNn67F7+MoEdR29UNpN6v1XFLx0QoXpDF46wR//d8Dh/bt4/g5QsP3Crff+xv43g+OfPxwiXjpeOH5Y+fx7QFknFGHSorKvWwx7Dw8nW/5wsMCaDgWeIAThr0BFsmelPwiHCirisYPy4/9/CfbVplK9aoNCZU6eA2RjuuZxRXAtbxsrAj+P/eGfgIrq8chVqDAd4d+EvayZHl43fJGC63Y8J2e3dq3hKw2W2NLmaAfyz+tI+4x4mwyw28FlusZr8D4bfQB5tJ4K8vBZtyB5b6MqBZfuz6s4efUHL64icHn+LgTqcaF8nPf8b4F28z4qdLQF7l1w9HrhnwCiVdR++g6yLufUlZVd/AGPTm9w/TttKM+Lg6UvCEH4O+CXPZW/IBxSOFBdF0jzpbMstY/i8IV/GhwZ5cPBgqPXtcGBeglAyNU7BucP2CUi3HFxiNuz3qpeZcA0Ooh8eY0vjmp9yB4IfPYFAq/l6dkXaFng0jI+nPsCTffKMFQIjkaE/waogE5vSZVBO8PGsnGuo9QAenHKJF+j/M8OAmm8B/7yK3sWd8WBaYR95fHQaJ7yIQBe/ZVBIK0CXA7KP/8bsK/6/y1aPJbsE8rT4mitMP5AEP5NKF/v/oDKyA/O6SsDVDwueFEEbZO9rRDKt5d5neyWwUMZ/Rd4E4T/O1BeLp2s7iV/lD1cyucPwgHAPsa3Pzje+tM1juX/bf67ysqHg4BAdkc/gmuXey6D3nP41KlAUB+Dzxrl7sqCOnven+b2spXBywjfVfMg8LkMnz3wl1FwVXtl9kovB3uVRXD1+IPLx2ulaV6d/waEpKWlaVNLnTAaM8tadcZAjWbAE1xsJY7P9sgkwLs48BPu8tg43pcGxmkNblWlEjyam1W7Bx+UyeMlujgHrpwabl41tgJAAtcdA2CzB8oTAmUrwMMsbqGTy8sEPntF94JSMS8FxwMr2ryhY22hvFBofQxeHVrUn8EDO6A09aBAUaEYr6xbZ2PefQXVaKR+xscHjh8EUqBBB7WlyJ/uB6/1BwSOZzqAvHsFjx5Xhz9pf0A8SiH+sUk6GryJT4AyD39AgQHK97eLt/jKPjvgbYBGnkvhtRwePxwIb/ZyUsuBU6z7kouD6YMg/HeC9qDXxf7eLCN/SCgvBU4eg7BvCLCpHI/16mOqi3e8rizdXZkWuD/EEKjWo8W7Lb0/yLrLy48fpwN3T53i7gPOnbsS9qO3nF31g0Z5NCsm7wVBgg+z3ju5DtTtsnrluUhFcNH+cVIeFJeP3vJZmUL/h/Gaq1yG8nxjpn1Ud0jAc/ZYDd+ztVu2XHYNvJmL/ywR1v1zW7cBZ688IJo5NNVm9cDbxiVSzaOuJMBlKpNZIYBnH7CvPOUx7qvzCJrsFfJnPVA87gyZcxqdcB0oaHYPN+/9joQTRAd8dAKzl+D4ICDYfxHYVudIKU37QncAA00/1QI4WN5UBo4eP42B+sC/ffGmMiCvS6Xe9oF+c8/D78B4508c+OtibHleuZz+eN4eat7s19ljreVoC8L/FqgE+PqYz07u/NLhl9nAdd/iEwQPKhrfFfHY3ZfLHoDy7C6P91CBovVVxmcG6k7aLKWf4SDq9+P0F6usTS7+IKoIgL+uMoCEQHRlNgjR7tnpWT+wlO5I2seyOCsCJlbi7LlY2t69a7Lgd1w1D54ry3uowC0ceQTa/3luT6/6fyn46NPOqzC4dIZy8YE4ZuD9fgKhQhy+QKgsjzbAHw4EvLx+XGVwMFQAgWjclKHhL4ArpziIzyGvpG7CX61rX1AeJ6vfBwmlGRCU9grCoYQyeD3CKqLvr9RrnTw4ixyw7qxIuaCzUqQdKPj7skJ8QQjCIQa/bPllLRB8MhmEvwYV8tUXHDhea+CzF/x6s0IFdijBqyNQjZ/AvwB++v3tcnGB4EG5x4MHP04vlGlCufhA8D2XB5eu4MrvD1w+L2+gHn0qhYr6W4MX/29CwNmzhFtS7S8MeKtwgABhPuICcfuAMnnK5LX1EAJ5Kgl+BlWUzlBZHn+8pu0HKsx7oHh8CRW3+eBA6/LX7d2XB5f2j4APb+AWFVZWXYBWhnKZ3DPTDgUoP/wBcV4VCpXRcVDgnDlcXR3OCdTVM6SpM8h8+4AALb7gB0dj+fggBOFQgH+MqIxR3sqJbEVyGYQDA+VdZTz2BZdWPt0fr2n/MLg6/KtdfwfK0P4Ptqk8Thf8UCatXOPcsytTJi9DObr3Bf585etx4M/j+OIYrnEe+O//SSh19vygTp8XfA3xxQZAGVRJcKDPeoWR1DTPeGoe/lfxygmDHypKZ/BDZfEHAmw2l1d1iRVByQvCXwbXx/6+cM+27/8aeN2zF1QU93dBt9K95XpXr6vHOX2uLeXbWhloPhe8OIJ75jUIQfinICDDTt68ewdB+fuLAEZSH4SGhOqHg2lc+V053uuHhKkrbM4A392zA78NUmeMwUv7uwBUZevbD2Im+2lx130Bk/eT5V+FyvSsXu3lkECgnnLBgeOLqzNwdXmY37v9p8Bz9liN8/t45bP76a3y4e8Ayzv8BPfs6v73wQmvCjOuKtB81liA9xyE/yywmwKBAwPBnWN0EuXCoQJ18nwI+eo/z+65TwYwmXCwv+8bhCAE4X8QPH1URh94q/5+R6887MsGaWnv+VACdSf1ZpiH2G+VCVo36yVN5ehx9Abh/y8ofRsX/9u3cXHFg17RtVyFs2BjHOhPY3lQWec7r1XT9WfXyoHW6d1WguNA8rh6CH81j6OufFqZQ5uAQJv4X7m8jHPVEI8+V1BXZaBZUYhXBveJm4rAj9vdu7r9sL8txn2Ba6u64rh3dFUG7o3ditocoJFbn7za6AqhovL+KNKlAfd+PHwOxOmDfQlof/WVB+dEEgULEovKux+JJuI/1ZK2HoKri8mOf5oVEMDrw+Py69XHG17/KqiTug9ALbaSQwhaYwU4D7Yd+8Pj5115+Ds8+0/DoeKfA4ePV8czHccA96wXZOBVg3dPOFS8rKi/Dha3Zt8Hnv+UTJThK+5ZFd/a588u8hd4+NuvBDs5tL9zbn/+EvEV0OW3QYrLPh6UDVLw5a80jw/8lplZGVjOleWVdSpduLo8Ct6z3gYiy4K/f/aXRy++PFaXwTMpKQ7UXRn/CAdqg+jAst8Yx6wOt4LvvlJ6NdjEyvJop7MC3laQx9/fms1d9wGKpoJMDr+f1+WhjLPH6llGf9IEz875Kw/M+neciFJgJYcCz18DbYe9rbzDAOUHW3moCM+B4C0PmtVXF/vBIXKKOlBXaZJCQGDKwaFw9kiP0lT+uRxU5GSwiBbzkvy/bRhIKwcV8Uyj/PX7CvqzK07NwH82pTLeVAbOKVPe4Z+HRf+psrZPSMdwDbU949ru6uJTeRorc/b0ikDeuPIu/q/Av+HsaQ0HgGN/7TiUw//v8OzfhgNt919tk+sfV5z1VebsEXjvVnAIf6VeV+f+4H9FJhw/A3zGVXWCe8b/qsI9HcxxqTrJRxNTbCquvvjysD8b9HfA1e9AaaqgMsYzmv2jV0b+w8Atca6UFhYWqSMd6v0ca2WwPxuk99Sz9jEAvHftOlDYr571+r08+J08B376/HAox8Jezh6BMxDbcBrmvWtjjL8hJLp8LrbDEVpROsGP3zGgPCgeBOaqCAfhUOSpnEYEX8JeTpcfkLl8OyoaNJWBZvWQ8l6dPQ/8vNSrvQSgMvorE7gDgb3avR9UlBuCP5velzbDOnsugy+eUeXR+3mnt14G3vtpKw8V8aKifqhssDqnjLT6283szoHUbyiRt4hksusrVzefytCI2aTGMWix0vwOioHPla+I3gOF/Soh1uCn7QDBj5d3bIdDo88ITt4OdByU70eHxw/M4rIFDKwH/jQC6/87vGPlro//Sais3eVXviuSkwMBze4h4T3rc7xzdevFw8v7fTl7pIMrVszBPIoThpi/bODA1eMHxv0TMkGwY9BL59VbSWNx93mNv8o/B/saS2V0g73oc2U6l3kYmFpRDn+/+0HL+RIcxyvD4+ohHEieimxvZbQQyrebobJ6CH8nD+WLurWgoECvfK4MD8sH9LD+b0HvbbTeO9nwg9bvReu9va2QNwSmV1RXGXD1+GTIjh4A4sqXczz3y8+BjgUth1A+3cUTQtLT0/VeM3kfdXWzCEuOy+q/s+AGUIXxiPQLZXmweWhMbWpluJUOJFaKA3BAeZDI2/J5XDpB0/yZcL8XsyvCgwj3HLj68P4VYHF/3Q5dmXoBrp7y8YcanANE0CrdMx7crctTYduRxmj9PqN378oRWMY9709Buz5w4PgU4AXkyuHS+ioAV4e9lK3IPbEkf8Cb4PL50wKDkolegr82RiltyOeuzOCUhMNJujnyAjxw1/8QuHb5lQ6VLHmmtCNa01wABPqM/PLaQ6isL/2yTVxMDmTxpbm4QHlfGsHxzE9r+boOGFDO9bCj+1BDQFbZZuWlbbvGebIWkAMf/JU2sQjr0+B79gMftT4G33N5sPw1aigdr8NCwyQsDME5fIzXbNYJsw/eBTgPRiYITA5k8ad5NNA5dXUSpwslsGP+uhj+Cv8CgLKlI78UysR4dDjwt8XV7frBl6QR7jkQ7zL5yvmhQjwEH66ALraXUthPHj+fAvFeZUxzdTvgPeP8OBzss90e7C+POvDovyL+ZjkSKWt74UEWF1eZDfKX4b1ri6u0XPZK+Regl8HlKVc4UAYyoflAP9tgo6xtCsil/tkyblwRHG4C4xWPfbSZPQjEuXOivjQFRAfGgnP2CO6jyq6h+3P2dLARcC2fdmBQFv9/A5TvOD/TDwYCvPmLwOIHUjfp/Tc4eKD0VAaUKeLg6hWhPHsYGxhI3sCojIeM3hctOoA4qJBnX86eHYT8V0lFAH895XO5JMZXRquOJa7qKT28Ir9XtxbBlWX9/fh3Zefvgiod0oALeUlKA86el8As3FZRUvGgKzyI049PA1wblMcAf/sY4+erfwXVKxYA9+zLXgYYTxrtFQG4yo/hAwXXL+7+nwCnW7XNrEMZadupfOeVwavey/6X2qSy5q7uXlNKwdWlMmijKqwr0K/eNiWBW2rhYeESDqfPAuXCyjjz6L1NUCgv16zH1ckkv0wQXPby8eQZoxxNxMJVRtd/fmcPEcrnvzqm2EX8zxutFYJrJ+lUUr1+/KtAWv217dX+fxFcH2nbSBeuftr+aWBd+ktIXl8finHJ9ri26BXP/wSPKaXKL+hGyqDWi3awTt2e1jhPlvm/RwPlyekJwoHoRyuoFUOgD8us7HnOXmmHUog1WcHdsbBeffflobSUw7U3aDM9LlfGbD/+fyJPefqZxCiXxSW7MhXhKY+D4KviL4Mf7T9d1/6gfLUV8bkyHhOYxDgKrt5rrB+s0BdjEMBzQLobBhWDv3x53nCwBEIlOKxx0Bvg2psaB+VTWJdiLJdQUS2KnglcsSEtGOiM48DXOkkAZmTMQtodDv/9fwoqU6pO6eiFfan37loKgb6gE8gr/3Mo8eBueQ04jYBSPJriBetiEsr3p+OV9jXudeXJJh00OGfBhX8CAu1zjgroJag8ePcE55wE+OiFAwVHvZtksTCvGjxEihMR/quS4aX5wY0nd0+gg68rexyzBMQr75juEHh5CYE22UtpnQAmlZchZ/C8YgFw9eu48uFwoM+KEGMLV/L2rzp7BwW+tu5FFMFHg731IsrRxqKMcihccqDfXASeyxW1gIyqZY3+Fhag2BYOFCxzW4bv/ngHTGa0uzooh7IMHj/8R/IgPXDrK+eAxRntrg4OaZv0z65G6vYzHviiCeP4Ao9TMXwOyDSA9wGcjNdQSqefXgeUccaXbyvRuLiAs6cDy/1EGrLwSjOkBKEyCg8LabJXmPf6XAkEKqksExIsOwIoKwRXvLI8fvQHm6cy0sqDK1MZLQeK569C+fr/k7A/HpdPd/3PeG5VeaYBD6UJlDWav8LQCDzwG1X2fNCBgKtPHUlvBHHAuFARnv07eyyzd7yL2R9litplQptVzrnCh0etUW/wH4J/gLJIYJwdKPjKH1zBSgD43MyTJCpNcE50JYWdxHS2gfzGn85WPd674Nrhv/eTprwhHlxZVq+a4iVoIH7KQRhuPaex3Fv9zK242de855VF/wK49vI//h1qUNQI2kLKBJ0V0EvQupmGR9KgbfGuhPL82x8QFwvw6u7JQeJwcun4VKYe/ud79oMdS6VX19fOFef/GphOpPZfaTkGRNinsvcE0sX8fn3BUCExANceZlInH4EyGhKGFI82Jy2urQcLKk8MrKkSOhwwT2WSo3HsWNKltzYXr/tBGwCH1+V3z2WBqaQEPDBRlpehefiPnCDHSktVhOdgaSHsm56yOPeXp7J0wt/Jo/3vJ6QC8Jc5FPRYubHOnm4/46E44OzRAUTfe0hsTgtlbCR1hHfVekqzlQHdJfAgkMWL4jPbH8BZmkWT8FcMwoqEK/QlULAG2pgFOEPiwOJ2HK9FxSAecRUFBxWlafDSCbbWioODitIY/FBROoMf+ByKGSmv4eH23Iku/XsGzQU30F0ZPx73XD7+n4J/q54DAaXDKS4ILJepC4uKEG8pdLTuj16qOc8VkMiIcPscGs7O0bgDBdbNZfC8vDz0J8pb0lSRWqVaUSCUVcyuz3ktKoJce/d8w87JwoG0y0FhUaFewzwZc1uhJE63JnDL8aQ43b33vC9wdBYWFuqVrQj8aXv/HhAPgfXw24JUPqjG4vfO0OiKJNuAfLYtpfUq/eSVlrOt4b0722XxlkC/ILh0BqCwgXwmbuJlz1relHg6aK/glf87EBsbKxERETrjdjSXB/KW8hUVDSOK+8jISC/lwMHRavudfx7teCZOGgBetR+R4Bwfm+nggLxx8kX8vGocuoHBpdMN0DRfvorA0WUNlSfLAPKLvaSB90DAe4339a/mxo2/TRbDvoF5KgogQK8lxSWB8RWG/qFcUSdRRksz/00Arba/Kv+z2Xy88AUrp+4PNHu8YahM3soDc/lzuucyAcwtNgUSGxeFMcfxEyZRMdGw3yWSV5Bn60TOAugOvnDjxqGj5UDBX6cDf5w/+KGidAYnT6SlonQGBxWlMVAeyEv+OTyUAwaeL90flMHlgT6j7xyPqMsrzFNJIH9pn2Li4ux4I5+JSwN5bu9VV3pBwSGoAJxI+4MfAvFeeZce9sgjjzzHG35bT4FnMiAOYuDsQRgiIsNlwcKF8sfIkTJj9iyZM3u2zJ+/QNK3b5OqyclSJaHKPoWVKeWJOfTgailfk4vbmwIqh4jICG3PnD/nSc2aNSUqKlIVB4WlfBmn2P4+HCo8fqis/eXBn84yPl//IIGDc/fuDBk2bBgwhUqLFs3VmBdBiegAoyL2B/6Rh/iHVC8ej5A7A6VcXJQvPw/5WULjEiUhKVnCpMiraf/AvoyNjZFdu3ZJlSpVdPD4oQwde4VSWkl71eSqKBAq2Tk5aitUtpGmeDSUPpeFsjLDO66ODf5psMTHxkt8fLzyJ5CDyGnYGYjPF0pp8wfSyeQQycnNkSlTpkhiYqJUrUp6gY+BJPC2TLmDCBAHrtNYI41xgKsLBDXyYQjI6OKKvXy2vMWjI4jlSBOAs844KLvsnGxNo15BqpKr+ankmBfl1SiqLoJyxn1JKFf2rAOvjh/y2zw2aLuJycXx0cYoMNl/XxaYoj0qaalbZeKkiToJrFY12ctbWoK5mI/tKiwokKG/DYNBjYe8xe+NFzTqRYOtozQAgKPYU+rkB3lAnrIc73lV/ilfkUn/49VeDhYcnxx/SoOjzab9Vfy0Km4tgncWrwU0wV4RiF6v2kbG8sG7AnjrAqHss8NQGkM8jNXPneB+3ITxaEeIJFevBllFHsop8/If4g88uPxsky0fuHh5mInpWo1379Jssru3oTJgH/uv+8q7fwCOEDhwJk82b9osPw8eLUd2PlpmzJog06ZPkiaNm0pEeIS88/Y70rRpM4mmE6j23sqgBf99RVBxWlk5P1gw0N0ZMnLkKJ1wJcOv+CtAHqrTiE7R8QRYCN9lwcIF0rJlS+9tclB4wDxmm4jH6MQuDLzLysrRBaLKAf2N/IEP8IOmYjh7+fl58uOPP8JOtkQe8Jy6ktnZ7wh2vNs2qCy4q+Ypy9mKqK+0TV40x7flSADY8ZwVeULKmTSeJ02ZKC/0eVE++PBD+eyLL+SjTz6Wp59+Wi677DLbIATOeMloB1Twubm5UkBFDseRUKiOFAYg4mhYraCVBdZYEVTUGGUGhNt+sBkedwkNBO69wIWV/HzWaQ0H4zj8QTC87WKJi4mVmdOmyMp1W+AsxEluTiZwwMlQJls6cmD0y7eN4ASnLPg6CGBp5kwYs06QQKeE5ygUt0cj8RYVF+nbRmUMrFd/4ArhzStEHk8BETO3vvgGdSjw8CyAxW3pZF1aH6DE0HEiHtcGFoTBBb/s7KIYtDLd1kUgDaSfNJUH2qmsnFxJgrMxc/o0Sd2RITnZOZKbnQ2HhtR5+cBntsvNIJU3rn1eG+0qDqXMSN++fSU9fRvuWNi2lSsPBF44cNQoeUD6+Eo+63jjjTdl0aKFEh0drWm6wgdwckPHnqCOhlc/ee9W3yKRPw553nntVRk85FewMgL8NXoA3XKFkluMOPBKx4kF9oEC5Q0yVQICrbNC+cuXD957VwoQHwp8ND7aErUQlts0TkXgjXOaSsHrK+AtxrgpCTCiBI5jrPTq1UvHF9vO8USJ4HhlIDBeee79cWuNGJnMbddSCEEbI5RPRuWEMoF8SiOVle07riLa3PhDXuUrQmRUlDpIbIf7dAyB5LrVlVDQN+iHAfL5Z59LVEyMrsCShiIQQz3ButgXyg8GxWFpLIajl48+5i6Doczqn51pu/wgCeDlR/8qTxBJPOwKdSbxHIZ6wlFPiG4Js5DVXdQPkej7H374QUaPHqdn0AxwsA9sMzHGwBuWKKa8AN97734os2fPQw7IaGGBjkMCx2kR8PMUoimGjivI03KFXGUhPtxHRXBlLAz8giQhQtuDEAJZC6OcgI+B1qEBdLA5UdCznr6wL2Aq+5otVfyIIPfYH5Q1lRXgVpGkAw8jm5OXq7lDmc5CKM1fWMBIQDTkgjpWMVucbCshBO0sDuE4YRr5wB0f9pd1/AtxTygj3gDmLivz9rkY+dkvNPw2l8VJyMtFWjH4iyjaD67YcOUKo0QG/DhIFi9dArIhr9yVCg1HG6kHLJ3cQiNQ1vw8ZJ2sTwF9Dep5Ax0Sqf1kV4W0xaibO14FKlvUg4K2R4LOcDgCRgXX4bTB3VMGOY7D0Me2XouPsK++LM8fP1Skm5k/KipC8jCx+vrLr6CT8yQ6Kkb+GDkalBlZuXSxLFu8RGrUqIsnxHBb0VcF8/CZaaSKMhSOfubpvxAIa1hoJNoSAkcxBjKDPkemEowJU5CPvJRbyIknFwTS4+ezHb2oh2OROhr8prC1aN5a3nnnfVm5Yi1TNT4svJQvfhbRrlXEM+IrAi1PPvEEdEa+9veKlStkxYoVkg3bVKRjem9wfV+W17invoHch6GqfEywH3rkMdm+a7f6DhGIJK8ckE/QYhIeEY3/IXtoUyGYUwRe0S5s2rBJZs6eo3SHoR5SomOc/KHeVd6Qb8S5d78GALSQ5+WDA5auKJ5Q2iseUOFoN6PDaKCokLJz8uWYY7rInDmzoeBm4zpHfhr8kxzR8Qjp2rWrKtg9e/ZIJgIVOUcBBaQEgzY3v0AKYPQiozFw4BEnJiRJUX6RJFapos5CGJjGGT8HNhWutl9JtuAXFNfJ4RCyKBgZ68zQEOVLctUaqI8DMxQGKEzi4mLg6OVLHkLa9jSJq5IIpoZJUV6hxEXHShJmD3syM+WOW2+Qhx/rJVGRUL5F+boCk4C8kWh7lbg4icIgjmC9qD8fxrUYDld8bKwUFRSqQlQjiivVeCi5C8Fxg5A0kzcc5KHIVFiYp8+IRXvDMQhjtQ3ZWdkqjFxVVOODco4FsXBI6dCQr1ExVcBPCDFwRECJMYSF0GgAJ/RYXh6UEBw4zjJVsXlGrYSGEgKVlroduAolY/dO8HwX5QtCCScyN0+3P+Li4rUfSBMVInEUQ1DJR96T99zuIqhjA1qffuox6dCps2Rn7JZd23eoQ0+eUx7ojNBJIA7lA/JrQMVF4FGoyhrqQZkCDE6yz27rYfKAkAM5yc2FIQWNkegH9jvzUCLs4AIdkDE6eL/88ovSQ96TXsaxDQTSnQvnlDwkHeQnecz4hIQElCtGerYa5nWrVsr2jO2SW5QrBnhCoSCiImPAE/KadpH9bPucBp4yxX43IZi90SFCf9SoVkOqQI5KYAhWr1kv0ZBzGnUqIHYs62N7KDOkhXTTqeSqJFfACFYBkf5iKJd84DKSmJig6bszMvW6fcd2VWAMMTB4yg/0L/lEvGyryhOdHdDMK51b9glXB23/QLbQTopsSChwFYI2zGLpWNAJjIyIwmw2SzKzMpV+ygZXFMljlteJIQPqDofsqOOHOiNhIHORPzw6SiLQF3PnzZWUtFSMQ7QRMhRJfmK8s1whdEQ++kZbq+2mgqUxgNOFPuRkka5gFBRpOGcT5Bfwc/xpX/CZQR1T2t8iiY2KxjiPkRgYvmgqYIwF8pv1at24pxsQTqWNPkxOjEe5QuiEbHRhCOR3lxTkQ2aBnzwMKcpTfVGAdlevmgTdVQVjJRLdGSJRoKkQ9JMnho4K6sqHKKArtD8S4qtgXDArxiwckFD0f2g4aEJ58jMmNgbtRrNQLg/9RueI8hIKOuhnBJwT7+qA9zRwlHX2Ge/D0Pd06Dgx0v4B/ti4WO37kiLqUPIPxkhlF8/Iy4mQ1dNFsmvHDsmCQYuHfEWEon/QPvYFVzUkhMHqBtanOhh9HhtlT1ayn8KBj31J5RKOctGRUSp7dsxxohIP/Wy3v3kEiPEFdJbZPjSN/GDgWOX2VxFw5mMcxcRHK18iIE/FcObQZUpvGPrWCkKIvPPuu3LmmWdjrNCJgV6EU4hEyGUoxkeMrsiyL0k/Q6l+tkEdVMPxw3SMTXSaoRzDvpAWO57QDuTLz0NfgzdIgFyCF+gDjjuO0apVk63MaJtsXQyUD7aNK2p0IhMTIUdJSToeCWy/619eWYb5HVh8pf1PvUr9RRzsQ+pw0k37wr7nmGYf1qhZW1559XXISaQcfnhr+fSzT4E3GnYtSmJQjryhY1sIfVsIWwDhAXbyh+4I9Q8m1KCxAG3O2pOl4zsvjzY7TPJBQy6EnfYgJ4uTTyoS2EyODQDpJy9UD/EPPNd4tJ82JRRjgk3KL9wDGsIgD+QF5Al9zvga1evq7mE0xjLl2/GFRyncMwPrYXwO9Pws+ChF6BfatQsvuFAuufgS5Q/1JO2s07lx8XEqZ+x3AmXa1hMFEmAfQkkfZB55t29Plf4DBkjtuvWhEzBRBX3U7+4oDR012tLCEvQBHVjICX2c5GrJUhX9UyO5qvR+7gWM+3CJgZyEYVyEom+44JSUEA8bgzrVlmBMqm2xAYhVRwZ63ZfmDw40bwXxhNJtXGLRYAsQyEAah+lcvUlLk/POPx8EWuEjo8mc8ePHy/XXXa+M3rBxo0yePFnGjRsrc8HwhKSqklSrtkSHG5k0aYqkpG6Tr/t+IzvT06XLMUfJhEnjZNjwYTJm9FhZvXq14qDw8oou1E5kPRQKdtz8+fPljz/+kD9+/0N2794tjRo1wgAzkr4tTd59+zM4ktVl8tQ/MEP/Trampkqdmk3RydG6lVa9ZjWJrxIv+dk56rz1eu5ZqVO7hmxetUxmLN0qndo1hRGwdA78cbCMGTNal4DbtGmj7d28eYs+b9++XX766Wdp0qSxDhIqUdJLBZaGdv3000/SrFkzq4ARN3TIb7IKbWvVpqn8OHAQBkuhrFm3XAYNGihTp0xX5VejRg013hQaJ7x0lp577jlJTEqUwYMGy5/zF0jzlq0lCwan//ffyPJFiyQbhikRAyEGjm022jV//nLlz4zpU/CcCUGroYJNHn3yyWfSvt0xMnLUMJkwcRxoLpDGDdpLeCS/Tp4rY8eNl6FDf0NfT1cnomHDhtquXMz22e6xY8bK1KlTMJBmqWA3bNxYqlaJlfvuukPqtewoDWomSc3qyTL7z7nAP1GWLVsKQxWqS/I0MGyTNyRUwOhUZqIt3/X7XsaMHQuhj5ZpqPuYHsdK3dq1JLw4V2bMWyLDhv0qo0eNlOzdWVKjdnWJgPEOV6NDQ2gdj9Hoq4EDB0p6ehoGb74c1vYw2bJli4wYMUJ+++03SYUsUBGT11S4/fv3121751x9+OFHmAlnyfYtm+SrLz+XVdt2QHaTpGOzFrJmzVqZNGOm/DZ0iKRuWi+xUJg8vpAHBUHjC7uDYQMHFt5fpImQObNmyXufvC/Tp06SWtWqy/c/9Jerb7hZqmKSE4n53MRZ86R/v29k0vg/JBpxMQlVJRpDirPFcePHyYCBA2Tu3LmQ+0ipXbs2HAQYCMymly9bI199/alMmjwJcltXfv75Zzn9tNOlbt26qrimz5ghw4f9JlMmT5Q92flSv1ELiYOyKqJBAtC5oUEah36eB8dr9arVMmTIEPTTcnXw6tSpDZ7myscffi89enaDvodRQ7lFCxcpD0855RSth+OOdU9EH69bt075T8cW3aGO0KBBg5TvCxYtlBg4UOzs7J275PNPPpUpM2dIMRyYZg0byScffCjp2cDVb6DUql4DSrQOaJ8iP/78k469IvRH/fp1pQhORiJkY83KVTIQ4+DnwT/Lzp07pXHjRlCQkWqQYN9QP5wZEEynfE/GTvn51+Hy9bdfy6a1a6V2nfo6Vosw2Vq7br2MnzAZ8jxOli5ZhnHcDA4pnHnJkp9++QNy0UROOq4b9NcMmTZzoRzWriVagIlOQa68/NYH0qpZcyjxBPnwky+kXftO0u6wNnAE82XmrBnyG/TSzJkzZenKtVKtenV1PmPQB9/1Hyhx1erIW2+8KXlZGdK4Xi2Zv3il/DZsBHTZMJ0k16/fSA1lDCaqO3akyfA/JsjY0cNl/fr10H9GDTp1odPfHE8cn5Rn9iO3iNgfkTCCNWokQyYx4cIE7PcRY+SLr77BBH2uOsHNmjaGs8KVZiABsgJO9GCYP/3iS3VShg0bKtMnjpd1GzZJs+atJAL8pdO8dmOKjEC/jB07WtatXQV+wkhVrQajBlx5u2Xm0o3yx29DZMTQX9AnIk2bNqcGV5ozMnbpcY/hCFtSUlQ/cmJAfUc9TZsxZvRoWQxZ45ishbHJlSNOSGhfqM/HjB4FPNnSskU7OGGFsnbtatAyRic+33z3hdSC/I4aOUbtVd36dTBmIuTPOQtUH0+bNllXd2rWrCXVqoFmDgllJJ0PXkWPgPwCuZ45E3Zq62b5afBv0H2F0rxFcxkwoL9sS0uXtrAFxXD8dmfukgGDf0E7WklSbISsWrNOfhvxh9IzG+Ofeq0x9CP7yAH7ihNl7hQN/fVX3bKcNGkS6krRcc7JGlf/li9fLr//8bsM+22YbNu2TY9pUHZZXh05EMxA20wdSt6xjZMnTZZ02OjmzZvA6SuWtC1pMmr4ZLni8itkS/pG+R56tmeXo2TzujUyftxUaXXYkSAKTlzOHvl91Bi0caAsWrAAtlGkeu06OskqgZNHvcHJbNXEqjKw/yCMn83SsVMnWbp0oYSgb7/4sq90wBjIwiTh6aefleLwGNVFC+fNkY0bNyjd1LGWF2A2/lEmOLmfOXOW6pIZM6eqEzZ40K/Ss+eJsLktIfN5shA65Ouvv1YZIN8aNGigeJh38eLF0BNjZMKECbJkyRL1G2jf+33fT+3V1q1bpVatWtoXfK5bp67y82folx2gdciQX9WmkYc1a9XEpDZSNm3aBD3/m/Tt+xVs0WT0/x5p0qAD9Esu2gndO/1P2bptp7Rr20rQ7Ypv5qw/wfupsnDuYgwF+ERxVaQoeyvG7x+ShwnHxx9/JknUj+izDz/9Qo4/7niJMUWyaMMGGTtytPz840BJg7zVrFUP4zBWIsIxSVCJKZUd3gWe3EO5wLFGUHH2p3mgZoC/oGFDKkKKhu3pKWZb2maTsTPNpGxea5544kFz5lknmzVrV5jdu7drWL5isbnllhtMj55d9P7nX340iYlx5qijjzDHHdvFNG9Ux9SqWc1MnDvHZOVsM4cd3sYc1b2badKsmbn/rjvN1PGjSJepWz/ZNGpcxxzWtrlJrpZgVq5aajZvWW+2pm4y6dtSTGbWTpOatgH4B5g6dauZ6jWqmBYtG5mu3Tqba667zGTlbjYz54wyzZq2No0atDPNW9Y2zVtVM1USxTzT60WTnrbHdD/hBPPS2y+btF1bzKbVi82YXwdr3dNnTjBvPXePOePyu83GTavN630e1fgTju9ijjn6cFO9Wpw5/7zTzNIlc8yM6eNN8+b1TJPGtUyd2klm+rRxwL3BbNm8ymzfttHszkg106aNNYkJkWZb+maTunUDJoA55sTje5oHH7jH7Ny51jzwwG2mXZuOWr5z55amadM6pk2bxmb1qkUmY9dWs3XrWsXJsAR1JiZGmq5dO5ojOrY2VZITTLP2HUxU1UTTs0cnkxQdYpIiI8ymNcvNrl2bzRNPPmjq12tmmjRpYZo0bWBiYsPMlKmTzLLli8za9fNMy9b1Te2ajcw5555heh53hIkFf268/g7oDWO+/+FTU79BNXNEp7amU+e2yt/X33hJefLj4O9NjVqJpmHj2hrqN6hpkqpVMVvSt0A2Vpgj29Y3nw8aYrZv32KeeOR2A9tsuvc4ynTveZTm/6H/12b7jhSTkrIO/bjRpKduNDu2bTHz581QXjdpWAN9V9d0OLyZadG8rvn82y/Nmg0rzfjfB5r4mjVN41bNTVPQ07hBDfPgw3dr2vZtm83OHVtMxu50s237ZvPCi09DLhJM8xYNzYsvPW2Wr1xo2hzWzHTrfqSpkhCFtjdWmmbNmQLZWmtuufU6c9rpJ5gFC2ebIUN/NDVrJZnB/fuaAR++YppVjTB12jUzD7z4lFmPfoFramrXq216oj1nHt/JNK4VZaZN/sOsWrMEMoo2rV9tNq5eYXZs32AmjhplkhMTTMvDGpuWLeuYlo2TTb16Vc3U2ag3ZZN59cUXTGhsjGnZor7p2rGZSUyKNT8M+cWkgXcDB35t4uPDTKtWDU3bdi1MAsbSc88/bTZvXWIG/9TPxMYmmiuuusC0Br9POLG78vb3P35V3vZ6+lGMnXiUbWC6d+9g4hNizDvvf2Qyd25DvWsgV+vA9/UmO2uHufuum02N6lVMK/C0W9dO5sijOph27dqYtetWmmWrJiK+nfnzzzlma9pqhDXm40/fNVWT40xRcbbW1aFjG5UPhs5HHq68GznqN/BiA+T7TshYEvqylTmsVRMTmRBuZi+YYWZNGGva1q9ratauam556HYzZMhA07JhXdOqSzuMr9PNrwP7ma/7fgJ9kWTad2xrEqvGmbbNapvbb7rSrE3fajauXWYOb97AnHx8D3NUp3bmcPTtxReeaTauX27SUtaanekbzA7QugP9kQEazz//DFO7QS3TolVj06JhbdDT3sA5MFs3rzYtmtY3TRs3Ms2bNDIN69Ywx/foZjZsTjG7d60yZ5x5mnmi18smM2Ob+eidl8xJJ59t0nZCdlOXm9TVs0xyjUQzdtRQk71zq+mAsfjhJ1+ZHenbzexxw0296tHabx2POAzjtKOJr1XXpKZsMJmbl5rTTuxh6rQA3Ud1MR+994ZZOWe8qVenjqlWqw76sa6pWy/Z3HLbLQYTSpOyaQV4V9c0bNTSHNa6iUmMD4EO6GQ2bV4DWd9i0iHv6ZT/XanaH9dce5nqRfZLk6b1TFxirJk2e7JJT19m+n72pkmsEmuO7na0Of7kY01sXLh549UXTPaeVOXX9vTVZuXSWSYtfaNp06GtCYuNNF2gV1s0SDIJMZHmgfvvNyvnzjaF29NM82YtTHK9hqZZm1amabP64G0TM2fBn0pD/49f0LHcFji6dG5jWreoZ954/QWzdcsak5+bYbp36Wjaoi2nnNDNtELZBvWqQ8dtMps2rDLH9jzGdALPOqNfW7VsbBrUr2lmTJsAfZhqLjjndBMF//awlvVNx8Mbm8YYh92PPBbjbbMZN+oPc3Sn9qZTu47m6M6tzO8jfjIdO7Yzb77VB/PvLPPrUKvjW7ZoY1pCDqpB5hs2qq06aAvGA20K+Ui+bsV9lcQo9F0b07Y95PKwGqYRePnSKy+ZtB1p5twLzzb3PXSXycvPVJ23ZNlkUwPjevqcP032tg2mz/NPmFq1q5t6DWprPYlJMWbBotkmFXxlfS7sgNy88lpv7aczzjzJtD28hdL4zHOPax+MGTtC+4h6jHJ04kk9oI/bmRkzJ5lt0HfbKYtbaRs3qCx836+v1kX7WadOsqkJvfzsU/djDCw0E8cNNO1bHmHSVqcbONKmTfs26OsZZvGMYeawZnUh07sRUs35Zx1nuGbRolUz07hxfVM1Wsytt91gNsH+bli/wqTD/m/btE7txA1XXm0evOdhyE+26r6Z86ebJhiL7K9loLFDyyamUYvDTPN2h5s2sOeUyd4v9DKbIAdboP8d7ZSZ+QtmmaSqMagXuqR1bfgBCSYiItJ88/UA6OhNZuLk4dB1DdG22qYV9Pfh7VuZk0/pqXK/ZOk8U6deNXM85InxjZvUVdu1aPGf0JlPmrj4CNVPr772gun9Yi/1E9jXw0b8jLGSrPxv3aap6YJxRf7Pmz/TzJ0/w7RrjzHXtpVp1ryJqd+wGsaSmFf6vG92b19nenRpacIwlrqceqb58ZfBZuTwQYbvwLRq3dR0Qt2t4Nckx9cyqzalmdULx0Hea5vajRuYtp06mZ8G9TcTRw4z9RvD1q9ZbWb+8YuRuDBz+JEdTOcOh5l6NaJMj25HmQ0bt5o9u1LMTtgS2rh0z15uR1+4sANhpxd47+I1bmtpWvl0Bq5ze2BdQc509I0RsgFRuu1WVIxZyGS54IILdDv3yCOPkhtvuFHGYCZz66236gpbu3btdGYzdepUGfLLEPl1yC9SrUZ1Sd2+XbKzMuHNR0nduo3UG3/owXuldeuWmHGNx4xrlaxflyJDhw7VWRdXtAIAGrisy6XVL778Qp5//nlZsGCh/PzLz/LGG2/gfoHM+XOWxMRGgUYjDz/0uEyZMknDGWechpnuJsnNKZD7HnhQBv00WHZsS5HEaCOTJoyTG+97SFq16yAhxQUiYXGY6UbA6z5WFs2fIqNGjZRf0Ia+fb9EHfN1RYOrmDyX1qdPH1m2bJnOxEggxoCSylmXzry5xKtLu3ZrkkzkUj63ODIwe6wND/7333+XGTOmyXvvvadleXjTrlBwBQwlEPJyc3Vp94nHH5e58+bJBx99JDt375EvMOsYPGiQTMWM7qjOnTHLXgv+rZWPPvxA+n75ra4Wsg+I+5GHH1Xe6VvVmGE9/XRv+eD9D+W3Yb/K44/fJmmpO2T3nl0y+KcfpfORnXSGyBknV3KuuOIK3Qqog1knZ5mzMAubMX2GruhQNhYvWSp70B6e4skrElm4ZKEMHNgfvBsh/X7oJz/06ydPPvGkzsw4u9LlFwC5RZnicYDjjz0as9iRMg4zt08+/Uy3ZeKioyQhLlruvedu6fXMszILs/NRo8bJ0GEDwbdRsnZNChhULCGhPCPHdoXJo48+qquojz32qNxxxx3y/vvvy9FHHyXDRwyXVatWyZjRY6Rtu7Yyc8ZM7UfyZgNmVpSfl/u8DF48Lh0OP1wuu+JyOb5nd7n86qul11PPSz/Mho/p1E5Gjx2HGeEv8k3fL+T6q6+ULz//TGpUr4GWYN4bHasrhvEFRfLsCy/KI72eljGY1c2cOkV5sAd9VlSQI1Bg8tEnA+WP8SNk3qJ5MmzEaPnovXel97PPSmFEggyFTF91yQUyGrQOHjxIRgz/XY45+hjIVAjG1Ti59urr5amnnpBZs2bqim9BPuQWwC1Wrpp8/MnHMhp8/H30OBk29Ffp88zTsnF7rlTB2MDo0Bl6bla2xERFCxwV7dNPPvlE+zw1NR2z8I0SFx+NsWqPCYRjis9ZdFJikm478bcpx48fpyu1XE1g6D+gv1x44YUyAnzmKu6vGMPPYYwOGz5cfvn1VxkxcqSutDSFfjiyYyfp2qWLPP3s08ovrhS9//GH8hzaf0SHjtqmd955R34f8YcsX7ZcPvnwfRmN8hm7c7XfosLD5LPPPpUvv/hSfhw4EGP9IYlEXFSEPU8bEhKGmTVohPxNmD5bfh02FGNhiozD7H3bth2gaYQMHDBAatasgbE3EzpiqsyeMwN66zD55ONvpSg/TAoLuD1TLPl5OZKB2X8eBJv6iEcgijCWKbu6Qog2Ud/kQLcUot+rJyfJ2NGjZDjaTT32/gcf63YXy8ZGhktqSopce/1NMmrsBLkSMvbayy/KtddcJ3/OmQdapkOHzdHV3JHQO9ylSE3dKoMhb9Onz5QNmzbJe5Bnt6qj22G4MixdtlSmTZ+G8TEKMjIW+nSavP/eJ3L7bQ+CF6EyDrJw/XXXyR9/DIW8/Yw+GyvXXH2F5EAOeGwhBOMoOppHX0p05fuF3n0gf+PlT4zNt998S1dBY6GDxo8eLYkJiTJ56nQZDX6ORL/06NlTPvzoY906/HPGVDn7mpuhd6bL9DmLYRuu19V2bo+9/8F7ukvAFRXK6Ecff4SxeYz8AB3BVWKuRt5z9z16DIOrPAPQR9yi4wr9gw89KKtWrtCVLtqWe++7X1JStkGJhKpN4qr0O+++JxMnT5TTz7hQ5ZW7QJu2bJRXX3tVLr34KtibsWpzFG9UlJ7hop5OQHuYn3z8/rvv5fB2h0O+PpPFC5bId99/LalbU5GGqhCovyNgv3Jys/XMJ7cweS6XW9urVq3U7eOxGBtLYRfWrFmjZ49vv+12an4dow64srdh/QbVrbQtE8ZPkIWLZsull1yKMVciMzG2b7/jdt1d4Qo/x0P7Du31CISu7oFetoGrvFyJvOHGG+W7776FTpil+oxj8u0335GUzZth69IQ0qF/dsmuHRlSXGC0L02RPVuXm50L+1Qsjz7yMORwjtY5DzL4OcYYV77Ybh414SeCuCpVBDvBs64hhufi7AsLPJbF8cJt/qT4KrIJbbvzrvtlzLgJMm7cOD3ixRVVDhwnswzUL9yBOuGEE2X6NMjMdNhcjJ8G9blaHwfZNfLyyy/JWWedCd3yu0yFXH/3/XfCl+YoM1yB447V559/rr4AZeftt9/WFcSbb75Jkqom6Qr7jeAPV755hIdv0ZJ3hH7QyxxztBO16yYrviM6HCFvvP6GDB82XAb9OFgWL14E3XaqzP1zkURAtz33TC/YmBh5G/bz9NPPkdo16kNnD5dpU2dhXIwBnYMg5/Vl8pTJ0rRBfdm4IVXefu8jGT9xspx04kkSS49aQiF7kfLtF1/IGedfANq5ujhGxoz6XXcrvv++P2SN8kZNU2ov/WLEZ39woM/IV1k6wZ5iLwfq6KEGbi3Z2xBdEj3xxBMlIyND96m5DdYZzgbjdMm0Zi35FQr+2Wefk4ydOyQjPU2WrtkEgYiQgqICqVKlKjrvfDQ6UsJL8tBZWTJ/7nx02Fdg7EJVDGlpadroOnXqsFYAz7kVQNFFQnFPle3btstHcHoo+FzWXQtHh4fyu3XrpoLb9rAOoBmeR0ihtGrVWqZOXKPnjLodc7RsT9ks6SlbJKl2Pfm234/y07QFks0tDCpRnnPDX9u2reXhR5+Ggt0qW1O2qmDRweMSMNsYDQFv3aqVbEtPh2A2gOKFoMPZYNkS8EoDBq07A+DOgrAXyMeExASpV6+qbpntQDsb1K8fyKP5vE6lEqJxzdidKYcddpi+KdiiWXMIboG0a9sOzmSBNKhbHwMvDIM5W4rRi2z/iy++CKMLkQrPgUGN1S3I9LRtkpgcqn3GLekIDlIIE7dLCgrTYawK5aKLLoZT2QuD7wRp3KSxdOvaTW7CoKFRZn9zW24+nN7dPJcHJcOBRseUZ4Fi4UzExiZIeuomPRPzJpzw3TB0HFjsO26nqhMMoeInfAjcpP95yBAohrt1uwsdLA0aNgKeOD0LRcMaBl58/dU38tOAnyQqtEiiwrYDVwrkA84T+pjG3UD5sF0pMKZNmzRVHtNILMSEgPWeesqpup3OcxlpkEee47jqqquU199CSXLy0gWTlzPOOEMa1K4lOzas0XbxEDZ6UXak75CrL79aDmvVRrZsXCW1ExO1njFTBujWMM/cFIVAIcKZiwxFWyG/3U84SRKhdMJMoTRv3gLOfW2JjYqT9Zs2y4bUDfLgvQ9IHA+Bg246KWlwtLLzCuXiiy6Ue++8VcZOnimHtW0L+W0nZ5x+usr5Shioxx7pI1XiEyB723U7g31DxUlnb/68pfIajBsPxEfAmQuHMs7FBGv95lSpkVBVIsFL5TzaxvY1bdJEt8nq1qsr+eAJ5S0XYyE+vjZzKV3c1iiAk8MtE/KQDvvESZMw3hYp37iNRKPAfq4N3nGc3HLzzfJ87+flh/4/SM0aNaXbGSfJeWedI3vS9+jbcLPWLUddoVqGiieuSrxUxURrG+jkNlmnjh3RxirQPyXSFjynkzh06DC59qzjYeASIJdd5fDD28mxx/ZEOBaynQ4eN1c9xTEYIXmyZeUiadKmkzRr3AT1pkk14Js750+Jgt558rH7ZOuWrXIZjCuYB3ndDSc8Veo2Ploeuutylaf4ODjusfESB1mMgSOfmFgVA3mPhPBMFMZ6HPjGwLe/q3OrFnygbh4OZ3L8zLnKpyWbdmFActJn9KhFARzCbj2Og9yhTvT1BjhRUxamyKgJU1AHzyaV6KRk6dKlckLPo6Rzp6Pl+BO7S9vmDeWIzh3kssuvkHr16+mWOY+RkPd8iWEtxveO7Tvkqquv0v6iM7EzoxBO0Er0R76+QHfldTfJyEl/SP36daR1s5by2IOPKM08H8WZPo9PsP/5kkGHI47A+M6QBlWrYhxWhZOwC3q+tvSb9z0MZr5cd/V14EWOJMSGYIIdL5tS0rXfly1dIsfeeiX6NVL2bNuIick1cvudd6ue2LB+vbbrlltu0bOaOZhA8qwuHfjrr78euudCefXVV+X111+X1m1ay9lnny0nnXSSOrcxyP9in5dk8+a1sg5jMz8nXBKT6qm+KISM16xdV5q1aCGb4NzUr88z39GQn0TojghZvWqtfPrhDzpmwDDdOm7durVud7Zq2QpDwTp65CWPEp1zzjlSH0Z65550qQHZ7dGzh1pLZAFgIsF7/Meg+h59GQodlAa7QH101VVXg6ehEh0VAccQDj70w85dO9V2kA/UObQhRx99tDzw4AM6KeCb/9RRl156qY4JTqaXgJfctozBJJ1jm/qXY4nnunnOm2OTdOv5P9z37z9Ann++tyRUQTuptzDQWa5atepSnSG5ulRLriX5udChqIPnt/Pg/MRHV4E+4FngIvn2629k2sx5sh12bdOKldL1lBPQXo6PAuUPnWu20U5yihAKJRyTBG6n5+bmQ37g9KE/8iDzPXv00DFOHpHfnIj4ARxUXnBBokOHDrqNGhIWAZvILfZktS874T/88fs0tH0P5GQu5DVcJ07k6VLw5/DD28MOt1YdwPF/zDHH6DET2gLSu3PHTnUyuZWeADvnQG0Q2kVfhvykn9EcdpWwJ3OPLuKMHTsRE+HfJT4hRJavXCJnnXS7noePQn/URX4D+56WtlWqJsVjwjhBvvjuG1m9epnsTNkuW9MypV7dOhij6epXNKjXBHWG6vEWegnkSg4mWcuXr5B7PvwYejUWfVmsNuLE44+XBfMXYpJ4NvqJ2pHbufxTAQyAz+8rc+9ylU/3l/at7PmBA8GeIwqBgmNDm8DI3XTTTfLSSy/pysgzzzwD5+0sq7gh3B9+9KF615x1nHHG6ZghfCbHHNUJCg/YwnkQOExio2EE0Q44yJhpDpXevV+C8IVgVnaGPPnkU9IRyp7GjR3G/JAancmyEykgjRo3UseOyuB4MOemG2/ST35wENAB5DkSVdb6SYQEHXwMkVBQZxzbBbPNiTJ+zgo4fE0lKRZGUaBoI6n0eLAzC+05Q2bPniWN4Hg89NBD6vlTCS5ZvBiOToY6DWQ/mRaFeHYeBzaZqjNuDjYIgz+QbjRDBynbVVDAVTx+V86eWeFhV5Zl8HeUHqRGH9DQ0kGLjOTBT8wOeTAVTKRB5Kw6ArM1Bp4f69SpoxxxhA1NmzVVRcp67ZtgRcgXBh5FSxYUNKoDTsxYYcQ6HdFJz7HR6aGS4UrRdddep/Rx5sSVvuSqyXLttdfKa6+/Boe1vg4cCm52bqYU5BXBGKDfwGsOoC5duujKGmfwl8CwciC5NjLwgCsVK8948jySfVsSPEKb9QUIPiMcAXk4CsauU6f2cnjbzpgRXya161RTJQsU2ibSSIVBBUflRHlkmymHnY/sLD2gfDjDPO/c86R79+4qXzwHtXTJUu0bKjFCERx3nkFBtaABzlJepmRmZ+qZGioafduOfY88XPEkfqUXUsRzYvm5GTqD5CFnHjinImS7dLUBs+nYuBiJgnLvcdRR0h2TDyrFo7sdK9fdeLOUoC6+5DJm3ETMJi/QNn2J2d9jjz2mMk0as7P5kkSWOmlc+eAZFdJPmaqSECUdO3SUHt26SNejOkvX7t3kjnvvl9pVY9WZM/pWYgjkhud++EJMsZ5346Fqyi9XRfnMcc9VYKar0ALo7NFBzILzSB5zksAx2KVrFzn33HMxyz0d4Qw9d3oJjNbHn3yiZ2BS4Wi9/MqrMvjnnyQajlE+eEIHiUBaYqDQ+BkIrsySBjoglD1OoCjfXLnkSxi1MYncs2e3Hip/5uleUqN6NSjj3+TKK66AEaum7Sd9PL/JFYhY6Jes3GL0R55EhsOJgUxuxURv3bq1et61NhR9586dIFNHSLcuPSAX58vFF58j4RF8+5OThyJMEAu1D/MLc9AXxer0kR6uwJM+rsLYN0YpfyW6WjV23DjoyCZy8sknyzvvvEelp7JEWeUhdO4cUE64OsM6WmHSSHns0qWrHHfscXLrrTerI1C9Wi35/rv+0KdvSkeM44njJ8vdd90DQ7BAeac6A3VStjiW4uHMcsLSs2dPOeqoI6V7j6PlpluugQEtghwcI+MnTIS+PA2yWSS/jxgt90AuaPDI6xBIL5026vgCKOroWOiZKOhd4GYdVEERkI3svByVi6OOPAI0dwNdR6jzfsIJx6sjwxeT6DSQPytXrlQZWwGDRp5t3LBRDW779u114krdcESnTnI0DDTfvL8LE74333xTjkE8x9mTTz6pKy/c0aEOpsx3AB/eQJ5bwCO+6EdFSR1SwDqLMObRlkLILHdS8vL4kgBfgIuQbOh06knLL7sTwBVsXjnJJXBFkwsVXGTQZ/RTRARXFnNRD8cvInElDgLrys+3Ozd6Fpl/6GfqGLaNK4TN4ECwP+iAU1foeALQGT/zzDNl9KjROumsiTHz7bffym2336aTBMocHZSrr75abSsDHUE6NVxJUz0O+eNZRso97S710FHQKZwEkcdXXHkJ8ORLFvQc7RWvOdl5cEB26ss/u6CLMxAKC8AvOCHXX3cNdOESaQ8H6t133pUBA77iAFW9w5cn2X6OV/KMTh4dPt5zskC7nIvJNYRbvyig45j2Vq9w4qDLyV9e/UBtz/bsgFNHWdE3nlEXV0750gfbRYPA88hHH3W0LipRl5933nlob1Xw3qiM3HfffbrTwN2mZ599VlLTUhU/J0Xkue3zYs2vjrp35USZkwm2iy+eVYNOofP5McZxOhxe8v2rr75BX50osfFRsF9Zaqd2wXkPh22Igs38CXbxnffegTxEYlJ1uQwY2F9atGwsu/Zkg3b4HXy5CbaBLzhxzDPoi060GRhT5Ah9AOpU25ecBKM/E5MwliydHIeULzWOHvhuDxroQlYKZA4VKZUvFethbQ6TdevXqWDymQciudpGx4zbEK+99poquyIM+syd6fpiQkx0IqwnX0XGAIWSo7DkwvhNmToNDuPzcu31N0j6ts2yDQOfK3U0LuwE5QaAHRYdEwcHo56ccvIp6sE3btRYBYXL8/XrNVKBp8GLT4DzAgY6YY2B8oJMSlRovtxwzaVy26Mvy+K1OdKhS3eJRFx8FJzJMBh5DNxcDKDVa9bID/2HwFFqrcLC5WHOEqjYuJoXA8eLtNH50rcGcc9OdHQq3YBt27fpbCwLBjpj9y41DJzVa8eFcOCzy8r62eS1K0/gPWVeBd8DbgnxNXe+DFAMDQN5guNMIxkBmhvJueedhdlUC6DGjA3Kefny1RDkqhjkO9WpIyoKG/UW3yTjJ1lozJ7v3Vt6dD9WBwzr5QyKhofKYhr66bnnnpXGMGTcyuELGmtWr8FgjVIjziW4qNBIzJZqYtadICeceAKUXnd902n9uvXqXHGVxPWnayKdE2570UHg8ntKylbwqER2bd+O2TFww8DWq1NTbrj2SqldI1my4WzPXbxQqlaD4aUyh0w6IE7td1RCx4UHnrnqcu+996oiZ5tWrlqp/M+DbNKB5qdLXuj9gm5jfv7F59K711OSj37KQnoi+gKMkaTkRJk+c6psSdkkyYlxkgfer0ab6sLZpaIjnZz2UWmGY0Z/BBTmvJkzpU3jU+EUhkjK5hRZv2EzHKQ4GCU47qFRcu+dt0i9mtVhmETWYDa4dNVqiQ0tlOdeellaYeLyIGb9VTG2pk+fLVdeeaUec+ARiVmzpkvDJqeB79Vk04Y0XVWjzFGxcWycccaZ0r3bMeAhHJXiMJkxY4HUTY6W+CSMP/BVv3+ozLerGZQ3tpFjl4pWlRDoi8SEIH1bqjTIqoaxiv7ATNuNSfZTHcxcqWSZnwaZxpNv03P76oEH7oeBfhhK8xN1uu9+9EEZ+EN/uf6ciyQa8lDVJKsjT4eRshMNw1pcWKz3fOmFB62PgiNJXZG+a4dkg6+tmjfFpGC5/Dljmjz21LNywQXnq4KkE88tk3POPkcNOvs2Oq6KJFSrKbvSU2RbWppUqxKlxu7OO2+X8y48H05GR6X3sUcf1hHItypXrlwtGbkFwIE+DDPgU75uF0XHxUK3pYLP2yS6drIsh8xnZuTIbtSdvmO77N6TIbv5Vntulrz2WT/58ftPpXWHzmrEhk9eyIErcZTJYu4eeA4U5JbOYh3IT/WG9eTRRx4EL2AoUefUaTN1G2vzpi1wZC+T38aOkNOOP1FyMrPl5TdeUyeKKxjsBx276PtatepADovllltug/PYEk5qjmTAYUpJTYHOjIQsPSynnXmRPPnE00pDJozV5ZdcjGECHQAjSzzc4AdZMDDF0EglGgpL4MBBf0RCrxTgvlGzxhJXJQYO6U2Y9GEiHR0O3b5G9sCRQaskuWZdSU/dAqciE2OjnnBL8bEne8kHH3wgp556qh6m5/EKGm/q1cVLl6ncUq74CS8uIPTC+OOEgc7eOoyxrZhkzV+wQPp+BecDk/LMrN0ydtRUjN8s0JsLJ0JgtKmPoTfVYeDnQPixa+gCyHDVqokyadJ4ad68EfhrV6jpeFEv0PmgY0XgiKCjxAP73AIMh15j3tWrV6Fv+OJRCRyKRMnI2Kk8352xC2Nzhjq/2Tm7pVHTpjrRuOH666VRo4aQXaOrr1wB1xcyYFd4HId6vGaN+vLIo/fpsadzzztXLsRkfPy48bqoQJ3bsEFDXcnjC4+si3Rwi5YOIPUNHSMVXAD1HfFzm5fbhHS0+ELOpo2rpXqtGhIWkQN9XBX6spoXkhGqI9SAnUyU5BpVZPmyddCFUbpIk5BcR3Ig22+88LVOVAkxGAMldIoNbAzGL1/+2Y1+4PcuCwpLUNdGlIHjCHueHwrZDimCb7ALz+Cxgb7x/alH7IN69epCpldpG6skRsgO8GwXxjw/SsK3f+vWrwIn9zi57NKrlRe0RVOnTZUWLVrodj9f/qCuueGGG3RM0BGko9aieQvltfIKwHvyyh/skasI3SnjwhB3CLgT1LhxE7n/vnuldp16kJF89DUm+QnZ4CWcV/Qhv/oRCYeMK7JLlqyEfXlYrr7xJtCcJetXLJW165aJiYrTrei46Diti/5OJPRTARxkfkqGejOpeg35GnLdrncL6Kg4+BgbZcGCedL92DPVd4iL4xExVc+qp63eLoWynCwL+0rbp7PHKqAP1IDSQ6dSp+HmigYHOTuKaewMzlRvu+02XR0qLMiV9BTMoKBMN63dLEcd0UL2QDHab1WxbCRmcsfKXXffLTNnzYZ6gfM3ZQoUXaoqcutk2gay06KjonWVg+d6vvzyS+1wnrdi2shRw+EkrpPNKWslNX2V1K7fCoTTm2fDC2B0MbMDk1thQBdCQH8bNkzGjx4OBZCJ2W6J5EBBSkm0bktzOZlt6HnsSTJv3jzrqEDI+bYc3x6jAWOgsXKzNQc0oK3btFFHg04Gl6g5u+VKBIUXrACwTXYlyd7bNhK0Uz0BVUD7KZDO2aMSjoOSLYHAlYSD52gTfCw4tOFwuqMxez8OM9/rMAs6EmULZOGiBRgoV0CAG2gnUuFw5YI8I284gDmwOEM995zz5K4775GxYyeoQ8fzDGeceYY0bNhAjjzySBjLu3R7hatc7q3pzZs3SZsWR0kRBjHXhJjvrHPOVf7dccfdqvB4hoirwW3btlVlpeD164knnahK7sabbtTVm00bN+mWFGfcNEK33HaX3P/0C7Ji8VxpBDpmTp0uOYU5ulJEvulnDwAGfCFOKgOeD6SyfPyJx+WO2++AUX9MatSsoW+U0sj/NHiwLplzNYqzZcoqr5dccomc1LOH1IdSr1m/gfwy4CepkVBNrrjiKhn9x2g579yz4Fx0lUV/ztDVildee0uX8y0FBRKFSUWxiZM7brtZroXymTD2J6kGY/PjgF+lCmaGRYWQv5at5cYrL5ITjj1BTjrhODhNDWXUhElSC/LStUMrOe6449XwjR0/UWWRBo8rtHXrNJDzzz9fbrn5blm0ZJrO2uf+uQAGiB+O5aptCfrnTnnm2Wfg7HXVssN/58dJo+W4Adx+y0M+zirtDJqrJ1wBpbzxj8qHK376Kx+hMTDOJ8glF18kV19zOQzNbBhOOoB2FZA85dYb+cXVBNY9evRo4bm922+/XScE1113nfKUIrZi9Uq57977dDU0dec2+X3MKH1D9+Qex8Gh4JuqPP+Tr+nPP/+cXHPN1XJ0167QGyWyeN4s6dq9p1RLiJWqYY3ktptvlCkz5ujqELc8eQ6MWzCUK129AS3h0EUnnHmBtBs4Wi6Gc9ej69GSsjFFt13OPfdsjJ1c6ftlX/C6p5wCJyQd8XPnzZeX0Z8hGEz5edkSEVqAMRUlbdt3kFUr+8h999wLI50k65Yu1d7mOa2YePsGPNiCfi+S47seIX2/+U5q1ZugW4pT56+FYELBQz+Gw+HO2JWBtmK8FvOTD0YeeuQJOe+K62XZqhXStl0rWYOJCI9ckLYYjD86D5dffJkc3radrFyxUp1L9gk/4WC3BLlSVYxJaHP018kIp8hll10BQ7tbpsEpPvOsM+XVl16Qo4/piT67Xc6/+GJMiBNl8qSJOk5r1KoFx4x6lp8bQRvg1IcgRGAo8ZNC+cBfQGcP/CzA5OGCSy6ST38YCBm8UQ7DZDIUhnzK1Kly+113SbejjpTLr7tZbny4t/w+8Gs5+7QTZSLkukvXbvpW7QnHHy9fwbDpli3kZBEcP57T/ezzz6Vrl65q9K++6irpCiefwHNnTz/dC05IjE5iHnnkYTiB1WTBwvmyFZOj7em7MQZylPc8qqLfQOTnbDAW9PNDGJRcdeIE9a47H5LhI4ZKy1YN9S106qFrrrkG+WJ014XArxhwC3bQoMHyxBNPwBmKhdOxHXowAeOWvC6SNnCkaXv4ObFQODQrVy3VqXpUJP4PD5ULLrpIbr3lZl0tToYjMGjwIHnwgQd1NVzPBqLvuVIzb/5MyN6x8vjjT+hWLZ1f7jLw8xydOnfSY0x3wyZ2695NecNn6i06YzzP7jf6fEuXRybuufs+TIDOg8zGqMPYtGlDefSIO2Tbyk2StnOHhvSd6bJ9RxocCUxO8orVcYEJga6oLrugL++9+x5p0fYImTRhgmxcvUBqNoENBc3ZWTkSg7ywxhICnnY7tps82etZiX4Gkxc4d4uXLZH4GDqd4XC0o6VKUjzamac7GUW09aDXhfJOyB133Kl669prr1E55rl0ymgOHOj69etJ377fwnbcLCP/GKfO8WaMK+Lh59648sbFiHkYu9zGpZ/BBagmcNaokzhGeKSJEwzacNoEf9gOO8MJP1dzqT/IS9oPHje4+567ldeLFv8pRSXZclSHZkp7AzjimWk75IXnnpHrr7hUmrVqIo88/ojMmDsHdRbItAmjJTO3WOYvWSZntOyqPgPfbNYzkuw26mrIE+9vuPlWOfuWG8WAv61g24b80k9q1m4EJ/9a6JUwlRc9+gUdYm3d3g7fXwGfd7Fv4GCiIaaj5/nqASKYxqVnrgyRuRxAb775tq5SZO/ZISVFYdK+fTs4QlVVUYWFxWFmc5F88+03mCHBuGMg8FDrF19+ggFGYw8zhDhOBnignDh5/oQvNtCQcAWABnDgjwMgaPFSv14DOaxtSxib+ijLgQUuo2nckqCvVAJFbkJi5OrLL5erLjpb2rVuog3nodsadZtJh9b1dQvg199GyJVXX6uvxHfu1EmVFBVOxu7d6swR7HI6twbKii+FjY7Z559/pgK5Z0+m3AFhbtK0CZzTZlAuPNzNFS6ubsIZRfs4qyKwXHl8Kh/kNQcK8sZA8XKHBdIDIeR36sAjpEdjZhIJw343nLV77r0dfcGXFkLkvXffg4K9BnUVaDtbtmgNp5DfvOI2WaTUqNZAmjSpp4a/c6ej5A8oYG4rcHbElxY+eP8DKJpNurr0wgsv6CFebvd+hX56/NFHZOXy5eApFEIeX9/PUofrRgxOvsLPg77bMUPh+T0qeW6zc5uODjz7lNJTv249Xdk7snNnCpI8A0fn/vvug3NcU3l3wcWXyMjhv0ktOMsz4DRedDFmwWPGS81q9pdOQuG4shPdEjm3Q+K4GgMnswp40u/776UdlPvaNWukLRyEieMnSIf27WX82LF6PqzPCy/qSi37k0cSfvjxR6nTtJncAsXXHDP0uTNnSrOWrWTAT4PgwN6s50pPPvV0mTBxCpRxDyj6SF0tsSsLaBMcpS5djpJJE8eqTIZHxMjylYvlyKM6Ix8GOuTrvjtvlF9/GYbZfpFMhrF88/VX4RD+INXg7HJmyk88cFuCn184/fTTZPDgH/FcE0aks4wbPxrjpw5m/4115ey4444TftOLqyF0tvjJAJ5XnDp1mvSCszvs158kHO2j4eNZUsoTFRtXxakgdbWJ4gRZ5tZ5LPLyXaXHH3tI+2LlilXSC9ennnxK2rVrqw4VFSTHIGWC51t4sJlbcHymU/3uO+/IW2+/pQqVH0Lmp0auuPQy3Qp895NPpTPkZ+PqdborQGc/tNBuQ0fDaJ+DicJsyBhlgS9efPL5F/LOe+9JUhU4e1C+QyErx59wgh5W5zbym2+9pWeCqKTZNtKWzfNDmFUP+OZzuReOyNo16+B0dJVxY8dIMnjFHYAx48fJTVC08+fPk+jYaDgdn0gPGNfiknBphwlhk6Z1cV8MHrWSX38dBJ4VSHXI3Mdf9JWzzjxBV6SSa1SXOvXqSK1a1TGm4uTb/v2lVZvDdPWN9U0ePwoThNMlB86jgf46pssxkhwfASeJxwwipT34MH7saOnYvi1oG6fbsD/9NBgT5hZoa1UZAL3Wo1sPWb50mZ4R/uSjj+W4nsfqpx54VosyFxZmJDYuQr7+5lP5su/HcBaXybb0XdLnxbfkqSeewzjIkssxWfn6676yYf0ajLXf5KleT8rtd96hW578Xl4Jxo1OWdQalUhS1QQ43lz14+qHAH+UZOZlSVh0BByY/nLyiT1lw7o1sn7dOvns00/lWjhp3BFpd8RRMuLXn+WUU06WGbNmyZ1wWG66+WbVaU2bNdNzW6eddpr8OGiQGtJRo0ZLT7SHK1OPP/a4XAH52bRpo4a30a9cweSLNL2ff16de64AXXjBRfL9999BBnpA/xbCuYjF2I3Qe/4sGCdhMTE8Pxyjsn3SSSfAgesHu9NGzzbyRbeXX35Zvx/I4wE8P0j6eHCeThd3cShPWXty5Jqrb4SMJmNSHwsdEQlbc558+803shqTjNbo59ffeFuO63G8JMbHS23Yh5dfe0VtHT8PRgfkgfsfgHN+MfrI6nXqb8o1nXWeuf7wgw9UJ3D80I59BSefE4JTTzlFz/JdeP4Fer6PtH76ySd6vIm6inZWdag3brmiN3LkCH3mERKe/3sM/ExKrCYtMLlsc1gbqVmnlrSC/WnbpqU05O5Mci04eHv0PCa/J/jbiN915XDB/PlyFxydBYsWa59lwua5o0bc9uc3Mi+EDv7yq891oh8XV0W++OwLadSgARzNOIkEPxOqJkH3RsFOcccgVPuaoD6CL9CmU3dx4YbHfWbPnoOJ+ePStWsXjJUj4WjHS4P6DfXFOjp6XCXlsZdXXnlF9QV1JGWq/eGH6wuKKVtS5JOPP9azeHT0eMxsa0qKjhfuRnBnjrQ0BK2NgY8vHfI4R330HfFz4Ybn1anLktGGzMw90uell+Wt19+Ho5cnu3Oy9Ru39z1yt2zbugEylyPnX3SWfD/gC9mwYZUkJ9WREb9Pkdde7iMlebvhJMTIMd2OkfgoI+Fiv+kXn1hFj0HwGFfX44+TeTNmSr26tWUeJjFP9HpO+sNu1qpZFbYyEraEdgX9DMNir+zhvw8h/OyKdw8odWLs1c5+CFT2dEpIOIVOicAfVwcI2qGIZx4adkgjPO5iySqBgIblSVi+6JYEVwoQ4ZW0ZynYgTS6xFHCswFwCHlPXNpOTDfJBOalF89leSpkFXzUycHt6HbAZxo34kAynvm2awScjQilrTgEjiuUJp3N4nzEheSpc6UetTc4KbD6kVjckx4KBclhnXwm6P+4d3xhXv6KAr1ze1CVb9tCQSON5Wl82V7SY18+gSPgq8thJR7bJls3cTinkLH2kLU988RtdvKDfOOysTrKHo3cnuGVuKmYuUqqPAcdNJCsn2+2MY5bG3bFkn1p20TeMi/rIt16ZqmIK5n8vtR8ueKqC+W5J76RM845GkYkS0wxaAEdlgYrE1ZOCP4+YkttG+kA6rkr5FVgvcojpJPP/AdcxKvJKEee+YFtZBldofL4rv3IskjjH3nEOJ51BHLFQyxsp7//mJ95I1RwFL3FjcB44uLWrbaNdXig9LI84xk82osg01wx4TkjJZu85Q2JZB5GefldYBppJV0EpZT/UI74NB552J+Ms5k0g3ePZAT2o73qTEHroSNGHlCe2Caep+OqPXFxC4fjijSyDTp+SC/7U0m19DFOCQC4dpMm9hPP4rEc31xkG/TjuMBL+eLYtStxmOxgzHMrmFvgpJf1Ut44OaChJD5OwthevrDD3QXiVprBf/YFJ04cO04+rAyBVtKm+PgLNTxLC7nWNMt7pusY5R/yYcgCH/vH6TnbJtLE/No/itlOzjgOtH80zfJB24xxAQlTPVWSn4Nn1Ik4frMtEnSDSuRknVa78q1ORwOxsD1MU2ccN4HJNepgv2lboLO0fmBg3eQHJ3Awowh8mcB+7JXNJRqmK19APD+g7epSIB1oN8c3xz7zst0sz8P42laVWxRm41kEdVp55RlH+9Fz9/KAPUeL8YS+oI6iw0CatU62xyNKKfDqZiAvnQ4jbSpTuHJ7kmPa1efOjJFW9pGN57ZmpE5c9cPeoK80D3mEsYt83FYjVj7rGCJdWp62huODEKJOJ9/Qv/DCi+Dgn6l4uHJGXtgcni4BjaSJfaHEgg7yj4Fl6HiwflvCZrGrNRbIUhtry5EHfOJqe+AcKnnGBgLsB8dtflcfadCP1gdogN6K5LhAueI62lb+fBqP9kREFMu0qZPkzjvuk+lTMdmJwvgM4cf8KWtRcP4xJsOKJB92kr/8AI6CJuCGTFn7ib5DnWyNVuXdsw88qjTO9Q3HPL/tWQo2F2mis6p9TPq1321fsY8oiy6d/ak/tgBgOzkGSAv7j/VynNg+tLxgUKoQQZzkHblKvUE55DPzUx4stzG+Ee8+ukxgnzJdZRN1KR48gwLtJ36pgDSobivEKCyKhCBDx0muFEH2YjmmMZkq5keSUYoffeduBc+EUy/wQ+QgV+lgO3U8Icb6MWw3OYU/5QEpOjSwl7PnwDKt9NkPJE6v5HA5AK3KBP7sGBVhIQSMYhMJwnm+qQQzaH5hO5Rfo4XDxWaVwCEkY1WwEUOh0nt2CgSfQRWOVkdHyGMI/nPlKgO+Lg6eA6iCOQCoIkUKVW4Rx8PToIOdw9qJsxAGxr2JxAHOKyskR0oFyoIlqWz9UCdKrw52OihIZxvo0NKIMQfPVnFA+MEaH70L1MO2VgRsM8ngSqajwfLBGSbc8xmZ2A9USM5guzTi5j1bRgFnaQXFpTf6SJysi6Dx4OnGjZvl0cfvlclTZsncmaukQeMEGPMspKFvqRSYjfR7ZS3PbD1+IA1W0Nkh3pUHVLUc+wplEMc2OAXLfMTG9pbve5UHXInTkmwNFz8Mavkboj+lRGBZlTXgV9lCYLob4HSS+Ezj4dqkv9zAcqSTtNlKFGx/WfqUbv55ZTW3RyvT2B7+WQVOBWidXdZNejmGKHfal64+FHd0EHRMcKzximelxaOHikKdXtRPyS4DpAPBI0flgopOlRtpQttJH5GpUwjlpGOAwDJIolGnY8IyTHO0ujykyz7xAfg5QyCtCLZeV79FaJ1RPCGSOO2D5sINx6l9VhnWRKIlLuKxMe4a6APS5mgCkP86XrRPPIRsDMD+cgsAUVree2QfuXFqxyJx2HopF5Rn5+xx1ZxtJPk0kszNdvGXJLQmoHE8CoE+UFxeRaV1em3CvcoJ8Wm9ANLPP+RlFItYOig3NJjUpzBM0DF0OjkKmMk5saxPZdnjtXMitN8ZiBDA6EB/IDDWlndgea50IBAPHRPmpPPHwAmofenHgtOjWg50sR1sm8NLPKSBskcZYcU0fmwbnT1OEihDykngoHPGNNJJGlmO+oEyaSm2lLMOp1voOLJe4idPnHy4Ogikj1undPa45csVdObjGWWOKauDbD78U9A+RZzD7fjIGNs/bDefbRmXrHxj/SoLpUBe6AQcvFH58dpKOrQs/uOfHxivfciVzhCudoP3RcmoD7hDC0B/iHz/XV/5Y+Rw2bljj/w+bLTmDQnNg41if0Tor7aECfoP//OXs8INz9qDFvYXKmBb2AbyzDlY2h8AldGyJP0l0JaVwVP2mXVyQqB9p74B+18J0frJe9JnFyhoa20Cy1DH2XZYXrEcdQFB77V9Hh+Rz8km0xy/tZkePYxDVaiH/CjWFXP+Og4/ZI9etf4G9Q3uyVv+vKDKuS2uoJNQ1MuJMelmOp8dLfrsrl69fxXCHn300ees4DJ4sQB9VmXm3fuCSy8PJMh56dpcjjGMIft9HhpYxnO1joGN8poNhtguA05E6wD0DBWjKEhaH+91MLGzPcPPSB/sRRfqYS1kNH8iiIHP+ks6AObGPNB2InqEnUyFaB0zOwPRfGxMBaC1lauTtKtRY1uAg28n8ayfeu7Ap8oMbWZb2WY1yri3ToHlg7JHg/dc7k/L885eFJc1Oozj1YFVxlwVcT85w3vms8bKlxc4FBdu/E4Z6eWfVSYMRl8+2bRxnbzyynPSplUnOFCZ6A/OgCxu118W7M1efQNw+WiI1enSSDwrLaARA5q3vJJ/HMTMZxW9pZE4FA9lA4Oag9QNEjpnETB89gUVvr1sD+lq/yJNFa2Wd3hEV/RYhltuaqTYn8DH/tBBTxlBRlbBMi4NjNE6ySPGMaisailLD++1ffhTBekDze/kA0DcpY6ExYf/7NUHzOHkhg3QZzYEoOOKcXwGXi8XCdA8Npp4NTsRqeHmiow95xmpPArg8MC+jeo5cQAadwd8EUFXG2iAOdkBftJHoOxx5u6UrKWB+JV0xWn7z+MNInU84ZZvxPGqipj4VLlY58GCawSjIfNoh5MRP9iaLRAT+al8YYKjVR/89Ngrq3C1MIvyBBG8Mi9Xw2hEmRiCsaB9yckFxgbfFnZbNMjgtd3Kj/aBB4wjf6yTRh7TkXE0MJ0UlpV9dSi076g/qV+Zbo0cMduytg7/2MaD6ig6QlxBcXrPjq9S3iMjuaL/O7oJxKn1I5DfERif7oUEgqPPBQccp8oP3CsOXtFGXrV1yEsatAzZjjSODa0HjXQyxHSOI20feU08DEqXbavFA7y4BvKgDEoDh63DBeahnuR2MI888O1P0qT1eH2gXMCz2inqD+LjH9LYj8zHGNbNPATqGtLraCGOAB/12dZBIM+djlKnWxukSQDvBhelxZem44LtUjTkYhSQgpYQu9q6as0qdXj69HlFX3qk0jJI48/02YkQSyE/5Yc8Jr3oUxLoZEZpRhvcmLBj0bb9UPyVB/aX6slAkqdvcUc+qQzok20/gU9OvyidHJde32nfKK0Wpebln9cPOt6Rx/oxkDkG4uU/BE4mqNfIZNZvxwoStDjkgXzkm5NIYw8QLxeS+KyyQSSsi3SwLj7r1dLn5LE8WDyVhwpYtxeEpKen+7KBAD+oBTsALB5oh3sNoJNCQTM8A0L50Q4jLs442Xg868oehRMDgQ4hnshIMpFMI/B3KpUOPCs1rMMLbCSvftCGlwHk8cry9zP5Q/ZFeC728umhWzqhoEGVNZUQclNWAgrG6wB2BMFfp2IpVydxaR4facyij4hnPUo7/oBVBdMpIUc/0wLKhUmIVhpsjYpP//OEnfmdMlMcTEc5qwi9rH76PbTks8tTnpcObB7yxNZDR5ODJyqKn24Jk7wsbs1noyc5E4SioJh7eV27iLsi7IwnqXarBoGEArcbnMTDugNtYhkEHTS8964EiolTtGyrKgMvjngZ2IeKG3/EwdJKp95ZoEQQtE5eGUgD/rQdaFOpE6YXm478Fp8HyMJ7zupCUCcVJoeFxnE8WBQKjPM9+gC1Kl7kCFRm+9zxhCOHZTWfRyfz8pnOngO+VBIA8IHFCYoV+ckP5QmCskDxI6Ct5KVFa+mgDHPlWutjPew/5mExpLF9jkbluy2sY0p5SDwOPF5WDBYH8zueKyF7Aemy7VMZArCcAx1LKKfcYTyT2EyOGdKj5W1epmmcr3xFYNHYPBzDrCPETXapT9gzpBt0OdLtj/OjFMciJzIce4jnVjezMI0OgjWutj+4/U9+lwJyKrmUKdsefuKFR1IIdpxbHrtyjt82v9dPXtnSYONc3sAVOJQf+lQWXB5+VsLykitre4OOR9KF/DzmouXwj3USA+vQsUsa7H8ePjuWlQb+ebRoHJgaoBeBeFBMnznGmUZQuUEiHVAaccop+4j5mVbafrv9u2vnLm/70X7WyQLbZ/GRf8zLlSVeVbZQJ3nN/iwPbI9rP/NrO5Rkry2I8zJqXr11AlMOtAx5RQTlwOHjb1wTU5jEIR/bSPpE+Hkx+o5JScmSl8PVV9LC3/ilPaZTx36kfeQKKJdluDhj26Wt8lWp9bM+7/nfAPKOEGinF+eC44nqevQN+U1gXvar6yeVHWRlmVLeWxxspF/eeS0FuzXMPlYnD3KgdXiLVppV/6PuY26mga9U+ogjRv2fdaMO1ldWXqycaNtITyUyUBGQ5v3BIXX2CMpQryH6jIsylbi10ewABraYioGDEkzj7IKxVJQkg+U4ONBgvuqNTAFKtCM8hrhnBy7OgV9hh5EuYCFNdPaYghqUGv0+UGS0FOYTB89b8Ft09OypuMl4O1DLg8aUi1dPHiQpnfwjffing911IJ7V4HugAob6uPWRnZOrn6JI25YqMTGR+nu60THh+qYsD6RrfuIEKqUNwfGAVyvkbB+dMio1e66JhibwFitXGsqVOxBgPuLg4OGvO6hyNzHC75ThBjg9YdXM9j/LdQq+vfODUxrq6ClvSHWpMmMJ4gwjvZAVDDP0HQLlBqEM3eChGgytn+Vs/xIUs9dPLKEBj/aef6Vg5xbEgPK8+hPZT4rf5nH165XBw6lx/A/Pnjj76vMi/iJQ+fKNQh4+3pWxS1ceA6uPSFdakMfR7tpN3mi7+KxXZlNqLOCWPzyvTdEs+E/HH988tG+i87eSuWrHOvzOnj9woqvOHgpS3nUrg7iQl/n3Mogqr5UDP1/BXyzhpzMYeNa0LLg+sVenwLXOANh2UnYKYQsTEqpIxvZUfXuZK4b82G8Zhekvug/QNrMY2smRRh6H8TNLwKWt9PBQDpUFelVKKb2agd9M5GF9tovfUORYpTEhsK/dxIeB+IBB04hD+a3tpNPhVhxsXWqktU1e2QAgHfQqFubln1emLM8sBOr27gnaBi+eW/1Vq9WR7N3bZPfuDG2DHyxuSxdL87eYLR7EeWOebeE/l5fE+Q2fTcaftsnKMf7T8g6XAi6UPeZRLQjZIz/pGFq9aCHg7BEPwNXrAmWboWy8Vx5FLI9tIJAGjqXKjC5ygue2Hkuv7R/elzqNiFQ8BZDzIh3f0dF8E96unhOY34XywCjKQAgHICBUeJ6XNFrnJCKS+t+eiecHxHnUAG4QrqTNto12ukQdP/AL90ovnmyduPKJ94wD/dp8jwf/NLha+DUM9mVmJr9/R7tg+UognXRzVe+UdrfKHD9HZluANPDD4XNl2Q4X53js9KPm0aaX6Isf/BoCdymcHJDPtk9KJzuKjZ2OaHIRWSxeJlYiJwRHT8BXOACoTO784GPHoQEl1NGIK2d8HulMRCBRKtU2zg5JBAuuPK9uIGpWBD5pPHqRA4RXPqvicnnLg3YAupdMRha+gcbOVlxM8oCz4tzcbMx+CiEY7GgKuq20UtwHAh7t3n8B+qmkdBtRFQhnJcgBYczOzNBBmJtXoN+uo0McF5uk2wr5Bbleu217NeCPHa2BbaRhoNYgPrad1TIeg1wHt6ZDiHl2MVDG5as82JpIPwc4D7xaY6QfjQ2lw8enUj5Z4QMPdXbIlQ3mCytFiXoDOPk/nqmgSZ/fAaGTyC144glDG6i4SvDMuPKg/cR/3tW22+JSalgHA6tj+r6ggnSLF9Ty6gM+afCnM6CfdHsaQQc68ig1zPw3gIqbjgF/OYSfqyFoe1iPPtjAC9sKrqojos/kCZMZz+Dxh7RqUBxeHB4V8FgEg8M3zvnWn/IUaY63pWD5rX86dujw4aqGxcPLiZury4V9APFxjKSnp+l3z/hTSPsGrUVDxRAi+Wh8WFSMJMHhy87co2+g801K229eNodkH4FZ2UzaVn0BByJZHEZpVnOD4OVBsGDvlD9ol24RwengB7P5/bfEpETLPw3Ih8AiZdjlYSE3lcXME4grfWYHB+L2CrastoEBt0qVV7c/rwPbKne1Ke6eo3Pb1o2yecsWfTvcEo50T/YdMFa3uZFOB5bj3ekglglkxdViLgtObzq8mq5leWWAnPGCNOobINcEfevY8FA8tYld5dfJr4fD4WIgLTwfyDgeTdA6IX822DyOdwTHs0AbEFdRUNAsdDion1mnbXMgH+LIk+LiPImNiZXoSL5wQ5yleAPgaPAFprNNoBS4KCl0PDipRxoTYdOsrmegU0gaaEOZZushKuYjjfo/4inHsLhWz2s8YnjWXXkDntJWsv5/OLh28uWs7Cw4esV8cYt9zXbgD+1gv3NNUhWc0so/5AGt7HOejdNPTRGRDydB6/CB5Y435pBGjMTBDx/z2IM/v0cB7izvbP0oqXl8GYnH9/hvAttxyEEHT/lB6f2voJyzLfbGCIJ91txeOfvsAxbTeARQXorfy+uV8YPmtqiV5d7tXgw3IbmycPEc/Yjjrl17IOR849fNBHwD+iCBJNlgaVOnDMEaXfdnnRed5ZpCuefeu2X5yjX6cdcnn3xYPvmorx7a52Rf0eA/227FWEobg5dmQTPrHWq0gU3Quq3qw396x6APe4GHz0Ol1agjx4FFRcHgK+voQGBzqGwK8vNk0sSp+jV8fvW+iEpHabD59I/XQBzxsCyGDfBzjs7/w0MKZcL4sYFfuuAM3pbwMpNM0MpZvKUX97iqU+MLhEAVfA7wywM8ajrzgybWYvPhn458ZkI6jYnSDFAe2Ux6bKBcoAoI1Pc3gROR0aNHyV1336WrbRqnofSPb9bRwSPt5a8wt15ATtKHsqqilHz8R/4pDy2xylO0kx/L5U+l8VuYWqgcIAv/DyTx5/G4Km9NLLc1wQfQRUeQ9VpmkD8oZavaC1g3HVv+msKff/6pn2EqIysHCFwZ5oHz6dOnSR4mOtsy9kivJx6ToUN+gvJO1NU1ksNRRdIOJOB/FlFHb/as2ZKWsVMKNZ7qSTHp1d5bCFyBQA0zAn8jtfcLvfX3sOkAcuWFK08q395YY4UsY4N9JjLlguoT8tlC4Nl2iJe3XPCB8jFQGP+8QGBOUs96WS5AgxfHaBrd999/T79juXvPHrtqwgQPytzDWPKZxleRa6TNo/kYp/0LI822kw6vr3UyqIT5gwXdUUBhyjiQQ/jCdavyz3lzZUfOHimEJ07HuqTY/gqE8pfOJnGjHqINoPbIoD5WRwJX2wQvQe8BWsB33SfQZaICtxNW0svJb+n5So5D+3ZzfkG23HbbHbJ8+Sr9iC9fvlE6HX0VAXUwJ1K46soer3y2iSiL8e9kS9tN/oJbyGoD8ZPLzEu9p26iFANHsSnQn8Xjh8fnLZgvJixSihQ1cjOzEsXw7wD78e2339FPhLmvROi2rZMr0K1vw+MvNT1VVqxahTbTHnFxhZMwaiI+k0eafS9AjyPNHxCHkIaJ4SOPPoJ62Z8OHBIG9gFX2MkPLw7/nH5zeALZKwr/EJAzewEZwcBe51WN2gGCn0k6UIgHwlzKMC+dmSkoKlnsFqpEplvvmWUVyDOXj52kVzyG8BAkBw07jnntrM4CakU+a2I9PBaRvfWBVR6EfAhIrqRvy8CAYJu9PX5XLpCvLLAWprEWDlbWZ/nHTucj/vPazGc7yKzS0kDFzEGpA5Tff6oid95+l9TkN4OKCiQvjz+jY82FXWkkbvLTdp0doKX4bD4vL+5t4L0LBPYN+YbBjryWepvTXkvzWQz4H1EsoYd5VRxYh12tUw9I62YCMuKeoP2PetavXyt9+ryq32NS54mKFvkszSzCNrhn7x5/BHUSdLZWIisWL5CXXnxev/lUSAWtShr0YCRZmvEMWkiJDi6yCIpanQlN9YJtVCCeEJBLBPyncUyzDhLo8OKtk+LhIK1KAxQpMuMO8fzfqx8lSbfW45W1PALozNvi4ixZ78lYKGCWYl69BoIFdivm1HLM0Z3k0ksux4SA2/q2TvvdNNLC8QS6QVfAyUUutqUI5fnmqf0MDGI1nc4Y85B+VoL/SC8x85lXlOF3rDZv3qLbJ7avWN5SRgoc2HviYNthLCDbtv28Ms7msHyxWV1g1RXBsuXLrYFRA4X2af1l690X8Fzu1o3r5LVXX5XFy1fjKUxOOO5YaVC3jhTrJ2HylQTbdhUcvddxpnEVBfwjDUXF8kqfPjLjz9n6kXFE2+HsGoSg7Sd6cFk1FZ71ZQ2EFi1byPnnnadOLZ0QPRxOOeDKn7aQlRArcVka3Z8mkReQQ9LCZDKGP21F/qju1ZJOiqwu0YJ6dWCf+T/l0Nbq0YxsGpjfVWIjAvc5ObnCn6hUw+vpb5fsgPSQnxxjzOP0lKLSe5ub+VR2aXdUTm2cHWsUAuUIeIP85IsW4392dOn5RzhR/Qb8JF989Z3UqJ4k4SX8rJSRfAiR8pg6CPzVnQ7FSV4Th9dqS5SlC7EK2reePBC0nMcjEqj3lg4by2DBrvOyzWwvagIO/Ri0xy8WI2/Iv/AIg0nVxdKwUVNd0eYqXHm9aAvgHhfKFqOpz0M9R4NRrMPupWB840LnTmWLcuVru2s/j+Twt1ypm0AirpAj4MoNLZbouGgZ0H+gvPTKG5IQFyMRJRgvTEcNqJVZ9wkgR8HpE/e8F1SaYIH85fb6GaefJqedfrpupTqZs065pYWfOqFT+8KLL8k4TKZCdJWWPPGcPOBiL/l6tyzYDCxQJqSlpukvh3BXrkxR137qN+/W9gmCnzcensAfHxnN/72x4cCW43+0QdTRNo26hYykbWQfOJ9of4Dml4ITVSLnvcEsiIgydu3UWSdnHfzqtH7IlAQj8GOWHJQ8S8Ov8/N3UPlxV2JgJxTmZEpmDn+CKFd279olVeLjFXdebo7i4u/NFfJXLKLjJXNPpoR7bVX6IXD8Pg6FNCc3S3+eqDg/R7Iyd0lWXqjsyd4Jw7MbuOCYFSG7dxaEPxafnQUjCPr5wgB/9okfRt69Z7fiKoIycAdvmd9uJVD4aQjDJTY6FvWS8aG6ukY6uXRsiSoFyyXUi3rIo+LQCP04ZjZoCkdPUeCoBHngNz8vV3kbgjxOidHpUZ5lZIAHhegNviRSLA0b1Jf4BCgo0BgO4clD21h/hvI+S2czUZHR9lB8mP3mm/06+G6d0bBN+QX2J9OoKFgX6+d5Gv7ecSGIDivK1aD8p+BwkIBCbRHo27FtO+gBj8gUw9lwAfidh9Qo/a3FPeAnxUf5imD4Gj9XT0gP6qZSosJnWzNQL3+PkV9r53YZOKvKhj/Fxd89VcONfIzjtiRXb/Tj2ugXOiY7US47M1N2YJZGwxyOtnObm+t9RSVhupqQkbEL/Z8nYfweIyjj53OIk4ey+VabM6A8c6Y/to1A2gphFNU4cWaIoAqSChflqFTI1z1ZmbY8eEHlTOWqaWh3Vpb93V+DvjMRoAc8yMrmCo2RzIydkpudSU6gTKh+VT1rN/gKAhMSkhErsnP7dsgiv3dI6SiWzF3bZOfuTDVWu9CfuRhfOeDZbtznZGdLDH+yaPtOKcjdLQ0bN5eIqDjhO0xgNiYH/DmnDIyPPSoDoZAP0kkZ5c/EkY87d++BowyHEfSGgW6OyZyCIsnYk4Wxy3b6lFWFgMrUUeWtzUm+sV95xojpubgnj/PhiPIXJ8Ki+VYq+xO8Qd/uQF/lcDyAj+Qr+U3lyeHFyQOidTzq2IB88OcMo6LgCMHpj4kMk/h4e/Bc+4ayh4Icz+xvbn/RkJMPbtxygkU+8Jc00rdtk1r1Gkl2XqGcddbZcJqPAZ2gBWUzM7MFKgR8sD+tpfIDY8K2kSn50Gt7wD/9uDHuud3HfLt27NBfgEmqUV12QR5Yjj8Lx9/itToxC8YmQvuDCwLUX3RIMlGWfVsFfOMvL1Cv8nt11E/UtzyPye8fhoQUQfdCB4J31BmUbfKXP43Gz6zwzBzHPT+OzeHKcZef4/rTfvCdepJfHRCuymAsZ2JMZmbnaHnymzzbhrEXER0DY8Lvk0bo7ypT7shn6lD+TKT9vVToTKDi72HzA7T6PT7QreNA+yBGZSgL8qpyQN0JYPv4ax07IL8c29QTGdDpBQX8/dhC7SOKMnWHGj+A/YoDf2S/SPVHLn/5Q3dcSDNNYKj+Ni9pZH1AD11mMGbTwWPii4KB3gN9buWav2vLcbUb/chvSlJHk195GKe54LG2CXzNB62US8ok38AsgG7Zti0NdYZYfQP+hcCBVH6hPMc5xyc/Mr8LMpkNOSCTaDP5o/uUYzpT4eGRoCsfOHagjyGbqJ95KEv8MQKufCbERUn3nj2ho/hhYzozGF+gh/3IsU2by5cq2Bf8KkI27Cv7Lxv1Um/SCShEP9AWFeZAP6HdkTFx2s/8jXUdO9TJ4AN5SDtTVAidBX5lZGSBJuCFLc5E/SwcBr2WnZ0KOwV5zTP602LsF65u5YM3HC/kP/uNdPiBzp2uskFG+J3XfOhbbsGSNh3/yE8Zog2h3LOTaAP561wE51cU5OcqD3ZhLFWJj5WkpARJSExUuYyNjdN2Eyf5zN+eZsfZM31GduzYJdt3YMwW5sB5TkGdPJKyR1crlSmALOQlDdy1YH8SeKVecuOe+alneB6Xv43P36WmTFGOd+3mz0pyxwPcj4iDHjE61ouVpxnqA6hOBk6OYdoXjhfSDVdDxz2dPeoDjhnSSDvJvi8qLoDOzJTs/CKlY/cOjBnIcaEueJECjhdq3v0AX9CwIc1sT09BSNXrjvTNJm3LOrM9daO5965bzLPPPG6OPKq9Ym7UqK7pP+A7szV1k8nJ2W3effdNU7VqFU2DjjAdjjjczJ4/1+zalWb6ffGWOeuSS0yzlk1Mx/atzPJlC83XX31qWjZvbJo0bahlalSPNiNnzjUpKRvMnrRNZsfWLWb7ls1m67p1Zmdqinn3zRdNnTpxJjkp1Dxx//XmpusvNI+9+IFZl7bIXH7lOeb1V94ym9ZtMls2rjGpW9ebxo0bmDlz5pj0LcvMmtWrzFFHH2Gq10rUuk457TizcNEcszVtg0lJXW9S0zaaNLRx+465ZuTo/qZp82PN0vnLTXHuVvPQg7ebhPhwUzM51tRAeOXFXmYbymxHWYZtXtnUjcvN+WccZ+575GHTqllDc/5pJ5iNKxeYb7/pa6rERaJ8vEmKDTMDvv/KZGdnmq2b1qBdG8xZpx5n4qNDTUJcrOl4eEezas1Ck7ljgTn75KPN76OmmZ0ZO81NV/c0l17xsGnTvJGplRxhenRrbSaMGWn27Nxhdm7bbH4Z/L1JTowxVWLCNDRrVMf8OWuKSd2yBu1fZ9I3rTNpm1ea1E1LzGkndzV9v/rabNicYjI3LjQrpg03NWskmfnLlpnU9K3o602ga6PZtnG1OQztmD59usbtSl1lhg7+xrQ+7HCzc3uOmTBytDm+21HmphuuNdHhoaZ6Uoy5+KyeZtXiaSZnd7rZtHaZ2Zayzmxdv8xMGv2TSYjVMWEaN21kli1faFavWGTatmqK+HCTnBBjzjv7VJOCvkvbvM78MvB7c/opx5mVyLczbbP57JvvTefuPc3aBVPMkfXC4IpDvrr2MKOmTDfLFi8yZ11wqanfsJZp0aoBaGprZi+YbdYBz7o1i0z61rVmO3iUjn7avGm1ef65J01ClSilhaFnz6PNwsVzzOo1S8FryP3OFJOO/JSJ2XOmms5HHm7iq0Sa6NhQc8H5Z5od21NMyuY15s+ZU0zThnVMlahQkxQl5ozju5slixablLQ15qOP3zSXXHihueW6q00CfJwGNeIwVvqZdz5810RFhZh6tcLMQ/ffBVnfahYtmGFaNqtjdu7KQJ0bILurzEvP3GOuufUmk7J9q2nZrqW5+oarMU4aKL2xsKG//TrIZG3fbmZOHWy6HXeCWb85zaSnrDY//Pid6Xh0J4wR277rrr0c9G4x69etMO++86qJjws3VeIjNe2www8361atBE/nmtqJVcx5F18CbynUXHr5BXY8pG/SQF6kb99stu1g2GQ2bl5lGjSog/Ez16RtA09R7+aUtaA/VXm4Bv1+8SXnmq7dOms9DepUM+MnjDTzV8w1q5bNw/h52tRrUNNExoQY+Bim75cfQZ5STMbOVLNjG8Y85Q9X6p27br/RJMZFmNhIMQO++cS0gvyPmjTZlGSmoN9nm7PPOt00a1zfNKpX05x20rFmLWQqC3SsX7nIXHL+6aZW1Vj0j5jayXFm3MihZu3CSeaoFlWVLomva74fNt7ccsX5ps/j95lt61aZd/v0NtdffbXp1PlIzVMftPd+5gmzM32L2bJhlRnzx1CV1drVE02tagmmTYtGpt83X5iUNSvMuT26a5mQunHmqQ9eNJtXLjVXnHiSqVclzjSqmWwa1all7rrzdm3jnvS15rzTepinez1uoqIjzblnnGK++uQdc+sNV5rN61aqDuvz4rMq5xHw3erVrWpuu/VijKetJi8rw/w86DvTvcsR0EdVoDeTzNVXX2G2YIxvWr9Sdcq2zRugQ7aa2ZNHmK5HdzRPPPGkqQWao4Dr1usuMPMWLMK4Wm8+efcVc/+9d4Pf4D2e10JfNW/exGRkZpgd0BVz58wwZ515qmlUv6aplhRrju/RzYwb9bvJ2pNitkKfvNz7BdOwXjVt983XX2Uuu/hc895br6p+XL9mibnt5qtN1YRIU6dGFVMbYcjg/mbV8vlm8/p1GAO1zKsvvQC9FcX5EfBAB/052axfvQTlN2Lcoh3UyZCHDIzhob8MMPXq1zZRESGmalyY+RL82rJ5rUnbusmMG/6bqV0rWelITqhizjzvfJO2O9UM+ekzUydOTHREtGnX4zyzbMMa881n75j6yTEmBj5cJOrtcHgbs2jhXJMBWX7zxcfM9bfdDj3bwJx2QjczZ8Yk8IU2cCP09TrorHmQwdrm0QcfNa1bNTN16ySZc0880ixftcLk7tlmfvn+M3PvnbeYlm3amBYtmpqhP35jJo4cYnoe0xk0R+un/I/p1MFsXLfcpKYsMW3b1DeDfhgIHQ15T1ljMnZsMYe1aQ8eLTe70+eYDu2PMDNnzDcb1ywArx8z3Y/pZKIwZqJhX886/QSzdWOK2bh+EfrwNvPwQw+Zs087ySSgXXWSo82YcSPMrXdcb+KhL5rXiDJvvPE6xinGxqolZsmCmaZHz64mLjrcxADXOWeeaFYtXWxydm00U8YMMTWr1Ubc2aYmZAuOobnskgtNyur5ZsHk7zCm4kxEdJyJqlrTLF6+zPwJHdn+sCYmAeOZ/L8cMrBo3iyzbavtO4Z06JE1qHfETwPN4w/fa4446nDNOwzP61YvNcd1P8okxUMOIJ+XXHC2WbrwT/BoBeicY3o98ZA5DH4Dx8KZJ3Y1t910tenz+usme1eKefzBO8xNN14LG7zFLFv0p+nZ7UjIanXoi1BzVIcjEb/VXHP1xbrRExsXb666/DLweoWpXyvSPHb/DaZti7rm5GOPgR1NNVdffiHGdYLaziqwSZTnzetXQc7XmskTRpkO0MPtWjc1x8LmvfTcU+ZYjKs86JrcrJ3m8y8+MvVrVzNJiXGw45HmpuvONTt37gHeXWbEkB9Mz67tTbXEWNAVYi467wzQCt2Zst5k7d6m/KGtzEhdazauXW5uuvkm0wj6lbyoXyvJDBrYD/YL4yF1jenR43hzyeVXmpawBe0b1zOdD29n5q1cb7alW1+EdnsX+L7D43tFwbeyR78QviQ8UwYeutQVA3jZ/Omr4SOG68/AzPlzhv68TZ8+fWQnPMxMeMKffPqJ9Hm5j/wxcpjMnz9fGjZqJD8P+UVnnHx9e9KUGXLb7bdLv37fwZstlI8/+lAefuRB+QjXiRNGybnnnC9f9xus30DjDI+LwyFhXEUpkTmzZsurr7wh773zvgwbPkwiw0Pk50E/Y5YfITFRUer95mOWziV6fo+KHr0u4WLGwd/iverKa+WIIzrJwB9/kPmLZkqzps30Z9D4Fh497cAyNmYzfC4OKYaXHSIfffCB9PthgHz51dco+6P+bunHn3yiMxHOSJiXMyQNmJHkY9bSr/+P8tY7b8urr/aR5cuWyAMPPiiff/6FjBw5Svr/0E9eeaWP/uYu36S8+ZZbMLvLlOF//C6/j/hFEpMi5eVX3sMMMxKeeyYYz486F+oKwcw/Z0vv3i/Kb78OldNPP0Xuved+Sd2aJmvWrJK7775LPvzgQxk+fISGww9vL999+y34ABQIbmmbK1I33niTvPfBR7oFGo3Z0HqU5318UnVkdfMCtAuzCv4EzZaUNF214feW3MpeRuYu2Zq6UaZMmy11a9eVCRMmyEcffijTp05G3//J0vq1eWLjB6QbNW4q777zrtSvXV++/OILzM5y5UHwhT8TNGnSZBkCOalerZo8/vhjOtvhz01xNjd85O8y7Jeh0uupp6TPSy/qD/A///wL0qJhkvR+sbckV02Wa666FjITj375TF7s/bwc2fFw4HlKV8W4AsYJmm6RALambFW+fP7ZZzJ50miZOWOipk2aOFH7Ax2q/OJsi/Xzp3P4U3nff/+9/DjwR1m1epV88cXnOlvkz4Pxd1zZ9uHDh0puXo688fZ7wh2QbMjBmNHj9Kfahv76g/6u7r3334/ZcKrMmT1HPvv4ff1pn5Ur1+gPcGdgFqdfYYe+5E9gFWRhFksxBgcLMEPduHkLxskHMnncMP0ZpQE/DJL8LP7qC39NIUTq1qspGdu360+oHXl0F/1Jqd9+6ac/azZ2zFjUs0J/g/jHAQNB1ygZPXa0JFWtJt9DHvnbopwZhoVHypixE6T3871VthkseFJBWQJwRqqfDpEw3GN8Qi64msR+48H8gQMH6gdpe/XqJVOnjdXjCJdfdqVExETqjHoQ+PjpZ5/rtsrAAf3kySefko2bNupYYl/o6hDwfvX11+DVbOiLfjIS42PmjOmycvUGKSgKkWzMoPkzfJSHfmjD559/Lt27d5NLL7tMf1Jq6G+/6UycP8X4+x9/6A/rf/zRR5JQJVGeg/zEx0fJx8DP39bNxUyZq6ElmF1nYfY9dMhQOfPsc2TmrBmq68hDrjBw5f+pp3phXL8KWftYf4P5zDPPsvoIOojxDasl6s85XXTRxfLSiy+hnnjlxy9DhsjTzz4ro8aO0xXivNxM2bx5vazduF5GjhqNMf+KrlZlI40r9X/OXSAvvfyW/PDd1zIWuvGpZ56SKdMnQc5GYuwUyGuvviI9e/bQ33Ilf/gTbctXLJdI/swSxzt1GnRfVESYbNiwUdZv2KI/JThq1E+ycME8+XHQEKmKsbN1yyaM71T9gXYCVxDX6U+WpUgB6OFvwXLsfvllX4zRIfpTYp999in6p1CWLV8mP0AOX3/tNRk/Zqh0PrKzDPttmPDnH7mqQrpoB/r37y/f456/7cqfsMrLLdCVR37wmWNn2LBhkIXfpAPG7RNPPq4rh6qrEJwMrly+VG699VZ56OFH9be2f4B8vwqezYBdILz5+mty5913ytRJY/TnBbel75Dvvxsgh3foKNdA351y8onS952XJG3dYnmm90vyzkefy8jRI9G3w6Q6ZXbQIJXxcPBt1JgJ8jLs2v333aM6yZ07p2rgj+BzFS1zT670eeVV6dv3C2nSoJ58+11/tCdctm7eKL8O+VUeefRJ+fTTz6Vj+3byCexbx44d5JNPPoIc/6a/zfv2W++BT3Hy6COPQQ98rr8IUVC0Uwb/8rXUrFUP9UVLWEmIrvxyLXLxokUYKwPk3vvu1fPK48f/IcvB/0ULl+lWPc9A/wy5PfusM2XhvCly5BEd5aqrr9Of+xv2629yw9WXyXvvvqur+WzPffffK0d06iwTJ06S0WN+h/6oJs/0ek1fvIqBJ1kA5dPxiM7y4w99ZejAz+WXn36RuSvzJLZma7nu2ivQhpYy5tfvpVZckTzy8ANy8jkXSr/BQ2Tu7KmSmpoGWzdSV+YcUHVEwR6kQI99Dj196ZWXy7Txo6VJ48b6e/e0zRxHY8b+IQ0a1Jeffv4JOsV+GueXn3+We+69R2bOnKy/AT0c+bakbpMC2JA8jEuumPNn8z6DTuFPYX6Ecf7HHyPlcPD+hRd6y4sv9JHjjz1Obr7xFq2LO10Uq1WrV0MnfqxyyTJcEabO+eabb9VG8KfzduzYrqt9n376qRx//PHyAfwB/o77mHFjdaeAq/bzMFYfQn/fBxrHjBmN8f49xu9s6fvVQNWpX3zxoRx1VCfFN2bsGF01nDdvru4+8Aw+ZatatWRtT98vv5Rdu/fI199+J9Mx3u+66y7VK1yRj4wOk8XLlklMFf5E3Wfy1WdfSBr48CVkj6uMuq1LafFW+SqDgLPnTu1wz9nuDpfo8iKX7COhOE48/jgYrnPRIQ3kgQceUGW2afMmXaLkjzqfeOKJqMfI9GnTVXA2b9xsP6MC5VCrbgO5+5575bA2bdDQOPkdAnFE506Sk58n8xcsEMxSJCV9u81PgkF9YRG3iu0PY595xjnSrWsPadO6pTzx6EPS/rCWMKzhqvxiojF9AfOj9IPBEapsMvfkqBKbM2u6rF6zAUbwSP19yDmzZ+mWHpXMRihCbiXoFiLqCTFhqJYtNxIVGfb/2PsLOK/Kbf8DX9M9Q3d3g4BI2IXdgYGKiZ2A3V3H7u7WY7eIgYqAhNLNEENP9/w/7/V898yAeM6599z7/5//63fXsNn7u/eT61n5pH0/6Vs76ZQxtt/+B9mQoUPtsCOOsuE776oGuEv1FGKI5OhjIEFlFiFdcc0N1l9CpkmzRiLMj2zX3XazFDXsjN9meDcuB7e/+sorfnbrIhHcGTL4unXpal07dbCnn3hMTLaTpSRmWVZ6puIluSJNikvwg8wPOGB/a9+Ww5JHiziLbc4f86yNmGPq1F+sp/C6Nm+t/frrr37Uz6aNG1zoRwKTEjLPa8iOQyT8l9uShUu8y/6Vv39mZ5051lI5y1B1qDUMwYd+V4npwrY3zIFRm6htKmtKheca69yhrZ179vnWqmVL22fkSBlpQ2zTurXeVc+wpR8Zp7SYx9NPOElMTrRe3XvYZjkIv82c6WWfPHmyH/bduXNnmyijq7hUaUtpodBefPZxe0ZC++STTrTePbt7dzxOBNs6DJRAYwbMogXz7JLLxlnP3n1t//0PsHPPOtN+mPyTzV+wSLhjtRR1wuiMs6bNGttPP/9oXbp2klBaZZO++1YG82qb+/scS1WeWO0Y7ShKhvU+l9C46447beiQnWzI4B1dYHbt2tVWrZYylJC98MILrW37dtane0+7csKV9uIrr1t+ebEvethl1z1EswfZbrsOtzPPGCNmTbXTx54jA6WNjRi6o5+nCsZREpnih9JSCUfwLuemqrxIro6MKWhM7XfciaNtkITz4IE72CGHHuJnQUITCcqJ4fj8UpOCW2sbN2228y64yHYctKPtPGKEnIPrrGPnDn4m9RTRfacuHW2elMTKFbmWn18koV5pJazuloFx7NEcuj/Amkv5JckpQHgwS9K3TKH5wSMCXFdSvOhSf+CLMJKgVlkuY0mOyxMyOB97+BHr06uXdZeyOfvMc6xpo6Y2deZ0qygrs01q+ym/ThcvLvezkSd+/bXoqKMPbeC0cVXIiP1UTsvl4yfY8KHDrFePnnbtNddKdnS10soay1uda7/8/Iv17tPfZs3+3R3Rli1byXBZZb/PmWfpGVm2RDQ++acpVlxSZvvut7/dL2coXgZG29bt/Eg4jMNOnTtZXFKKNWzQ1Jo0aCBlX237jdxXTum51rFTFzvmmKNt5qyZbuyxSpYzSzt0aO+CmuG0WbNniYcXgQE/d5PNd1u0aOEO0IMPP2R3yhDCCGbI9wfJxPXif+i7pkrKvaJEbXmQde/Vw1q0bC45y7mpOXKS0mX8/Gj7jjxSym0f69e7nx19xNEyZsbaddfd6ENKKJo5c+eprnN82BNjDAeW6Qu+nZLIxk//cbmdbGefe74UdB8bNGCA+PUsGfvfSj5ulvyqDHM3RYnuXCteVVmVDOAKqygptK+//sYGDhzsw9O/Tf9NSmuI+PUnmyfnAUN8v5EHqJz7KsxAO/644+z4E46XMiuSTK2uPcOcVc5sKcOZxLmrVkiWf+9GPWeEn3Xm2TIgu1v37p3tlDGjRZMFPsSLe+Er7Zmnq+uXn36y7l27WXO18bz5c0VnW2xXGbtvvf22BBvTAKplDPxsv6s9kA1vvfW2HXvMCdYgp5k+J1h2epK1b5Fjvbp1lRE/xc9ZXiQemiG940O/Uui+B6Zw13/QEBux8842bKehvjUPw9PIedLBUGC3hjFjTrf9DxgpWb2DjbvkQnvwkUedBpny1Ee8tssee1iPXr3lsG+w2TN+80P+OQ919Zpc6YOd/UzXLZsLrVevfrZ48VJbMH+B6lxmn3/xkdp8pGghSQ4+xh7DseYy+x3VlTNcV65cKbqeLN2bbfPmLZKsZH5fsh159Cgbdcyxli4Ze+H551iHjh1tlBzhfn362smjjpJTKaNeThQGzAK138Add7RFSxb7an7Og546dZacznznv/zCUhtz+unWr293G7Zjf9tlxK6Wu7bEMhu0EM+2snTOdu7RyVYsmO06tV2XbrZ4xUqnkf3339/ukvGNw1wfOBaRTosOHTtInp1gQ4fuZAUybKZNnebnbs8VLRO/j8qLI8VUi0/lqO29zz5yno6UrmhrJ0kO9u83wLIbNPJOHpyZoPsxO6q9PXF8gGuuucquliPJmfmtZHu0FE92U/uzZy/8g97dcfBOooWmNkq0i5OrRnB7hnN6mXbA9Kv1whfpjh07Vjq2l+0vWXLkkUco/wTxWIkcFhnXg3ax0accL+exjXdUjB93uZzK28TjOMZxclZkmIs20f/33HOvH8HH1BVJ1oAnVYApAzin/QcMVDtssT/mzLV2bVr5VKy8tZIxcRW2WXR/hNq4m3hhoPBEx8fS3DzZV+IZXd5Jh97Wf67Ht3MxM7wW3M6KGXoAS5SrJThwx9hnqz5wePS8efOcGO++527vAWE8OyM9wxIUtnOP3j53IzuFY1iYT1Njq1evNFZCnXPehfKivpRXnGxd2raySuZ9ZHdTgZA4KryyR0GWyqhZuzZXzN7DMtKylWuxyldjffv0s1IhiYn5Rfn5jjDyYpybOV0JYhjf6VoNUlQoT+zWOyR4mcPFHAHzXggQTY8CVfU5qUrdv8dJ2ZcVW66MpuPOuFi8LgzyMQZ4HIhHAKMm/M9KUYWTQqEO1LFUnvJXX31j302a5IokS8YbynlwCnujbXYjp02btp4OTNamTRs78+wdLHHLRiVZaUnyDKrljsmu8knfLESgfcQ16FwRQqUIY4P3iE2f/oeURUMZEZmuiNjJ3usm8IbmLgHKHIehw4fbtF9/ss4pne3dnxba9zffZyky4AijUCDBlTtzJePi2cE9Xp5m6M2JE4PFJbEquFrtkWU5OU1szdpliod3AeEy6ZnTA1RM5l6JvKI9n/gGslHmbGRNbxNA7zA9geQD5VUpTzy8gV3b2Beziu2uY4+xJOGDeUphbiUUkKg2Upn1PjM725JS4m2LhFWrZk1Ux4ZSYlIYQhLMhvKBATJkYJ8i4x0DE6XQsGFDn6NBezrzKd3oGW+b5qRe4BIYJsMD5c8h7pQ1AkqNos7MaWwbpUSx0UTwliYB5+0oAZOQlBjoiH/Mh1L9mQgdtt5hjlulJaRRXrVtWYmX3y8lFef5o3C4RFvyvNMT05lI5D2C6KNq0TwZY36lpaVaceEWXzWLMQA90JP61VfySFW/Xr2H2Dp5hSj6Chn5ZWqveI4wxJZTW9UKC90rSVx5Y/hTdub3wHMoYoAw0BnzTjDy64PzlxTkwIED/LDvkSecbuefe549+vKLbmSXyTA45+yxdtqpp3kvHfVjHiFt4MfbCcekT89ygmgrSYZxWVW8rZVAXr50qT3x1FOigmrbuG6NvPs0X1G7QQr2yKOOtN9+m+69WTffcqf4qpmde865dtFZY+SEllpRQZHPoUpWusyvys8vtELRQRLVUp60E/ztVKv/UCTUjx69F+T5Y/yxTQo026xpM5VRcYQDyo0iqVSdP/jwIxt7/EmWnJ1pLdq2tvjUTJeJHBTfJI35VlLk0KbyAnwxheROhQzBBfOW2/4HHW9lSSXysSRL9Uc9iwpKZQBUS5Fdbc8++4Jdc/XV2NvWQ47eC889K55UyGrOfKVnXk6DaIJej0aNmsmgZ77cFimKTlJCX3nPNb31YXNjLjgv8GmF4peVhV7Ga667XvJHDnUae/+lysjI8rlrS5YskRHV2cPD0+4aqC7IPebB0fY//vCDDK+3HC8cXL9u3YZa+mFOZ5IMbR9RwZtwzg+Ot9NfDC/gdeXyJd6rfvEll/pZrVUF60XqiTZ4t70tXjJy3KWX2d1PPmxXXnWV6h1nXfoOtJtuvsmG9usmxxm5zMapzKOttnvvvcl7IOmowEBfsTLXNsvoYB5c0RYZwAlh/0YUJ3JGT96++ie5UCkcUj7J5VA84YZ5vPHek4zBjnxWjvoimpAuWrp0nfc8gwPoec3aPGvcpKmM4lJr0by1nOCeNv23X61Lj31t+tQ/7PwLdvG2gt6950c0unTJUrvk4outUnKROWGZWUky1tF5zL0L84gZyUCWJKsMdNDg2PiRpCpNkoneVLBClZE5h+s3bLYrrrzCqkry5WjKWBLNJMbneJ0zRKcNcppacnKa0isW2mIyVHj3dqlKsNTEFPFivM/5XJG7wW6+7VZLEYKS5cAgL8JxoDBTaL8g9+JUNvKR0QzihKdKySZ4+8EHH3K+YW4oMr1V69ZOn7/IQW3frj2hVZZ4169wZaXkJnErpQ+S5bgxx+200053Z+Geu++V4b3ROnXqapdddokNl6G6dvV6a91ii9IsE/6Yj8nCS13Ks2HDHDmfU+WsHO/0ni5nKzMjw3UAbQZ9InMDBP4YPnyETZ70lZXLRpgza56N3PsIS8qS3VGgckrmN5PDVyLnN2/derv4oovsiSeesptuvFG0U2o95QQz6tGjew/pTuFc7YXNwkgaMulBOcpxlWUmU0FUVGlxyRk2f+E86yS+hTDilT4OZKDLRKsQT4ZOHUoWcXCgw0i21IeoJrSME4cHEQETgR4h9v7hDhIyMhv5FgUggm0Y2Pbh088+tfvuu8++nTjRpk2bZj/9/JN7kmvWrrMNmzb7hSVeLSGSkZFtK1eskrW61t54/U374bsf7eMPP7ZDjjhMRCthKQMt9AiJMOJSpDBTZZU3k3BZ7D0RiQkyCmQxr1+z3ioURqRoiclMmM1TmdF6+qc0IMxEIYOVra1btrSJ33xr3377nXuWn336mV944Si1CKKj0mok3EqlcPE+Fy9e4pM+QWSLFs198i5eKswNQIQwGczGqrpoKT0KGeN4/ITxtmDBAps2fbr98svPPgzxwAMPejwm2W7cuMEXrGRIiM6Y9pu8xrNs2crl7oEkqmGLi5lcnmhZWam+QKFYyio3d6UTIQwxSfWZJ2/mjddf1/Mku/eee+z440/widmqijd/PO3Ks3DTQPnccNU4e+j+e+zrH6dYyy59LCcrWziVcSPhEo64QtCpblIeCAB2kkfwlMrTSRAT1KgdqqV0wka0UpoyAINyhMLAHySF4SGAQdWeQo7wkShFUC5Bm+FC6/e5822y8EGv8CQZxF9/9bXlZEjYlkmIrFprn01dawcNaWUPibaS0xtaWXWSLgmLijgr3VRg6eBQTF9SvMXS4tMkgFJ9EjKLVdiYOtSfdhVN6xkcicttitphmdp10jcTvWcBD9oFGeUFYwrLsC6Ci8UijZu29CGuV1971Yd2G6r9qRfOSLrqkqqrQnjZvHaJC0J6UzCk0tMylR/9qfSEyeCrUjtIGVVVSdEmqg6iJTWuT1ZOSUn0XgTwylCIF0YXHh+9wChRlAX0hUJD4FXVsAikSm3KIqZk712gvTesX29Nmze3n36cbF/IMH36yads8cJF9vFHH3kvwisvvWy77byrlZXgFKWIjlR/ZQffUAZ4m/bmvi0gvJlMTg8SgpnFLuuVH1eZ6DlHuJkrB7Bd+25qGwk88Xne2tWisRy1g9lhhx5mX37xpfdAT5s21XvLFi9epG8SemobcE4eaTJSaBNkjSSQLyLB22ayOg5LcUmNffLBR94bMG3adPv0k099qKRX717eY48n/oOMjS1b1tnRRx1tE668zr774TsZPzLyc7KtZMsma9NUzqHyxbjh0Pg44SJBijyB0wRUVldU/IkeFi1abK+9+qo99fRT9uPkH+377793A7pYdAHyaG/KW7Bhky1bsMiHAjFGly1fbh99/LHddNNNPqGb9q5yY4DeG7VlzDALe15KwKsd27ZsYbNnTrP1RZVWIuUUX10hHC22IUMGuyHfVAbmk089LSNhhr33/gcS6gl2x533eC8VSkolQdt7zwOLPOjdhB9YPLB44WJ3yHG4FNFpj4VyyHa+J2WkW+6qXB9Obdqkmb3z1pveawaPTvnlV/v440+tY4eOXo68dXly3ler3vGeN22NAkNuoNhGn3SSO1bohK+//toWLpxvu+8RzpllsQkb2FNnylFL8I7zGO5BvC6mMhxxxBE2c8YM0c1U+3XqNFsk/n3mmafFH8XWvn07N6imK5+33nxDBkuq/e3uexyvLD5pp+8s3kLffPP1N96z9smnn9jzzz9vBx10sBudqanpYeqJRBeyAroInQFBFlJGyipx4/UsZ0GEaBW50KhxIzeIaF+mjmAIQewsuGnVPMM+UfuDB4wXpvB8Ij5s0ay56DjdrrvhMr2fbG+9NtF26Lu3de3ewRJTy8Tf8AOT+OOF+4kygNrYD9//YFOmTLF33nnH+vTtrTZLl6wrdXlHB0umcJ+V3VA808AasCpaxRZ5id5YFFNlTWVwN2nUxNq2aWFffvm5zZw50+bOmad2nSb5+621Vh4sAEJmIRfQh+h9jrBny6IEekQEyJgaGX2VlYnWvUsH++WHyfaTeI3eXGQM7c3oGe1HG4A+X1ntvFTXrugVetnhKYZr4V9G8RgK79ypk3Xo0MGNwaYtWjpN0ROIgckCjIjOWdQCrpFD8ON34ss//pgtXhlkp555tgy1Gmskp55FKVUyorLkfLVu3zjgRQ0K7V522WUuLz7/7HN7++237ZFHHrXmah8WRrAjBrQDMCWNa72MuALxDWTbs2tnm/bLD1ZYk6Q2E03rXVlhlXREmgzReDmFLey22+5yXNNjSIcOw8TwSwDJcfECxmum5PwzTz9js2fNdJ6bNWOW9ONPdujBh/j0h7TkLEuUDkySfQGh4vBUJqidJHfQR7APWixoMq4/Q52xF4EQQVA3EGJXuZjXDbpvv/AVbnjNKINhw4Z5Vz3zX9gagUoxvwPiRhGBHGFahFFiBcXynooLPXGWkzPciFE18btv7eFHH5PyK3AhEqDaCoq2qCJVtvMuI2QQfipG/VENlGB///v7brgVyztmXkM7IXDSt9/4MAFpnn32WNuwMU9xq61L524y1tbb7bfdbLkrV8izyXNi3HfffX1ukddViArKPslSk1EyFSKeQtt1tz3soYce9uHFdDXECy+8aB9+9Km8hk7Wql1bX8HESlgMRlfEeNY8i0gyZMAxr4Z5jd+LSdkMFjydddZYe+Xllz3s7nvsLgPiNZ8/gOd6/wP3y0BeY6liYiWk9OOFn3CUzcsvP2OL5eHRi0XdhwzZ0XbYob8b27AkwhkCwvB78cUXPS83XEElROCX0pOR1aFJlgyEFLv1xU9s392GSPA0UvvAihg6MKNLYK8f8xBy5f0uWrTUrpWXn56eqvecrSuhloz3aMJNhq+UTE4Rgaemea+ZC01l6mmqfPSyrlmTa6tzc61v377eG3HicceKMf/w4VyUyXXXXScvZoE1b9vWTpGiuPHKq+zSKy63SRO/kTD5ztJkVGU1bmLlCGF5Qo0bN7AOHZvbjTdc5StNS3SNn3C5lGEjCYq2EsxsSeJV8bIgYHwVmf4Y5oJOly1d5nWOIKIFtsDoI4eFOWGFBRtd2TMPid7skfuN9Dh/Ez8sWbrUr7vuvsuOO+V03/CX80URsSmpuose6NVjZTeswIpUjDWM/QY5WfLum7uh8/VXn8vrjXel+N1Pv+odK9wrrUx10GsJKpQPvXbpMizk1Zq8aEkb0kM+N20p4aQ8Xn31Jcf/dAkW5lyhzOFDlHIbCXN6z76V8pghHqiU0UYblskoc4dAZYZiMKroDfQ9zmjgGH705N9Z4Uj9QWl2VpYEWmMXvs2aNVXb9rH7779fBt1HUqKJcgQ/sRm//Wb77bu/DM3FdsIJJ/gQOvM2MShJB+ciNA9GF6vkE23E8OGeDvO+WA3/hoyO9evzhK9G1rBZMxsxYqDddMuNkjM/Og9Ap2efc47zIT2YN954k+qQ78Ne8ErfXl18CJ1Tc1LSki05QcZqaaWt37DRhaWfky2ew8nyaSSu5FVb4YA73jRYoIeK6+NPPrZ7ZFCw6wDgikx1SMbpQ1ErzjI5ZQz3s1r4tddfFW+v9jIxb49VubQXPbnUnd4ZVnmy+v2QQ/a2x5+4S3z+m5RhkhzEb31Iq3OXzm78n3rqGDkddwuPa1SWxtanTx/LkHyhbXxkBHngsok9wdbaw1JeGCMYJ489/rgddtgBLndbtm4lg3G6DxVhPH0nOUXveatWLayJDMouUmRPShEjq3Mkdx5//DG75OJL3Khnvu3kH39wpQS9Y0DhGDcWfzJqcsLxx9ubb77pxgn4opePea7sOABOcRhSFA+DKuK5v4JRo0b53Mcvv/zSjVfmSJLWzTfd7A7zqaeeak/JsKanvmfPHtZa5c+RUmd+HVN5lojHKTN5QcTMm4K+//73vzvdlFdgXIUhbRxXZLMrPUFUtugSqYrHXpYRv8z3fLzzrrttrz32sAYNctzxpF6stIWGMHzpPXxQzj0jYPPmzrOpcnKY/oHuZG564ybZkn1f2ZOPvWrDdtpbzojyT8ThAR/CjS7KvkE699tvJ9riRYt87uOUX36xlbkrVB4MKjmamze6UbK5YEtYpc0OCypLufIoljGRnomxn29t27a25i1a2M0332rMPWQnhnf+/pIcopOEnyqrqGIXhXLRi+SBaJ4S0PuUxLoukZbvXyqaLRBPDpPDiMH0zttv+jQS6Iv5qaeccoqnBcPAOwB3N/j4Hbuz3RD6HkN9tWiZqUgYjOw3uUJ8e7hojF7YN159xXn88y++kBxeJMM2zTIld1IVl84DZDWdHC++9KIPlZJ2q1Ytbeehg5w/wCSjAvQ4Oh3IsaLc9IoiXwE6cBrLaKcOr7/xuutS9CUG2KBBg2U/3O7tN18XjkRZWbXK3sD2238v++zzt2Swvuc2zu9/TJfjdZeNOv4Id+jHjZsgY3K87/zAaNXQnYb6lBPKB0D28ZID2Asjdh6hut/g5aezYeGiBXbQIQfZOjnxGMbotYwM6V/XL4qn9kiOD72/9EpiB/wzqBeC1gQ19ObxmjlP+NXxYoJUGXbD7corrlCh2/vEWyzpJmLuo48+2udtnHbaaXbAAQe4kjlu1DEy3lhOTdd4ojVulONDXSi/Jk2b2I6Dd7Rrrr7KdlEFr73mGjvskIOtUMKcblbm3YnkpYBUFtHMwP472IQJ48Qk51lzeb0smth9992ULsomx46V584Q4i4jhtuhSueAAw+wZBFqqby+hlJEH3zwd/tRguzoI4+2Iw47wh5/7DE788wz3OMDST5cpD+GmrNyGirPUimGVnbCSafYmDGn+OKARlLiN998s67r7aADD7LNGza40IKiS0vkEcvQyVBZsplnJ0ZHKI/YdXc775yz7cQTjhMhNbMDZaG3a9feTjpptBsn4ydMsMZKd/fddrNdVR96Aa4Yf4mPzdNTWEXvohR3cka27TSwrwjnMhs0eLD9/NNUO2vsmUqrtQ+hM0dw0JCdXegz8Z85GBzk7Ya26oYyq9GdWQLkm5OWaDsO3MEW526x045XXfJkALl1JpwTVrVKEEEhQN9/7x0b0K+/nXfexT70Tl3TxABlEiC+9YSUAx6xKFTCtdSKSypcAEdKMmJymIZ5T8yDQimMHzfOje6jjjrKF0FgoELsnTp1titksPXt09sOOWAvy27S2ofPjj32KFu6bLEMpyTLyM6ygYN3cK/6xZde9nmC9Hr0H9BPjsN3UpSPqf7JboBGBiyCftdddrGWEnR7SDi3aNnS82QeDMPp3osF5wlCD1q8Ozf0qNADzJAo24qMGzdecTrYZZde6ori4INEb7oWyhgcqzah14/l+clS0nh6GBCNZQRhFCBwEIIJCVmikSR5dGU+nHTrrbfYLTfeYD26dJNB+aqN2G1n9xBTFDdbHjvzWMFdseghMyvdGslYj0+R15+c6QZkYVGB5UjRjReP/PD9JOvWvbuNOu543xOPOTTgGEWIk9JCguaxxx6SsV7jWz8g3DOzUlWmal0YoQluLI3cd6T3WqHgMCIAodH5BGNwhwH9fX5NO+GiY8cudtFFF/l3Nj7GuEIBM2/oZRk54y+/3Lp26Gx9+vezfWQon3HG6bbvPnu7rNh7r73cKaLH0vlQNEiebBYNPY8ePVpOzQ42d94CaydPf87vM52m77n3b3LWltlhhx9mbeV4vf32O7bfyP28rTFE2Oph5MiRKucOdpOMgksuudSaqe4JKRlyNHrZAfvvYx9JLnTu3MlKK0pkFJRaBcOV6cmi13BeNz3CKCS2kgKXlHfE8BHWtUtXu+7aa934giYw6ErEB02bN7Nbrr/B3n/nXTtx9Il2y223+qKGfVWOjZIXOVJQZTJW0iQrunbq4gY/so45V5VSQAzRMqexpwzTJx6912686hqfI3ja6WfYYYcebVdfc7mUVKWde+559pUMnwP3H2m7jhhqM3+bZhecO9aayKhCJPnyQ6WNOMc5YRpC9+5drN8OO9vQnXexk0883hrLIDv4kEOtaeOGkpsjlP7hUmbzfW5VZ+W5uahMBvONtnTpEp+LjfH35luv2/EnHCsjLc359JJLL/AJ5Nk5zb2HljnF0MZCOWwHH3ywy7Xr5cAlJ2WpPc+zwZL52TmZ4o1E8e4WXfkxx4itLdjGQ7wtfDImANXBjhhNPXr39aGvCS7/BtmAHQa6c3u2HGccgwlXXuG91c2bt7BOnTvL8Fhjl15ykdJOtsOPPMa+nfSDDOiDrW+/vs7L6IeRcvZZcIgCpreIHCuqRf9ystx5F68GeqQQyAakJ3rQrHefbnbEEYfbyaeMsZVrN9jYM08VtcjATs/28qdIL/kIWWKyXX7V1T4h/5BDDvH5jcccc4KdI6cEp4YrLTXd5VHu6mW29z67W3lJoUiv2uYvXm6t5MAxr3q33fdwh5oRm6HSwd9O/N723Gtv+/mXH0SL3S1DDmCmjADSE2IsLTvHcho19PLT25iQJJ3mnMsUgxrnh9kzZjpfdenaxe688za76qoJaoY4GXFFMjzYRoltYtjKqUa0HeZoYyzhpP/xxyzbbbfdrUA0Ah8+/PADts8+e+raW0b/Z75ICYkBLwb01fjoxBYZ2b4tmHQHnTQspnz44YctV4YdPbeZ2Y3tJUYddt3N54FjLCNH7rj9Du9he+DRx6UjdpVVUiX5lyb5l+r0wygR/M28+H322cd23HFHGcbfem86+rlnz272yCMP2Mknnyx7pEjyWU5uUorqlGANGje1008/3a6SLdJb8uZg6Wj20KNzBnwysnD66af5XD7acPz48XaybAJGAzKyG1jr9i3l9N9qTzzwmHRWX9tHMog5muefc6ZPgTv66FE+VQC50VRO6hsyJNFzzO8NDgQllAMq/NwsO6OtHJVeclig00MPP8KdpqZN2ksvJ1vHTm2Es2KfZpZfXGBiI2vbUDqOdCQ/me4T5DVpbh9qz8alJ8/PH9WdKPxmvhHW73kS5gOH7mT7iqFZAYPyaCyrmTMrsbrx0unxY4UKVmiHDh1t9u+/2/ChQ6xo/QqbkVtouwweYHmrl0sgMfm02q15PKwObVpZg4w0+23ZZhvSs70zS1m5LO9KBmkZMxcTinHnLV5q6zevt0Htm9uNt99tpf33thtO2t+yJQDz1ubbshUrpXzaOGMsWr7S2rZpa6lxhfLaG7lgyS/cqAasEkNmWbMWzb3ytUNVaCoZjOzXtCQ3z7q3bSnar5aPk+T12iDPpUvXriLA7DDcpXiOWF3MP8lITvC5eSP2OdiqijeLIKUs+J6QYqtXr7IN6/Jk2DW0JiJavHf2zkOQkc6q1WutAkWemWUtO3S10i0bLG9Nrj9nyXuZ9tMky2nXywrzVskb22St2zWTkBYBiPlofIiyhH0Mi4q8l4xh58LCAgmydrFyqi1VFuYoxIvZkqvL7IobbrFfyxra549fbXGl1fK46ZsQPiRo6NljYBaDbu3mAiuXYG7boqVliPmm/D7X+vXtYZWFRbYxb4u1luFfLo8mWfVfvWKh55PdsInylLBU+fQgWhKAp+ISeagbXAgzN4Ky0bsK7bRr29a9MCZF//TzzzLKxOxiNIzOBDkaCMyeXdu7Mb1o2RpbvbHYekmBNcpMtPWFFbZq5SrknLVslG5x2S28HNSTdqXPCsDgY04XeTIs0EnGSFZOA+8x7dSpoxs6PjwggUhYhBF339RUwDytlhJCTGr2/cL0nTrJ4vV5OJ2697O1RWqjDZstP6/Y2rduYdkMscro/HHaXOverZdVCpfpCVU2e+5Sa9O+ixQ/NFBha9exf1SuaEReK0MOWW0tPTXRVuXm+qrpBhI+rCz3/ZfKK6xz245S6CX25c/zbMchO1lyxUYrrlYbrFlnG1ct9fDtZGAxhEEdVq1ebStXrPA2bkdc4SQuocYaNMywX6dMtUEyBNxAlaOzft06HxahR4bFNbQPQxqIEOo8Z85CN/RTUhPcQKQHEGOWVeDQDjgmHHTZtFETa9hU3rWM78I1670nceXaNT5pP0XKvbt4CiUN3n1/MB/SDHjnIm+GeQf072tL1cYN2nSxdk2TrEI0u3zVWstVW7KKFV7HeaM96MWC3lAim8QLrVu38h6WJHna0MV6Cfw1myTDZEDnLV/i0xh6de1gSxYtsi3ig649+6h+xVYhxwb5hNJkLiyAx0+ZWFjTXkYRC0X6ybmqKpcSE4oWiW+h+NYNGltZYbH3SipT6ygDce7Cxda2dTNr3Tzbfpn8kzXr2MOdRCVoxeJrVgU3a9HK5xJCexs2F9r6tavk0edYy9ZNraxYCkpGOsZoXt56Xy3PnDx4PlUyGMBQqrZkl9uL539vhx5zrn3wyWSLr1wlxV8pJ7adVZjao3qTz/ksrkyUclvmigMn8ccpv8kIGGQSNlYSF4ZZly8RXuSAduzQSfQih515cxKb1ZXJVlSywR16RlByVR7asZsMCKZ3IGtxpJhugtGJQY+cqK5KEA+tcVmancO+jJU+d3aLZE2bNu3ckAuGguSnaCtJyo0TG1auXSe5uMoaZ2X4hP1yGWcoOaHENhZstuXLlsno0bf2Ha1UPJKZpnQqSm3h/IVy5OOtTbt2PtyJPGfqBnqLPfcqJBNbNm1oS2WkpjbrKPrKkiCslJhOEa4lP4QD6Hr1mhUyJEbY1199b/HJVd5b36VVMytLaqAqlFjRpjzL25hvfQftpPbcYkniJXqt2cR52Yrlbgj3k+MMv6CjwBG8P2PmbCn01i5f4iQbEuV4bVyda2u2VEjndLNsyQH2cVsq/YYDwvAwhljuyvU2cMfuvtq6sjLe2rVqKr1TJvnb2H6c/oc7Ydlq14TyIvtu1hzrr3Il15Q5L28QDyxfstjr0LFjB8tMbyIjiM2bq+2PBblytHpZcnyl6LpcfLfOGjRvL6OyRvq02tZuWm/rV+VZWzlPNWnCkTxOFs1USwZkSrciWzF6UanIDOgf2VqwfpOVSVe37NhOslltKyJiL0DkxdJlS513caCQ+8z7hHaY24vz6nvyibJvkKF6wOHH2OgjDlR7rLZKGUHwd7LypE0ZqQHPdCBgzLFDR7l4mo2QGa3r2KmtHJhFLisa5IhHVWY1h9MEzxj6Xbp0sQXz50umN/HhXKbHoONZmNdYMpFpJFSL6Vfpsls4U3u95MnyxfNEv62Vd3MrrkjyDqgUGcmUffHSsOMAI6D0fCNTkI+Van/0o3cQiU6q45NtlWilMH+z0mol/UReNZbdINMmT/1dtN3OmmSkWFxRiZVU1NiKLQXWtQ2L6qQzFM7lJ2j/C9jK2KOAfkcd6M7wwGYp6PMuutB69utjBx12qE9ApCucRvGI+o+FFghBlKCfJyjke3e4FFRaUoIViRgryopVMQXWv2zOlhNTM/6erEZBqpRVyjKVgmbisG/vAJO58sVwUpmUR6katFlSvF0ybrzV9B9u40cdYk2UDt5hgcqUIuMoRYqlmN4lCieGM0uRx84mvGwgGi9iFEuorGA59M4JPDDDSFVWXFouQcHwaI0ly/PCA2dOEr0wWPosGqHhvJU8FoKvQoyT5KsFMyRkhHUZrOU+3En3flZmhhMh0VhJm6708XJ8oq0EUbI8MLzUYgmfFOGDYeI1uauFFhmnqSlWpIYV34Z5OLoy0nPcaCqTkYhSZPEBYZknhRCD4RAQwTOlkAxFJdmCeXNt/crldvGEy+38Ox+04/YaqPbJFKPJKxTe6domLAqX9sHcFsd7egjrCjecxKQyBtiqhonATP71IUEpGOaYUEe8lZBxQBLGA84BPYsgLEVtSdc1Q1yUiyEIGJxFJhiCCAAYwiejeh0kMETGMHwK8/LwOJljJNIp9/lObCUjp0M0VqpyMUdJ7OR1oQz8RcYD3/AaEeQ4LqyA5BsGCldk7BGTIQLmMrnJqHait5R2Ilx0ZBjCk8VBDZo2t7wNq2XIJ1hJQakxqT01GWdJyrFG9Ky/GhmG6fJIwRubC7PFD8ZJWkYDW6e4yfxWdUurlY+MPnCQnKx6ib7YFNunRigd8mCeIL2+DPWnxItvE5O9RxdHAmMFQcf8QWgVRwB6oe6sEqMHPbtBtoRYkTVv0caHP1gkgICkrtAQPZT0fCOUqDvlgYYTpXhZqUbvKeVigjG9qLQBw7oqXpj7I2CeJz2xaRL+RZu3uGCkx5O5Osx/ZeUvOHYvV3V1yavyoiQpb0ZGuhvnbOnRXAYDBl7TbOWl+peKV9hqhSH5Ahl8tEUYbsX4LPW6es+b8A8JJYlYMNYwqjp27S6eFX0wzCXByXZO1JMVixW6EJ60H/TpvRC66K3HMCUtaIO5UiwMATfUBQVeILzTRq1FC+VSHuCeuCWKixDGZk6XZYWBwQa+bM+A0cscSIQ1yINGoRXanlf5MgRz1FYpyZnCS4X35JJmTnYD8VCGp83wUwDVvgb+r7b5f0yyI0eda9/9MNsyU0TnqczzTLTSCvBcJnmVKLnNSvASb3t4kk2W09PlWFSVxXhdfKcKB/6AJ0RnUgzM50oQHcTLYYh4BhnBcFWWjDHeUXimgjAkRV2gHZoYWV0oQxgDgDZhKgwGYYOcht5W0ebMAPhj8VECclRpohvoMfHFQNIRWSwYEZ7TpHTBCcO89F5BS/RopuI4VVSq1Mi/ZI+HAQ694cxAY/A0G9+q0JaS1cjyN63zmkOKkbHHkHte3ho5NDvYzz/9Yo2aMOzXUOqlVDIfghD+q9VuyEjJplQ5NfTMQ4/FKh9ze+Gl/C2FKqfaHcEVa2twwzfoWCh2A4yVplVymOnprixXHqoXPESboTPZeSJVbRcv4xCneovSpWOEqVA4h4mpGUq70lKF24Qa5SO8MaTNRv/OC3IymJrFXD6G/JHPTBnwhX2qQ7SABxpPSkm3xGQWP5aqmuJ34TJZNAuPbBHfZcuhLBCfVErnoiOYaoLOQ9e6/qGm0JDKU6L0cIp80FF1083pinYIvbz4IOIFyQiGrNn0/L7777M2Mt4w5u+46y578533rKMMITqa0K/oCxY4oG+ZJ09e6D7SCfxT4D1ljFSg3zCWAwcHnof/oV3yp70xOukYgQdxSNBLyE9kG3TFM/KLtiMOjhn0zhQF0ktLk6GXnO7GLIukwEAScpi6qkxRPaFxZCZlQQf4tnHMw1O69LBnZKar3YtVz1I3KksltwiTrLBlBYy6SD7oGdkIncEy8At/fwXbNfbEw97Dh7DFc7t0wjhr0a6N3XjbLSL6dZ5gxJAgt/bAaKSZwI0hgTeyC4o6b51vFI5vxInCQOnE8vQgBNLgEkIwHJlXA6GkChkTrrzSUvoPsvEnHm8pQrCieFzC0SAoIYQ0eSGsXJEoDGlzeQRdUXn8DyHhWQaGoLGJp8dawvW43kB/BsL5d0FIc5vfuvRfLE8eQ33dkFJ9XUB6SZQf9Y9BbVzPgbKFNAEPHfseyhcrp4iA+nhcDxOIi33ObrvlZjv+xBPt/MsvsgzqJeXgpiSCwMViyJP6E9EnsvpzXX24USRPW0B7YhSH/AS6R4RMuesVuRZCnQSU18OozHoHHliQAJCuL0oAZ5RDYXzoPRY+4EykQzmhMd29/o4H6h/KTo+Ol408Y/l6XZS2hxW+ovwjmiAe7xAA1IP6EIXwAMY14XAeMPi4hzRE72Jq0gk9qoqvuMTindcplpcnrTQJg4DR/zS+f2POTDQflHg+Gdkhhmcix/AKDWEABn7iTeBNeJkXxOfyOpOXR1Q+4Et/Ed/6d0GUftSGvPc/lUc/3VGpTZM/fXc6VjqUgaKBB/Koz+MYhiFtfRf+wIs+ehgPx89Y/vyO8gAQlvAjdMY34nlZRCsIWT16vAjIE0OSb9CGr6omL+JxxSDitahXl3pQiAgH9cHfOU5i4EkJj3rnuNDvBKVHGo6z2DdoF6AsvAtzhjCcYmF1Z+4N4UKdSS/QNrRBHMrp9d4exKrj+dUwFF1uSxdOsbHnXmWvvv6RtWwaVoazNtPx6eVS/sqb314n6hJLKNSbK5bwNqAahc/1QEnGcAYd810X5Y61FykRJdQx1CvCd0Q3lB+oxb0nE+rPD15BQ5Qr8FzgX8LQxkEexNIUb0fFJ76noXAYIuCXXmacoYBT4ge+pyyOIz17GXWhyFmBfNlll/q8x9BTLKWtJFWCkEmonf+KeAJAkYfWJ8lYWH0DR6RP/uRH2cFHKA/4oV2IL9zIaCO9CCcR+G+ByyJ/Evi7ICcxqEkbvqXXJ+AhBCEuV4QbnFiAZ+jU+UZxwRGV4j00SNy4+NjIFu1IL50e4B/qXR+i8v0j2F4Y6o6hecstt/piLnr5dhyyox166KG27z77uoEa2RD65xCl4+XSo+NTDwF/ulT2ED5E4Fsw6mJAPPiOSglw2gJtBbwFmsK2iMlh5RHlyT3SISH/WJ2ieyxPoH7+Hk9/0XPU9rWgoHXlIC1dpK92Cb+R/cH2gp7+GWwzjKuK6c4zRSqW5Y7AXLNhnTVr3dLK8UBhBEFUQAqPscc9Uhr1wREoQnCFFovrYWmEWOU8LdwaAd8QmL6kOLzxirBVgVrMjbtSWcx5GdnWSIyfilBUWJDAuDVloEF8SbPyixqZSnJ3hSXgd1SHCKg74A3MH+F1RfXiWRXx522BVP37dsDzid1huuhdVB7KGAQVafj//gzUlZF3IU4Enqp/C+CGSyxN8B7iBSB9egFYJUqPYA59/BIG5WXUkfZTILpTYxDFdWFRrzxAVEbyj9oxMmD+q0AMLzPPis9vyg54W+kxCEKUCMJP+KJEsfy4EHWUkxAhLcXzBAOjbm3sedL+XokpjxjOPAKfQxj/Loho1uMK6r/nXSQEIhrxfCiLLkK6QOdJd4+p+HW4Cjjk2RWL8B8rntKLGQGeX1BGAArD8+CKhaYMKoWXIxQvhK1v7IX8AvBIaaK6RHiOeAPw8HVRAn7rp0OUWBjSCYq3jldoQ09f/yKl4+1IBP1zY6a2nWNtEEvL3+lynCie5xULRx0x+CLwngCMSD1HZeNOOJSCD22IDjwO5YviethQvgiIV0s724KC892v8MPTo7xbCV/xILgAvC4EpQ6CKL5Pl+BDrDxRvYKCJ60YfgTgAIBm3IDZDjjuoraLS1a946xg80pLTWtmCUnZkq2bRR3Cf01sSybKFQMv01/ItP8qBAO/XlqgkrLFLj4FGgr5YnQ53ajsW4UTeDlj4cI7cFeHF97VOVgBrzz7ML4yjpR2XXx+MGpe7iVEZ7njGPtWPxzP0Z2LHlyOzGN0J3IKQl09kNfDf+vy+sUMK4C2DakBoWz8juw+IPBWrF78KW6EJ6/TPzH2lDs/wifdCRvpAsLU3sGzhw//Rd/0z40ngN8+hSUmb4gQwqgcPr6kePEcz8ZiG+Gf8y28LrHw/xOg9KJjUpnj3bBRQ5+q4KMcFWH0ysvFn+e9NahaMV4K9UMmhXYO9QhhkLlBRjvovbdrwE4AhXEc6xvyg7jeVryL4S+CiP+i9B2IH3v8K/A0/iIQaUa8WT8vIkS/6+v8fwbbN/Z4oUwqZBzwwveESk4M+wuBFGUUMVNkTLnQoqLb5qn0ovCBgCWIibMNcqJKRczngt+fdCd/Lr1IVRoMtaxPTbcMWf+c1BLl65MVdWdIpEpEEQF4cSHPd69cqENkYEWIi6kBBQtP5O+I9Hj80u9YfbYHUV0Af4r99vCxeBAwd5R5RIz1G9Wj8F+9fMKdMgWc1+UTGp3P0bv6ZagPUbiEpDT9qlJbF/tclqpqtQUM66D0qaCAdDxOrFxAXR6kx0PAa9Rm/x6EtqsTckpbOAqCUIqKbnlHShRa3xUIjPA+HOwfDCvoiwCE4d1f4cTLHusB8LDhtQNxyFelUhqhTCFcSKtWmKjtIC1X8B5I2PU6gO+6FIlFXASFPyt9yl0/z/riMsyTC2UMyiSEDnujhd9RtaBXjIyg6EgxpBoZe4T1usSevTQwE//0zvETew1OQzhSiJVP/3kbyKjiWxB2lCVGv7rAOULVfytK9C3IB4KH8KQVlcf5rzbPUF+A8HwA74QL70KYgO+6fKJhH8pDWUP9iC0nNCnR24h0aGfHT0i8NlxEK+TDu5B1CEMe9YHvzg8xpygKG9UnlDFcmN/co3yAKJznRTquxGm3UC//LtkW6C3EA2dRmwDhXlcuz8/bPQZxSVJMiltVKP5Ot/jEDD3nu3LGEHSajaVFMl6OfxEcw/8kuJdb6YYc6sodFTkyvgnHNxwBD6N/kSxxOhFEOACi9Ghrn84QM05ov7o8oQ1CCpf86b3nE/utH05zpEo8N/Zg3ihcVFYBYTxd/YuMQm8L58fQhqGtoOtqX03P5sv12y5Kz/Um4BaeylKXjYPTQyxOOKSfvPROZObli737KyCu5xt+1OYLbfEt0i/OO3yLfY9ogQu81ZZX78l/W2DHCqDGSpQuoxdqO73zJF3Y/A+BkkJPghenCdEI8hD88w5DnfpG5d0WKAnheIjqF67wHQjtFsrs3/yd4sXq7WnrheMvFj9qe8I5PdUDUvA2jOURS3GbUP892JZHPR9POaqT7vVlwF9AnYQVxPS8Kx0u3yJAiGW+RZRUVHGY1AVlDECSE6gXJADPXl1FjpBFPH57OP79M2GjsJQlhBKzo+yUVlI1BwWH97FctoKofLXljXnbni3lil31GU0B9U9xwq+tgHISNvQyKa4u0q+srAy/66W57aX/vITEj/LDeHE8UHLC/Lch1O8fAd+Zj4XQqmL7DzFSFcM9QuyfYtYrSoS76KoFPcN8ehuEN/Xyuv7jqkS9VYSJeqoABDft4/H1O2ArgPeK6Ae0Q37hS70QsWJ5u0GPKpvjPdYmfwUeVlCbjgBBuNXlgka5csc7pAx6z0V5uaJ3UVtHAgSIwtamoWcAsexKKxYHmgo9YgwzMd9EbcQ3wpKmwsaiem8VYcmbNEO9w8c/0SHvYs/+PXZ3UBR4JMKvg+5RO5JkVH5XEsqL+ZW0YeTl+pAq32OR6+cbQX2lQcgoPY/vaUV8CV9EV11a9YE4CHqAuNCQXnm6/AYoJ2lGxjJQ19bbA72NffCyccXK6aBvPpcJPAmYnwy9bwu14WMQtW0EtLHL0Vge8CJKtX4+iuCPUZtyRTTzzyAKz/QFl0kyNpW68mWLG6WD8an8gFr8xn7/T0Ioc+AVN/5RQuFfoBX9Bp/esxajowhCuQgb+6utU93lRpri6pf/rg+K7Titj3ePB73pmW964c+UjzZBfjEPK4wGiZ54r/aNcAQwJ9LllX5jaLqRp7RoT6YMQRukHU1TcGMpVg6/eK73O5orxzP5RQANR20SlduhrjrbBwWDZhy/9XBSm7+u+okQwtOPwtdFcfBXfIs+EJ9/NdQvDKPzj6KHsHrY1oL9dyCWZqhLSNerIKDdVKOQ8bYQe+f/11U3BnW42N4V8avnGEuHvLx99JvkCBOBjxTU+/3/TYjarT5+/hVIGDdu3PU8eBQ8CJWfOXvY7AylciTL51996ROrW7Zu7YqKwBFConv9d9uDbcM7IfEvRtC892/8DK/87jQUffNHLHwZGfGVKmOYNxGGv0K5HP1+15/i8JuLxQFspslKYrrj6zd0lHetcehl0hXLE/AnmJrw8sg/+egzS0vNsOzsnEAUUVAmFsas5qjM0UdX8DFBQopbC/Lw7K/4j3+6R2kE4g/v6iB8r39tD8AF3d8ugBBo/haFBcGSZoSlGNTLZ9v0uRBIGCQIQK8PAetF59HVocLi8JUXlfiGpk1btgjKUgITQcuRcghuFmb4hFsZfayoY4NUNlBlAQsrmBC+5OvMFeEu5jSE37G7rlBGz7oWPO42sNU7PcZSqX0f0tn6ObRBrK3jJPRqUv0e8FcHUbwI+KnYTsu0RTRFIUqT7TKWLF1hq1etsqYNssL3BM4JlUFgiZaowEVbNtqiZSutpLTMGjVoEBSppxKA55BvKAttVPc1ygu8EY86hGefTB0zjurXwp+Jw80f69IOb6J3/uDPHpogta+VR+wbQN3Dv3CvH67+FX2IRYu9C3cU4o8/TLbysgpLFgl8NXGiNWvR2pJcoStR4dINCdVn1apcm/rrDGvdqp3wpTQkJ6DX+nlFShiery1r+OfywBe6JKfaxk1r7eeffrOePbrrHQvAwC8BY3Fi5YsAHPs99g7+Q8GzsW5eXp7kUCOPG2QH6XgwQZTeX6Qb+xZ+cAV65D3HPapYugKPsyF+RGuqRpCl/4tAGequqF7CscqAPnGd4v/HaEBP3ClXwL1xbkAos1+EII1w5zvPUXsBnkcM6oflXwTB+EzwVZfsZck3ttdIYKFBUorlrVltebkrbM6SVdYwKz1sgA3E0mAId9GihfYjp+8kp9js32f7Ii8Aw5UykAdVUtFqISpb3St+S3eJBuPjEu2Jx5+17t16qhzmuxBkZTU2jhN16UkdYwWoX8ftQcBNuPxX7Dn8DrnX/15bnliyvOdd/Vz47W3jxmdtjAAqWxjlk7PrsoQ06ujw374oo/Lggj8A3tcvb+yxFsApi1L++GOO71vLvqJRerWB9ezp6pF7BB7GH3iubzSH99Hv8AaeZVFimc2ePd/yCyqsSWNO94pBbVKxh/8J2Ab9AbZOv7YO/wACJmMQ6SxHhuJGPQizZ8+2P+bMiRFpYGK/YgwHULk/IXC7hVS6sQb8KyAdLOpKvPzYuwhcjOkbx8AgzNy4IpQKT/ZufDiBxsoYu9iXjb2j2L7CG1xp/1eAmnqvgww2vJvb7rjdZv7+h3EmZcAiQ8KxNCkTRaiHj/A7lC94fsFwDGWJAtRBhFm/1/tBvD9B9H2bNABwDbGuXJlrN95wg/Ki/Fz6WD84adSmUwe067YAPjkZ5O677w7lqa2HrihRRfOhdz1u2bjJbrn5ZktKT7VSx19Ig/b4/IvPLadxC1+1h8dcUFhoJ59yiu/X9O2kSb5ql/IHhgu05/Sj9L2nkHdkF4XRM/jVi7+gMw8t3ENbsbLGbsT/V4B4PknZwuqvMKwX6g/wLroCECY8O33qHl28ZmPivz3woL385ltySootNZVVzlJ8ql+ZNEFKWop99vH7vsdaU18RKryqjt62ujwvjB3ufPO/OjqJShGAMPRKM/xZaomp6VYhBVwpmsW0ZPulULaY4RAiOZC250de9fLjb3sQ3tMbr3Tc0ojCgT/wHSZ/O/5iOKwPMXQKQjz4hW1e3vn73+3XaVOtrKTQLrjgAsuXM7Fx/ToFoAeUMtJzBs0vtxdefEmCOWprpnaECdaE41U0XETbBfqqL+wpgwyVxAQ5I5vtwgsu9RM7QjnryhqFrVdgh+gn37OystzRHD9+gi1dukwGI3vLiX4djyHcvwJhzrRqE4ovoL1VX5wPfoFHpcnK2xpkUhyjMoTQY73i1ZZ5W/iL1+BByaq8SkR54GvJhdQz/Cy81WDEkY9+63u1jOtqHAhdpov8MEYZ7kS2s5K3RjyEQ47RwHcMPN/4yRFHPevxqCB6ivSOx/mrAtcDnGz0GJvynnzaWN/fzbNQfIyWjp3a2Q+TvrSvJ//sm4NDJ6zcdHmgcOzpePbZZ7u8evrpp/2ElIL8Ap87Rm93oB1Pzq+oJ/6vcMzK56VLl0vG3a20V4i2iuyOO26zlctXi4SFxboq/2sQZbNNdp6/roiu/xQA2Cav+nlHj/5O/8W7rK+0St1YM857NmSn3dSkfwZ9D/oh9vufQb1w3rZeZn7wHzgmzxAo/B+rj94jl3Cmfvppsu/7uH3ZH9L1yNuWSb+3bS//ufUr5zvon70H3//g79JRP+qFZAg0D+/9B8P2MRIDKs+cGPZBYrNBegFYxQRS6R1j8Ubz5i291wzDkN4avxiiFMConHmHV8ueVdFQS3QnHYiB3hyEYTREU1lZKQXIUSWb3ZMiXH4+mzRzlqmsagnKhPgKa9SQHdubhd3p88M5p746L9adzpJydogHwrFnIW3KE4Rm2Hi0Vcv2vk0DEAwGEY/u0cWSd5aUN23cxJq3amkb81ZZRVmlFRSxpUKcb+3C4iz2wAJHUAR5gDsf5qTbH4bAeFZazCVic+lmTZu6h0iZfOm1AO+EOtenRfCCYuA9u56DP/bS27xls+MPwiZ98gNPKDvfXTwt1Ro2bel5sr0JK5tQMl423ckXo40l5qw4o91YBs85o3ByNGm3PoCbTUrrpZdf9t44cExZMZ4oV6PYucNwf0oGB1Wr3qp/Xu5q3ziaXd2pAxOlB++4o29Snbt8oW9zgZBkp3zifPbZp3bZpZfZ2jVrfPk8vYiUm6Xw0J63ktqGEyMwAGh7FqCwiz8GPUvl2ROJrVWoP7hhy5Fg7GNw17sw/Lx9EmR4ttTV3LIbNfF6+apurzmAV04bsT+TeCEx7CeFMqA+DAcxtBO1CbhgiIdy8pvvlJO8kCS+y36zNrY2b51VMpcyNcs6dutnmQ0a+qadDRo1tcSUsFP8z5O/t+eef050K7ouKXHeIB/akHYC91w8Qyfgi21jMlR/36zWyyNeyV0leV1tJcWFil9uxbqnpWdaTnZDx5+fAlBe6mlhM7PNCjgPp7RssfT0DN8qCPx7PSLQI7/hv2jrBrZzQF5UVnDAfthsW9X2ckNrbKNBPI5CzFAZ2GsS+sQoYosCcMlWGV4nKVbiI3PuvvdeO+CggyxFBkOjho0sPiVd9FyhciV4+7JTfmlpkQ0dtqO9+MLLkh/pVlhQrPpUiWdEe6J1trpgixjaFxxyID4nXECD0Eq05UJpSTgaq7Q838pKqySncnwbGi94DJARTCCHh6l7tFE3uORO+0O7HAt44okn2qGHHuIb0nuPqi62zNmscnMAPCc/sJ0CPBzuYVupiBd9iwelmSInc9OmfCtSmRJV/yS2fJDRlJXJliiiWT2npGR4O/l8MhWXvcEKJR/SM9Ld4NgeUFY2koZH4XOGgTGW8gu2uJxT6/mlJF3WsQcZdWP7mwr4ULhPQY6rrcqEt3wZMvFJ8ZacKIODNpfFmSADke2q/JxrGfw+j1iKXUHUHhiS8Z4mfAENROViWwo/h1k0yXcuZKnTovKD/rZ76Rvb8XDSx0Xnn+VHctHD6nuBqiKpGF+LF1qB0uUYOLblYfQBeUB7cDQo+oLjB++++y77QjIqKztLMgs8bfL2YIQC2gQn7MUJjVNm365LeRMOngpGSJw1EI23aNHSaZ7jvN544zVr27at6lvpvXuRTAJ8iw+VibjIW76xjQxtRPq0K8CWIOQNXZMn25LAN8SjLH6JrtAnyAj2HWTrHTb9XrOa/S9X2hZ4QGlB/9Ayc6HZ1B0dzXGFyYpLJ/nmggrJf9F3RbGMvQqnKVgCHJBuwyYtfTcPTrHZFsCNKudyKV16Fd0fFmRIxse2MAG/QMOGkoM54YjKsGVTiQzlpS7boBOAukQ8wvnnbPYN7tB5OGo52TnOrdQxwqHTlcJwvCT7mYIXylOLJ120E6cQkRayGrnCGbbpKSacJFu5ZMz6jdgdrFymA0d07R0pMbrz0v3nwFbDuAkqoAO9ZHoBXWIUfCYmyRTydxg8wJEy9dfpduutt9lzzz5r33/3rfXu1ccZA6OIdPjPu7VjSHvppZe8p4az59iRHUTQMDArXeQXXXyRnzfZvUd399QHDxqsxs5w5HOKgce/7XbflLJps5ZiqDJbv26BjR17tZ839+QTD9hv036VAG1myWkyQp05KmzWH3/Yrbfc4oYeCoQjsjiyiaXzbMD4008/2RVXXGFvv/OmM0Wnjp28zLEq1ALlpZwclfLoQ/fb8BE72htvfWS77r6ntWvXRoKBI23y7MH7H7R773lAOIq39u3bOsFSx1gqIgYJQCmPSy+51A9/f/75Z+yRRx6xbDETJzNI9Nn0qVP8/LzOXbt5rxZx7v/bvbZ23UbfYJK9pWbNnKUwL9oXX3wug0bMLmLGIGZzRgy6O+6405597lkbNHCQ7zW1etVq37l9+m+/269TfrEddxxk3/8wyX75eZpt2LDez3wdNmyoG06Tvp1kN998i02c+K3w3TcwgP6YowAeaGPO+3zowYd8o0k2rNx99929hjDh3+652+79299EKwN91XRmSpqVSSk9+8LzdsZF5xm7u6dIEb3/wQd+rI+I8g4AAIvkSURBVB7l50B5BNNnn33hh1njWMxfMNePVuP0Fo6OAU8PP/yQ9ezRQ0KmpHYYhSOcBg4a6Ef43X/f/bbDDgOsfbu2jnecAwQZBuTdKhdlHTFiuDOt96gofmjuWGurfksXL7AJ4y+zp5960tKkhDl5IghLvodhvfSMZCnuj+3HH5fJaE+x8eMulEIxP80EIYuwBV/Lliyx80XP5M/G0bQRwhCeQIjAD3fedrO169TFJv06043SA3ffyd579x378tvJ9vnX39pTz75gXVo3tuLNebZkzSYbPGS41cjYxKB49NHH7LbbbrMt+Zv9NBnKyOahV1x+pXXu1M1+/32G3Xj99aKqGmvWpq1NncIRT/eqXaqsW69e4pEya5ASb3krVtmTjz9q19/xN2vYrJV16dhezmu573GGsffhRx/ZNVdf4w4bRxwxdYE6QA/1ATwxxHXF5Ve4QuzWvYfvhYcS58rNXWEXq70++vAza9umg7Xv1EQ4ZW+pGimFFX5SArSP4ZQtIw6n45EH7pMsirdXXnvNvpk0UfXqaPfc/5B1EL80TY+3Z156w/Y48DD79fuv7LlnnrLmLdv6vlpsiQ4N3XnbQzZ0p11tZe4ie+TRe9y5mzDhKm+Pbt271RoT0BP7ac6ZM1ft8pb4+F7rrvKnp8tpkCxanTfPXnv5azvu+COtcRP2vKNnN8g4lBOnh/Tr398efPBB8eUXttsuu7rjBK3huHz22Wd+ssTQoUO97S6//HLr1bu3y7njjz/RT39Ytmyp3XXnnX7CUJoUIOcbX33VVVK06da1aw8vJ8fVUU5k1+NPPCl8/2HdunWz1PQ0tVeNvfrKE1ZSkW+fCv+vvPi+7TRwF0tPjbePP37frrnmOs8bo4K9v4JC2xowjDB03nn3XT9Fhvw4f7ZFi2YxxxlqomcjSbyVb+PHX2l77DnUHn3iQXvl9Xcl3/e3BPHC8yrbo48/bjvtvqsbOcYeonGSReuW24UXnmtvvPauylJgnbv1NL2WMVpuF553tui0q33ywTsyqm63nIY51qtXX6crphOtzcuzH3780Z544gn7TcYa7cOcOTeiYr1AcLVXq37dRKbg9qabb7ZnpbNwcDnpY+QBB1qhjKb4ihL77qtPLT+5uR2wx1ApvVIpb5z4dJs6dZpdc+210hdL7ZdfflH77eSjFDvsMNCdzhtvvME6duzoR5jdfdddPkLB0V8YLjgLyMTLxl3mR+ytksPLaUqtWsnBW7vOnnn6OdHEQXIezG644UYbsuMutm7dBsmMs+z999+THHjX3nnnbT+2E8ObU4Cgtam/ThUtP2ofvP+Bt2ED8Qpbpyxesliy5isZqEX2wIMP2ADRI4aU48L/BZlHDznG0iWi2YHSEc8++4zT5x577C5csz9hiiXpXijn7j7xAfVatGKZderd3duhUkbO1dc+Yq1bNrcH7r3elq9YagMGDnFUX3HF5X6k22effCg89HaD1ufP1msO2ooOIoysq0Tfjz32mPXp09ttCOwCaPSSiy9V2/cRPz0k/fyWNZbeYI88nIrrrr1Ocrep9Rb/BIej2C6+6CI/2uybid/YJx9/ZsOGD3HccB7446LDO+68w9sL/dlE+n/J0sWisfv8qDtO0EDWd+Q83kjWU06VB70PbjhpA2OOo9qSE8otLbHKPv/qJ0tIbW4jhvWwasVDHpJnGB1QOiGZfx/+Batxe7y8LQQOcRALc+oxhp5+BbIIrF0n06v8LL/TTzvdN9BEQM2e8Zsdc8wxtnHjZnkMYWPGaPsBzuQcM2aMK3WMPBTcfvvt52cl4i0uXLjQ9j9gf5/Dsk5e3DXXXONCDKMDT+i5557zg4qnT5tuHTp28O/fyAjB8y4p3GITJ31vV0qA4UGz2/zBBx5oa9as967l6TJ6zjp7rLy0KjdgnnvmWa8R+wbh1T/EsJmMSHrreH+NFA3nJYYJ4vT2cFhziituPLjR8sg5Yodl4BeKsOhBw+tl89XffpthRx4xyubOXWg9ena3F198zo8/ofcF5qyd1KsLr41D/8eccorXn+PGzhx7pp//yeaQmzes865okY0aQXgUEf34w3e2QcyOkTNu/AQZbufa77Nn2Ra9Gz9hvM3+Y45vD/C+jFlwRI/AwB0G2XHHHS+P8Q1nEM5tbdgw04VUkyZNJfD+UDlfVl4/u+FJORkmvO22W13xwUBHHHmkDJrJ7glFHEAZMIphNNqaY3c4W5ADv0897VTbLAMLZXLW2LF+PibGIZvrFhQUiZhq3ADjvEvm62GoP/3UU3bd9de5AmvfoaM1a97aGkkgYpCmpib6JqanjTld8dkBvaPo4ZLas5lxEDnw/swzzvTjcqJzOSd+/aVlZ7I580YbdfwJ9syzz1ljCUSMLsLiLKDU6N0IzMnmm/lSiJ/Y3vvs43N76MG6R8ruuhtucC+XcIE2mK9Rbr9N/cXeef8TGyfDvWf3rvaW6nrmmWd53GbNmtnLr7zix5Vh4EFDE6TcOYIu8vQ5Q5Lzdtnt/aGHHrF5C5aYbDDffX/6zz/bu29/IB4osrbtOoiGy22u2nvN2o2WkdXApk2fZiedfJIUw3rfeHTSpK/tgvPPdy+6QYMsmzFjphTJi3Ju3vWTIC6TM3XX/ffbhKuuRtIK39fbw48/Kyejqa1aOt8OOfgQ+2ri99atQyu7/Yar7cSTTrIVq9Y6Tq6+8kp79533fHf7zz7/1I8hoqcRZzBICoalUrwXAOPgWinGHNEDcwtPPf0s++LriZYow+uLj961Y4851pq1am+NmjW2Y0cdYV9+/r3SKlM9VofjjFR3zqi8WsL3fgl50tmyeYM7e7Nm/e4bt9JTOn3ab97bS28RPPLgw0/YN+IpnCUcx2+++dr5kiMTf5VjSs8emwV//ImM1muvtq5duhhnrAK0K8qIus6dN9fukmKbLBmEAcXQ3Xvv/t0dLnrLxO7ikyAfRA0eH6BMb7/zjslxdiUPDRx33HF+9jNKmNMlMBQwnOEzHBEOOS8ozNdzsctHnOe/S8E3bdLYdtt1VzvvogvstVdes4Y5HNV4nT0rw4BeQE5FufSSi+3hhx5yulgsPj7zTNH/H6usUIbrH7Pm2Q3X3OaOID0rrO4cfdKxcpTud8ft999/d7nwo4ym4DAFBYUTgsxesnSJ7bPPvu5QcgTUK6LjIyUHOCMb/g0VZnuOcIb4F198ZhddcKVt2lDiPHzSqSfb+ZJJM+b/IXlWasMGDLRNazhrNNHee/8dycmjlU+idenazr786kPv6SwrZSPwcndAzz3nAuFqqnXp3Ellvs+efPJpz5ZemquuutIelCHBiMLCRYts9OgTbakcKudNr0co3vaAg+hpU3ppR5842s8sX86pFKKa0uIik89jZdWJwqnaFsEioLeIU3OQdxzZhaGOnP3q66+DE6/8FixYKOdwvIyydxyHGC8crUk7v/fue04HGBldxT9fSS5de821tnjx0jCKItmAPqID4FfVmXmoVcq/a5du1r1bdzciMS6mz5rrsnKLaJS8rr3uWumRNBlymXa/9Nibb72t8lRKj661T+VYvP76G9baewnpaEC+oc1VWPATe6ZDgmPFOIuW89nZdHi0+H7mjBneSfHRp5/Y+ZdcZLlr11jnrl3su2++tcMOOtLyN5dajfTBtF8/tVtuvd5Ky5MsLiHdz0lGduYXFvlpOhs3bvKjVNmXFwPK2SUiH/1B8xyHCC91VfqXy0HkPGzwAQ998fmXkuWjvUeercIOPuQQe/a5p12fYHTNnz/fwyFf6aVlqll1TaXNnjVbZflV/J/snQNnnjnW5s2b76dfcHbveeed73SeX7Be8v4z0deTnn/Llmy8HA4pwJHh9B1GJTn+9elnnvGTNT799DN3ApevXGabtmySPpfEqUrxOnDR4w2uo3o67mNP/wkQxgZiUC3BoH91BWYMurbs/C9vRUYWh4AP33mEdz/HVZTaDkNGSIkXWkL7BMUP86FokE0Sen1kFGBEMKRI45577rk+/28PGX8ccI0RSO8EwhaCmThxolvfnFCAcoRxOGMSWL9+g4T5FfbKqy8Yp1ywO/ll4ybYsB07WtGmdbZo8Sp5C3k2oFtnu/eue+z4E0fZuaefqTIl2MsybL5V2uwWz5ANQ5cni7h7y6OAMR9//Ak/c/Kggw4MzCElwka2oALPnN6Gp9x4ibPN+etsv/2Pk5BnyKfMHrj/ATv+uJPtHBmXxcX58kDlmVxymSv1xAzmoAQGg8iIQ90ulDAfe/ZZUjpJNk7e0FcTv7ajDjnQtmza6ATSrHkLYZwnGeF4r8nJtl4G8GwJ4WdlvLRs0VSfKm2OhM099z0oD/FQCZe3bECfXvI8bxKxZ1rf/gNc0HCu6OFHHekHv5999jl6lyGPuMSysxq6gmrbrqWE/08u4J8RYdNtzxFUEy6fYM+/8LxvaOnDkSoNQgovbKedhriQ2H///XwICk+T3g3OYqVrfsac2XahlNKYo0ap/j67x1KTUuyhRx7xXrznn3teb0x0s1kG6rUupM4ce64Exn4q53rvgU1LSZTR8oyddcbZNub0MVZZXSoHItdOUruNGnWsdeva03F97rnnSGmM9vQuvvhC+37St35U37fffWeJqZn26muvWSO198rclTZBxuKnn3+l9jpG+IM5g6eL8YiHe+EFF9hhhx/uQ5u/zZxtZ515utNJFxmaYWsFs6ICGRoymn6W1//eK7fZTkN62PxFK+wMlRNnhd35X5BBSk8CvTnAN998497hBRde6IIJZcEGrfQENGja2vY8aoylyCipEk2nSeAtW7rSnnrhQstqkGFZZSv8xJBWqgtGM+cPM8R9xOFHufd5yKH72IXnT/BequKSAu9Nqq5KlPC8z5JlEIwec5p9L956TEbloJ7dZNDcbj9MmSIaMLvksout39Cd7d4HHrJMKxVv5FuvIUNs3uLF1q1dG5uuOl5/y23ii/388PXPZVQxVCcLr1YuMMVg3bp17gzRrig9DLXPvv7e7vnb3Xbg7oPsjZeftp133sXGX36teKnajjriIFuycL3T1Vdff642CGdlsrH7lCm/2ENPPiecLrI1q1fahqIqGcSPCi9hODwMl5b66TvQY385NtePvd1KCzfZ82/83d56+23bd/+dfZiY0xroHS4vq3R+PE/y54D9jw7DtpI59GTA663bt7MHTxpth0qpHCCnkYVBCxcsFo6PtZH77aU6wr9sa4LIDDWPgF9bCitdsR+ouPRMnHfO+b5HWK9evTwEbcKQFEYx8gWjkV6FqupylbFEeexv4yZcZAXrN1ve6jw/MeKRex8QcVbY/Y/cIYP773JUTrePPvxA5kmcPfPU0z6qgEw+bexF9upbn9m1E06xZCne8sIE++izd6y0pNA+++DvUoBz7FUZjp2793DH7QUZzy+8+IIdetihrvydPyVjUHT0SGBU7bnXXo7bI1cc7ucCQ1vQfgR8w8nGcBt94hl25NGH2IrVy6y7ZMMdcriOOXx/S1bd9tnzINUp32qaNGNqnuTN5XbwYYfIsSmyeYuW2VHHnG7LRevdOzfx+arHHXekXT3+HNuwfpm99tbL9uGHH4uvzhA/Pe+LJKgHPaYATu9HH30sI6670xxD3xQxSM1wByR+pdg/dgcVGTxEsgsj7osvvrRRJ5xoFWqbVHqsGFZGzsm4Fxr8mTl8nGtLrzbnOnMcqA/ZS2fgiM+RLjvm2GNk8F7oZ28/+eRT9sQTj0sOXewONvprh0EDJecTvFNg3KXXWN6a9X48Wo6Mqoz0LNF+oXSNdGZljZexd9/rbOOmPJU/3sbKab7mistszz32VIFq3Oi47rrrvK0Y/r/9jjvd6QvTDgpsjhz/ZyR7MBSzJIfhF3RxQErADDee6ITAWR971ljQZDfIseV89ZGqL87QgaKP/ffbT3I4xVYvy7UTTj7TcldvtL5tJKfK1yruHnbZRVdKBsXZloKNdvqpY2z/gw5R2nHinQV27LHHekcOR5pBO8jaCHCq4BV6uAGm4gwePNidYAxeDNWrr75OemawNWiUaps258nA+8PpdOR+I+0TOeYnjT7J2/PNt94Sve7pBh7tFm/SlevXehvT086oFVM0vvvuexs//nIfmpfNaOvkPGOQ9u7Tw48DVLM7XhkVxKH94ccf/Ci3l1962dtr0+bN3nP55ttv2d23X6/2T5IBFegOJ5pTpWqBx3r88p8AQk0AJwD9x/FXPsE2rjJMOnTiiIJVSrEc5Mg68ohjbMCAAda3d0/vlQsTVUODIswYg89Mz7BzZVxMmDDBDyju36+/D9fSVYvQ+1LMdrwEA+dYovzwZhA8/DGZ9vfZ8+zKK66UktjZdpGiYAftqVMmOxMmqayt5O106NTZVueuseyMTOshzy2/qMyZZnVurh016ghLSo6TsE90RYtgJ+8UGViUiR4SjBZ6YPACaOhoWT1tRRcxh/hPlAc0bNgwH76igq1lCDVq3NDbl7M5p/w6xZ579gUZpb18aGjfffe2SZMm24rlK9wbJ18Igrk9HGaOQO3RvZeQnyDDK8W6dOuk98qXroMqKVIJeH4zDwDjMCURBVdt3/3wo5h5rp005lTrP3CAK5ID9j/EZs763YclmP/25Wcf2x677mzDhw/zeSF9+/dXHjnWvl0H7xWgPl65uCp502EZPcNrc+f+IVzs5MPdPbp3d2F29FFH27SpU90DDd3bYmPqIQZDyIctLhK8t465ImNOHeu9AfTs7brLrm48YhAmyTDncH96HBfMnWcffvKV7bb7bn7tv/8B9uFHH7q3jELpIC86yY/+SvV5QpMmTrJdd93Tj1PC2MKQYnh5zpzfJdzyrYWM4lFSsuHInWTR2U6Wt3a1JUnRv//RpzbqlDO9Ny135Qp9T7Ihg/rb3z/8SMIs1YUdgon2xgCeOXOm7b7HHn5QNXQyYsQIj4tzAl3CvNAmKiVZdT/w0EOsbfv2PmeEKQbDFX7atGnutKAcjhs1yvHDNXz4cGsoA4jhHjzqYWofevzo2aNHpF3rtq7EaRqMlEaNmsj4S5VhVeJ0Aa7JnzMcBw4c6L2Hp556mtJsImW0t834babaR2IuJQj3Qw85WkKzwo9eGrrTjta1dx/r2a2Plcq47t25jVWWbJGwy7Mp0xfYqNEnOs/XpDSw+IymdtDBh9gXn31oDbMynBbwuhs0bOq9PL369bFUtQ/DQNQrGAqVtmbNGrX3HNt5l53lCO3nSmT0KafKQFxtnGIz5uSTfELzjqKxk06W0kzOUrh95Jmnykn50PbdZx93GujBgQ4ffuRxa9GilVWXl0rR7WE9evXx9gMJOKTQJziBxocPH2Gz5NGnNWvuvLxk0WJPCxnDUWbM86GnmjicAYshGkDYBuFKc/WKle6c3v/AA7aXDB2U5b777mPzlyy0efPmubDnrGDOb/aJ46pTBPBFw+xkG6g6Q8O0KTS6dNkSVxoYWN6bHPvDWK2sgo7oi+Sc1RTrqfohV8tUZua+7bDjIFd6NTKq0tOT9Azvxbsh/PW3k52eOor2OrVva2+/9aZN++03nw/LfLMRw3aysvICy8iptKnTf7DBO+xqg4bIYFV8evP2kmKc/OOPPvIC7YMDTiyI5nlxDjjDYrvsuovuF4ue2JUhtkLVEcaFoZ1k2ZlNbdiIHSy/eI3lV5RYYmZD69alp2XGJVm1DO1G4iXmZNJjs9vuu1qq0j/kkMOsX9+hdtyxYyQ3VgpnW1Q3jmhMlJO2i4w+5jpWisYbqc3oOKjxebG7iLZ6SL7Ak1zHHX+cD7E5LYgWkVHIWNqDu2rm1xYp6V+Etyfk0NO20CbpTZz4jTveyDTiAx4rlkZ08Y3pTAx9Y+AFByG8Ry8cJKMFYMh0kAw7RoLgC6a3UCZ03CDJ64cevF9O1CLRfrrrSs6W9hKyz2lNyJ8eNhxAjpe86+67PB86SGg3hi6h7xdefNEOO+xw20N88f4HH/p8WEaIkBsF+YU2cNBgN1KR09BbAOrCTXfdeEt9xpwyRvgv9WuHgTvYnLlzbPPGTZKTg61Hx852zeVXWk85CQcefqjNWTDXqpITlJdkbVwDve9vDRpni87SVbZmki895KQf750De+27v7cLsgh8BZrhCsAoH4ZYG+nS1tLjnFebKz0+d85c4YU5yMk+jxj+RhfQ+4ahx5Gc2AFz5s71+ZWMBjByh/xo27aND/VmZTVSGVNt7733tN9/n2N77L6nOyy33HKLL1TE1qCzI040euyxo6xp0ya1cz8BvoNvbJWf5bx3lwzMEF336tXTpx9hXDO/ljng4Lt2Xr63JZgN9/D3PwAR6v7R9S9AvZ69YOBg7EkCWE18rEsyUIgXukaGyqXjLpUBsNAOOuAw69GzvXVo2sBGnXy2nwGKsSR6CwpACKN7lRWbl4y7zK1xepkYBoIB6AlggiXPrSQcYbrypHIXlu5FisE7d2lvp8ub4pnGwLPekM9QTpUXvFQCNFneTaOcVpZQXeiTO8vkITG8Gp+gsiSlSZzSiNVWULRZljvneCa7IXna6afZcDEqQyBDRJx0688TodFI3rupi/owmZUu4CTFg5lT05Isv3Czyg3z0KsR75Oer7v6Ji9XQiKTNCvdwGKiKhPPKRdhuUhTYsIVGb0TqWUyNLKZkKvvMEaNDD7dMbO9FWsk7FOTXGBltGpp6VJUY88YK2NGBFtVbHGJ6ZbTpJWEaKYdeuQx1n+HgTZ1xgyf03fy6FF26pjT7PIJV1iGjBvmYjDkpiqJGZJUthwvR3xiqRu2zMmBWVDeCH2AYQuGUOmVoF1pryDw6i68MibPXnXFpT7s4MIRQlfx9xITLpwx2+JldOAQ5GRmydvf2Yf0AAQttJCifJS8G3QIeLYe2bJxi7dX0yZN/QxDvGDm+JWWyhOX4VjOuZFSpOAmmrNDuZm/xPnHhSVl1qZDF3/OaZDpHjvbvGCcbpBAy5DRH5QDZI6RRBtBLbzAoGDBjQwm0Vh4T7tQRjkQ8YmWKCO2kcpWXl5ia1ct97mg4CgsJqg2JnY3FO0AKFbm5HlmCkPPSJfOnZ2O/IDtzGxLlfBNkUHj0wNSM4VnJkRLUQonHJ8GNFQe1427xofh9t/vYDvs8MOsS/emdtX4O7wO0BhGSWZ6WORQIwWsDC1N9ca4b6C0KqRQoFXmJCVKDvvJM+RbU+7zEXEsEhLShKtG9tSTT9qkKVPtm4mf2eNPPOFDzm+/9bYLXwwR6kKdi2SotG3b0hVbK9EpiiavqNxatWhmxSXVNmL4PjJUDrFX3//UXn3xBZX9AL3b01557VkXtvA25Y4X77gCTm8sA3KtNRc94nLnrV3jRiMbpoNbP9tWqCxQvo0Vv1WK6LWwyDZv2ORDPYlSMJzfyTmeyfqdzBQT4ZOFEUWi5yDbHDV+h56WLVvuvUhMB8D4b9iwiS1fttp7+ZYuWxCMR9FUnKXrCjIRoP7FqittDe0jv4pKitwhTJQBEznQ4S5jT3IUHHvGcrpQuo0aN5WhnmySbpJZZjlKC36RtShFw0p1Qse7g7DTjn3t5JPGqH6cXyoZkJZjCQ07eTy2hYmXAU1PKXKIHsn8/M1WLty4ga48UFKcZ+xnn8qIAxf8josrM+a00ZsxePCOPqeL77vssovS4ZxlEKZy0EWn57ChLsezIdfKfbQE/kQmZIgHa4oSrYF4VtQl2VJi99x7twznVXbUUaPlJLWyTCnUM8ae404b5zRjGKenScampJm8OxkQDbze1TKMGUViF4FN69dKZngx5MC295EBeuXBO+0Q2Eu41jPAgg7m+LVu1dp72Rs3aezDczhjDz3xtOLnS77QOyPeUZ3EjqqgMlBCTiMCl2eiN3DBc92V6DKTxUtMZcFpczmi/HGan3rqaZ9ScNkll0polFrvXn3t0INHKx2G/vRK7edZsTmxcEp+5MM843PPG+sOP9Nw4C3k5C8//+I9hjhDPrd98GD74utvbebsP4R/nPdS4SnVDWtkCIsTAhqoS4zQY+DyTOnTC92uXVt/hxHMfL+1MqKYavTqq6/K4dnXHnzgQRswaJAdf8a5VlRapDKmS7/LYCuplOxItIJN6+zj9z+w66+53cZPuNDad+hkbVq3s+OOG6VyhFGTbQEZyfxdnHcAHYCRixO8ZXOh64G+fQfIUVOdJKepXzQ/MyengXcqfPXVVzZs6FDR6wo5Z5189IupZKxoXrc+T3rvGsvMaObDy02aNNTVzC65eJzP2duwuYHLWLZqadES3RZoJsiFMK2BDitof8899/L2ZVEkzn12doWf1Z0lhyM+IVXlzRfPSXbTu8zUEuG5xletOzGG+78BER3+uxBjm60BgcSQrt9R2jEiqagsE7POsdNOO93OPecc22/kfpYiI2zN2jwVKAzhcgAwS7GpJIQDQTI0coiu9kIUHguNT28I4iICvOHVa1Z74yMsB8rLWJW7yj1suoOZ23H0MUf73D0EXkq8FJn+Kis5mDlFSkKMIsHIQe/xMjU6dWojD+gdST9WKsVJcSyXF7nBV3fixRTmF9jf/vY3O11GX2cp3SVLFjuxYQzAJABKnbmFxGcl3QZ5/inyZFk2D3GuXr1KYeJ94cTCBfO9jsyhYiizQYNs73VifqELEk9FaaqcNB6KHMLFg8Urg7GZC8YpJhjVoWdPAltKYcG8eZadkS3joJsVKMw+u+9tx8izO2XMybbvASNFcIl+XXH1tbZwxVo74vhT7PU3XpNSfcYmfv6R1UjQlqi+G9dvkEDaKIEgppASYPI57aTi6TnV5s+b74YbOGKrmm8nfasyi/DTOLw/CCMXJCobzACeEHjNmzcHXe4BHTfqODvl5FNkzB1jO0lhrFix3CpUp0QpGYRR4IE4n7sZXSN19e/fP/TcSCnS+8mkfZQtPVO/TJms/DCCKoXnRT4c0rpVW2vajBWz1ZYvwR0JYJDMrl7xYvqBAwbYfffc5fSLaub68uuJ1qNbV8tiKNuH6QNz0pNH3Cm/THGmb9mqnQtvLgS3t53K7QYu7ad6TPrhe/csI2BxDLTEBG3isZI0Ag7mR4gzaZoewF+mTHE8rpeXSNgNujP8jXOhHGTgyzhVHknCBwtvqM+WgmKF3+QTzEdJkF4iJXLoIYfahg15wnOuK6PyCg7JFu8VsFpYBo8KDr2zVUJ1jerKUBWYkPKAfxrKAfv22x/0JJzFCY/x+fJmf7Z+A4b6HNTLx4/3noJLJ4y3yT9NthH9Btr3M36VMZQlO0VmscrIdAcUntAi2j/SjjjycDtcRujee+2idmom+m5kd93zmE2e/LMdfeRh9uUXn9ik776136bPkYdf5O0+c+YMxxN4Xp+XZ3vsubdt2rRFpQrKgl4t5taRh/eSQ7TCEwbYT5MnO66LZSRCs3xDjng8hYduiO98JxohTnAeRdOu3eX1CneNGjfyxQgMJR0kw6Bnzx7WoUNHp3UAYwNlrCr/CXjHhHxPTfQDDflKbt2dtupB2KSXsgUlnCj5pWAyHErFIyUuI6r1rbRUyk30yYkYCi48pVif3r28px3Zu58M5uOOO9EXHTVpLCdHvElJgsROknFXI7nawfLWr7RNm1dbMylhnHB6nqknw1yUjTLS+8g81aefedp22XlnV9TIL86EFZm6M4hxEEFwLJBrMuRkzCfEp1iF5HaiZC+H5m8s2BKcCNWFnkraYf7ipXbhxVfannscIAW6t63LW+3D9KwsZmg0JZU9OGPtJbrPSMdpArNqa8X/XvxWH379dYrL3tDrFjYbpy4Ad/gUh/q777933cHZtvSSMTTKXPBdd93V57fVjkoJb6TDU6hfTFarHjhn4ID2h77AhQ+PKqLLHacAILQ9DsuLcmpOlixkhGDEiGF6l6/6rnVjhnoRLYwuJIqPcIYTLCMj1V559WWPP2H8BJ+77qkqTXZfoDwMDR9y6CE+3WbKL7+quOIS4YeewkIcngKM5zLHK8WKdFh9wGFCfjNHMwJG2po3ay7eaexbYjHlhAVmGMmLFy60xfMXSL/TF51oaVnplpyRaRUyVLNSEu2jd9+wOx942k47ebTtMnSIj87QSUCvno9KbAN8o/fsgAP2t5EjR7o8Y4ga+UfHAQ6/tzvYkQ5IFW34LgiqC6M0dB69oba74847pcPHuMO4bu0qd+QLC0pFu+jpJXb+eefb2XIoWBsALtdu3OA9guvWr1E+wTaAbkgXWQDvOOiGnGEHAnCNE3ucLhbsgR/vrZZhXS7abiE+oucfGnYQqqGnQLv/OVArhShWpXDryhgEiHqCIgy9dAxtsTkpXavvv/euzZ01Rx5jnn3z0bs+UboE7yOWDj0k/GBJOBMxLxs3zj/QRcwESoZ0EayPPf6YnXfueT4njx4aJpZjBPqcDBH1BRdeYBeK4DAEMCiYUNu+Qy/be5edrCR3jYTFGimdNEvLYDf6Ijc0TcYQXv25auATL77G1s5ZrPKVWW7uYmvfuqELRGqFx3fxhRd5T9AGKeHvZMx16dJNRuFqt9ApB54sTH3DjTe48XL0scfYrrvsbNN/my6vuEReQ5qvJD391FPt+utvtt9/n23NWzYRQ6+SYZlrH33wqQschDsGMEyHYGBhAwokJTlNuC10xkTIME9sxM672aPPvWaXXnCxNWnezOZJsTJ/oUz80r5rZzthrwPsyJNG2fDhO1iivPpJP/xiBxx1vO27157Wr09vnyD8948+suyUBJv+y4/yAodaw8YNfWXbylWr3HMfc+pJvpBiw4ZNYqRky9+yQUr6aPvwg8/s4EMO9lW8GNwzZ830lZX0lKDIwAkKt0LlSZeBitK4U8zGnMtThYN77rnX58HQQzFz1izvEbnv3r9ZiYwN2rNGRsEYCb9xl15qJ5002tsUxpn880928aWX2EAZh1KnUpIShPFp1jinmd133z120aXn2Hvvv2aNmjSXgJ9m/foOkse1lwTGZqdHDFCEILBm1WoXQKmZDe2oQ/ez994+WUx6ovVs28Kmz5hhG4or7J1XbvaV56lpLLWHqauE6+a+uIVV4x998qnvZzdj1u92yGFHWO/efYNAFw0z8sKF0Ke37uQTR9uIQT3sCxlMSanpPg+lg5walMluu+3mQzw4PcxdYS5gS3mECLmHMzLcieklw/CnqbOtMrWF9erS0Sqr49RWTawof74lykhOqGHT43hLSsmwRvIkk/WMUnjl5Vds/tylMnIKbebv36gs62yjBFmjhh0lZBKtgXAXL4civibRWJ06cf5Si8PyE00nSUghhOlJe/ThJ+248y+XhzvLOrbOcAXK0Mle8mYbig1ZAXnSySdb914dbePadd77dVrfvuINeqoc5T70tMfue9iBBx3kC3NYTc8ctRl/LLOdhw+1gd1Ut0HN7Yorx9vQnQ+RQ5Vmv/z4jQT9vs4H559/np1xxljn97YtmtvXX38lQ/Fg69Cpg2h2pe20/1EqL7JJ/0kHZMgoRpEVFpeLt1Pt5eefs9lfZlrRlvU2bfY8b0eURXm5HC01VlVNWGCTk03PaxiSg0YBNw50seqOyfO333G76PoXd/zWrMmzP35fYB9Kxm0qjPf5kKxKpWemolyGfIzm+B8bIZpLBpTKoIS+kS99+vTx3iV6DZniwMgC/BQBSppeyPTUDFtfkusnF6G04I3q4s0+zSU9VQ6tcjpABt70qTPs+FGj3KnA2v78m2/t0qtvtoFd2luxeC1TdJ1g4tW4RDv80KPs729/asefeJz16d/PlueuFF3PtJtvutkNTgx1FByL1qgIhtCTTz3lvM08sFkzZ1pZpfnWSMzjRRfUQY1l52T6MHlifJYUX6loU46KnMNkKfs0GfHLlB8Qr9+t23S0iy66xHbcaZh4pVzOxEzhqdy2bGIbIdApOpcCoheRM32LJYMwAJE5DFsyVQGli8LFQfrxh5/sgQfut/aSM+za8Nrrr9uJJ5wggylTNB6GnVkZvXz5cpdpGBj0alJu9NTBotdbb7/Tbhp3jhWoHBVWoPbKtPwS2tajO8Dr0CmLJNiWBv6NHF3SwfGH3lH2DIXTw4/hzPSCBx98wL788gsrr9ziC3bY/7Fcui4pMVt6YrktWjjPBu0gfSZnJSszRU7PdF8EMGLnYb6jghubOCS6oyuZLsPCIeZ7oi9n/j7X9t53f9d5kHJOg2xv15Q0dgyY5I7haaeN8XcxcnUA17Ql8+/ZFYCys68pOxpAs2yLhQw78MADPPzX30z0ueNrJV/TJe9K1TY4KvQgpko/9BNt0dv42V79RXsJ9v3kaT4vFgMLR8ut+HpwySUXq+0erHXyWMxIuE6dOvoIRKtWLdzAg38T8KyF6aLCYunSGtW9kR2w/4H2+GOP+xAuc4Upc2V1ifMgQ7joL7bhYm/EVq1bqN02yZj9xlo3ayVZvF5ps11TufccMoRO8YKTBK6Dw8Fc8rPPHutTwOhBXLRoseTB73bJpafL6eppCxYtlC7qLr0eHAvqzdQ32qE+/fynQO3WK0hR2bcqJJcqrsJDaFTkt99mCfnNrHHTLNt1991knFRJ0cyz7t072RWXXWxduvW2Nm3bW9vWrRQxeKx4S507dbasnGxbzd5e+qPH6yAxGD1FbKsBA/WQ97xYwo9tRjAYvpKgZ+Il+/YgzLp07uLCGeHHfKqTTztVzJZhmakJNn/VenngB1p1WaGs1ipbt3GztevWxzqLUNp3aG9dB3WzuTOmWJNGzeykU85w5c68jw4dO/oQGoxTWFDg8yBYUUzvGNseMGwII1APlAFWfx+Vl1V2DC0xB2DADgOsdctWEoBt3Lvs37+viLXGhWKPnr3sqquvsRbNWrjXgNDEbkYAbd6S793OrOxKSpZgzEy0jfmsyquxXYYMsmx5doOHD7fFK1f7UMMV4y61BtkZ1qVXf+vQoZ0NV/kbZmbbgt9nCkepdujRx9hRx54gZo+zAb07W5+uHeSBzZUhXmhHjzrRzrtkvFXHJ4n5U52h8taq/HvsakwKbtqwqw0Z2k8MQk9Jojz6Xa1jh45S6Et9TthYETpCEkMUzxYjw4cuxEjsO0jv36aNmySYRrhCQxiyhQbDRUx8PXn0aB8OSxQDfv/jDzZy333dAOw/YIDwEvZEo5fiJBmAOytvhuRZxcU+b8z5ixMtNW6aY7vvtYvNmzdXRlOxaOgYeefnW8OGjR3XCPkhO+3oAhijiBVrTWSotWrTzjq2aWH777WHbS4qt1XLF1u/Af3s4suvta5tpbBVJiZkI2CoFxzKKs2hw4YJdwWqW4kdKQP4bCk/FuUk0T0PPYih4+Iqbdb0SVae3tfGHDfSpv7ynfhiLzt5jGhTBhm9RAyJ0HOyMjfXlT5zhVCk7HuH4Qi+6DFkRfZxx59gnbv2srYtm1mvrq1t9drVMnnT1U47W0pCmfiyzBYtz7V2Xfr4isLddx6icpgvBqF384TRR9lOg3cTnVYIX2m2YX2R9ew+UDhIsTgJ4xWr5cW2bG1Dew+w5KoS27QlzyoTkqR0h0v4NbYddhlmGzats5WLVtvIvQ+0q669RgZnuiUqveHDRlh+UanNnzPbtyY47YJzbdf+g32lYnySfEXRHU4AdN67Vy9r07q1lPhc0XyZHXH04TZq1FFWWVohoTjYOnXuYX/M/UPlW23HHH2knX7aWVJ+YRI8yoXVxAsXzhXej7Kx51/q7V+8cbU1a9fV2rXvoBpXyHCrsvUyDvqrLRs3zLL5y1baODkkq5cusEzh9oyzzvbRhBoZeIwiLF6Ua6eceaLNkzG7cdMa22333V2wI3vgb/4QzvT2sVgLmYWTs07eP+lceeWVyruN6rPF8laX2X4H7KG6VgnXdRIdGZGrdmb+FkqHBKEraBJDG2MEIx+80OaMjBQVlroCiU8qlyzNFV+PkEFvctLSZJCU2IBdhluT1GzvmV27YbkVFSTaPvvsIR6J82G8tTJEmd/I8Otl4y+XYbGz5UgelBblW4rK0LOPeCwu2Zo3bSHDfXfRi2h29iw3NuEfthDBmMR48R5r0SS9TGxnAm5Y7YoMwHhvLANixx2HuIET5k0CcVKUKvv8xeJJ5kZXeW8eve7Uq0FWhsrOyEW8z+GqSqjwoba27TqKZxdJISfamWee4fTCPmoDduhtv6uN9tr9cGvRsrF4fYOt37DKyktSbOR++0j2tfIe8TThB1mAHGE+Ie/gZfZQo+d58CDJK/2OnDNwTs/nEUce4UYpTgpygl7XbOXLyEuLpg2tUU6WNWrf2zq1bOjOXJz4I+rdwxDGuNx9j90lzzJ96xPmkTN/8/ff/5AuE1927eYdCPTmYMzvueceaqchnhc8ntMg3WmpdYuO1rRpK+veo6MtWTLXTjl5jA8vzpr1m/Xq3cPWb8wTnhNd9vu0JMlaLmjssMMOs53UbouUHrL8hBNPsDPOHGurRQu77TpcRmSxdNo62/+gA5VvnC1VOd5+6y13QFkVXh+o98MPPezTrKI58+edf75vY8WUBgxqRrmYr8wQ5hVXXGktmVcsPh/Qu6vNkRG5Q5/+kledrVxl22HgTtZe9DJn4XzLVviLLrrQevTo5sZ69+7dPE+hMrCM2qX/gP4+73LhwkVety5dOttZZ51lA5EDK3LlQJbbvvvsp/jSmfnrVK+V0i/txAP7WZbKVSqDHF7DoCYtVp4nJIoPV66ytNRGcmzaqw32sbWrN7gz2qplC7v00stUzyrbWfJOqsay0ltJ//XXM7jBlaLhKaf/5+VCBmDY/qF2Zm9cDO0DDtrXRzlX5262nl2llzs1dHz7NIdYXBIKN/77z4C4vLw8pJaAuSJ0nYZn/y3LvaY6ToYWvTpS9EkStvqSaJmOmoT4cj1XWlVcmpVXIfRlclWWe6XxnEmFUzC8y1uIC/ewESxdtRgTMO3xxx3vngFbYxx5xBG2eMkSJ7AwLBKQzsWQcrkUdFVZsbVtkGgrS1LFmPFWU7DBctLirFRliEtraekyZKqqy6xI5U2SJxBXlaR8UdSkU+1eO2VAIMCMeD2APvn7MOxS10jM3XICEFCPaGFCGA5N9D2DANJh2DUC6hsMJRZlYAAj/MgrQcTC/D6ErDxlhalU2TPYjb6sRKo9yUrjwhBGspSWvlpVSgMpg0QxdIWlqE0wOKri5Zmr/tUccC5mTVZMhoFVKRl4yVKMuqsRyJP90Xyek377IdZxmxWnucrALCF6jxJVn1QvK3UkDvlj6NLTSW8kAhI8MBwLAzCnAfyBC9onwhFKgffU3Vc0ixFQJKTDEDxhwTMGJOkzYZ7Na+OE1/zCAgn01ECCipORKfxVMz+LtGkXGVu6SAdhy/AT22x4j0Osyagzv1NloFWWS1haSjhxReWoiE+zpIoCF+bMbSKOXoMUV3IIQeiE+nMOMz2yTO7PyhDNqOkqquMtJa7EXn36Rnt/Zkt7+6lxVl6QK+cwXfQZ9o6kfq5AhQOUPnMcqQ7AOwABDn2AM8pSHS9hJX7LUtqUpbgmx2qEj/iqTZYUL4+WtOPY0qTc0lOqfe4aeKC3uCauUDTOHD/lmYT3m2zJ8U1FbxssRUZXqUJuTMm2BiYJJyUaF6f2kwOQnt7QLH+zFTFETjtXhQ1YOdkAwzEenMrrhedgCeaj1KhNLb/ET0io0aUiOw84fesbPWTwGFxA3UFtpYxFNrkuh/fBhO7h9Bt57olh0rVKTrV1h4eqvM1EsJZcvtlKE2U4yKCsklPnRolom2kjCWVbrCIx00prUi29Um2qOlTFaJCFKvBbaTGbkadbRZVkQk2RO6/MRwztI4NAwb2MypMyMiWAtofHvf3iJNNkMCemiG4rmkoxcBrPRqWN0RPaknaM5AbDY7Q1PMG8JIb+XEaIZwLvKz/PW/HFh5YgA6QyR7I10bYU5llmggx04bxUxlBWdbIlqU6WIpqobCKniaFh5kwx9BfKRxGgu+KKatGF+FA4crdd5WZIzPGptqxUOZhfxdxPcOebXavMLPihrKANvvceErU7xizfAfJBMTNlwelD32ir/C1SuGlZliT6qY4rt9JKhsdFV8lpVrpFdKtwcXGp1qBRE9tcusFpPq4mS2mDBPgdwwsjk70rwxSElITWKmOJVVYXugFZsIm5UMJVfJjHTXvUyRpVXuVgrh+49vI6EYk2FRbwYXq945frH12hbeOs2Of+plqy5K5cP1sf19AylW+1FHm8ZKEnQVySVHicGvJh5wjwxxQeX3ijADz7CI7uGFa0OQ4E+Tkdiaeoa1xNmoy4Gjfsq6qKvbeZLZagMeRlsowjOjf8DPNaXRLu0CgyF8DochwIH4x4xtWUWZWc5BTxeVxSghzGtZYm/XT99df57gw4GczRjIDpOrvttqt9+OFHMq5b+Dtol44JppyAS+dfxyVTa0R70jtMPUmsKLSElHSVgdWvMpxFxxwxl4hxKkwjmWLI08WG4mW1PekAbYO8gQfDYgz0B20jmlPd2YJGStFYRc8Cy4rKQvGd5JDST05iLrncX7WdbzytOLShL3wUPVXLuaiuzJA9skptkGZVFUobDpGuTUiUvhbfVUsixicVWXlhU0vPFB0XrFcZwCt8gG4NF/hHlwG0cXRHBFLL6grJ0+oMCUBkKvQV6huu/zyoZ+yBwoi4gGDshbEahDGGmgQWDVgloaE/juiJYzf0ONVeREdI9pKjznERMYpJnMn0yB3CgUAQggzxskACD9K3KREz4O1dfsW18tRWBOFJfkoHJLsRQkMojZTqEiuKZ7hCTCiPP0llMRFfpQzPpGopPBFTObJQgoR5BjQAaUWCAgLjghG9XHqvf7H6bg3hG1fADwxNXMrndRSQnwtz0ogBceqg/nOI40aXLuZPMXTBXk+SylYmZGHiESpeRMyO81XxqZ4/Apw6uwAQcWOiV8kAEWIVLoZfcCRcenX0H3jz9/oNeD0kPOOqcxQOppZAYs6l6kV1ImOPBBQzpBe7HA9O1OAjpBe9jyAy9jyO/sgv+u5l0YUwIQ/SYuELE52DoQXLKa5w4go5AYNTZdBv/vSgEKEmGAW0XW35FAYgK88vlq8woxSDwc4zPUakE3nu+rd94Ds3/dFWGH9VUsRpSWX28tO32UdT0u2NZ6620sJVwmeayh54AIFI2YKQ39rYq48nwPGh0olhYBXRdaneSYGpvXFQoGtxi2iEmajKAxJkEU9tXdVW4su4aob5BGpX/SdawBESFdVUShhj5KaKXPS+Ohj35bS3jKZUlbVMxhZlTor1dAZ8yCgSLzMcispnqDFMKJfVx3sJZWpCUAywyAigPQC1jOMXWg1YEe6YexZrF4w95pWxkIr8XBF6xl5B8TlOkgzO8kLhIskNX05f8BBKF5qg5xG+kAq0ZDl3QrrjzpPx4RTygo8w6qQ8ffkD+Up+eT2pL+1PhIDLIKPq0bzCOR3JOGH+b1wC2ICWwLZj3ONAy9xJt/7l32PfwHFo//De5avKZdVyFPxZvI4jp78KKew00ZpMIYlW5am8pW5VP5yJEMbTV/mpk0qkdIgfcMAOClHZ2aKJfAnH6AVlZ5gqlEUQqyv8RhzukeL1nPTblR7pRjjSXdXSC2hbfzJmwDlVQ5ZQjjgC1DDmInC86Wc1cgx+QqEHWnFQXDWx6pslY48hZcIrpnAjYtFziE8GteVW3kDE9/8UYuX3ix9Ki7iUEN1XZOnSHSXiG+HC5/FRR9VVf+ChNt9tgPe0Av9ok2C8EFfyjDhefr5TTiwFaI85YuCH+sB/QRZGR26pCLoIB/55Du0QAcaeg3BNW4HPKulUTk1hsRVHsC1asMBHxNiInvnybDUUAfqWkTL2O8UQpM0jiGT0tuCyU+HYN5Nn5JPXSxfh2d82jAiGctfB1mn5ylWFJUykh2uNPekF1wOOI2iRNOG3SM4H+vV0nNADbjDeA8/rFXvfyQGmfTH+yAv5RY9pmD+IdCqWsZajOjDFSLQFLdXiu+6KYGt8BBllNbLYJV8svm5KBnn+p8LWxl5UISfOqNihwhAzZ8JyfIpQqyAYgxh2es93RxSIBQ1CVIwYQRhhnGUgZsWncemipoHY1oAtSvCCGAJjeJeJmsyjw5hSAh4XAOE8BcKiwZSnfjPC5m2t/N1zV/ldIPGSPPXsEJWVK8aUlK+2IZ14ubYGvgcBFwkniCsWX3nwFxErYSMiqU3XIXqu+wZWSNeJWmkxFMsqSWxTZyTSCjVWNDxa4U751hKitxPpBYM6tJF+kU4sb8oGeH6xd6Es1AXG0U2XC3pvwxA2qgvg+VFP3R0P+rYt1KWttFAYXk798AR5G77zP4YnXqq3i15EXjkCLwoU1VFFqv0N+J33+os8O38fKx9QW1e/e3TdQ28NdSQv8O1J8Ue0WNxaiNFCXZrQusSEhEJifInlLplhv6/ItBGD21oSPdzyQuNklLiHr3pFxl6tIRSVaRuIygeQE8rdy6uy8s25CD7jnb5SLqdD1ZcIgaekONxIEMhwp8iYWQRRzvquvBHU+gMPXhYPrVC6gXV6qhL1g8UceNtuIEXtpPzg1dCuKBfoNtZWAqcbMqMupK0rxCFP1UnxAFAa6IfagNtAI97OtZcHVVgZh2ontp3BuEMWo4RRAtA9KPCFYFJ2GMvIgyjvOD6GVHSRN4mC14BHz5e/GM1Eii7EJ5b/F8oTq5cbMjK+yNvPn3UI8RwfjqfA+56m0394dnzEwpAUeQBhBTlpBceMjEjRU9U3Ri28Db3K9GorDeoWlU0XgcEVqTheHbceRN+JGN4jt4FQrjoHl+9KKdyVjuOCS5/c4RP4ey+E//T0IvlAEn6JirxM4NQDRh9isghZRbJqv1AUjDvqF3jDaVjx2bsMXIfVo1wo5+g5VoBaAH//NYjkBTzkKVI3JUuZcavipOPAAbQb1S+Ejz1sB/xb7KrFlSDCMe/qICoz70lTvxXGDUP98vYFDy43qDtQl3eUltNleAq05cZilXg42XepoMeRESwMK4x2DLqwKwR5BKOKjehZVMeUqYAHEKFL3+tyrA+xvNV2UKpTq8L6VQ8cHyGop+t/nnZ4F9kBrnOEq1r5ECuXG9ieJPEoSyysXwpLOmTLTWnV0WYoRw2dH+4c0BNJwBAm6g2lKNVyjJjbHKQf8UhAF/9q8/JEA4SkA3i7CZBFtJ87JhEoTm3Yv8Lj/29gG2Mv3EEu/8dEYnhJscWQPnwkJOAJ+QRNXqvhPKQ3BESgmM5BITaN6CnqHlXfG1wEDpEzRMgmjkm6s0LSCddDCSKE6+6MIHBiEiDUw2fmVNFwIpaKcr3TS8pZj4iii/deLl1B8MXSdwjhQ+a1JfAozri847WiEAuG9LRiL+qn7/FigmV7EOogHCgMwcFdEBKU00PUJuVKBIUQE4j1LwfCqHz8IiqMEdInvifuv6N3nnDsFqURPCOviacR1YVbVC4yqp+OnvzuUO+RNCMGJMVYFrXgxn/MuwOgFXDlaZNQ7H1UnvAIXQWIGJ/foZwhjShseMV/IU0APPtqTpWLoVZ6SB0oYyy9rQBGlqKiRyMIJ4a3KTtRSiw5vsIqklpZeWGeJaAgWCTCggilA53SHm6Yc1HWemXZFqL33GuFmuM8AHUJBhs/QjlR8H6P0tUFBvy1+JJ0In4O9CPQuxCWf0G4R3nB0RgxKO1qNxxRNBKW3gMU66WM0Sj1g2+JT3p1+IulHysvipzXxKP0hAgKUG2otgg0gPMn4xL6Iy0vC5HgDcqiSKToBgBtEgyuQC+BFpR0LN9w957b7YCXzMsT4kTljvL2FEIyAh5i37YBotcLqLJghIXfnr/utTgJgbcOE1UqkjfbAceC4zukE8OKpx9KFvLwFL38tHMdTwGev4B8o7yjd8F5oaz6Iw/e6XJ8ArpHMoXciOdx9S/gPrRjHd5VJ8IQWnd/W/st3PnOO34Sxg0a0QHfnRb0FwxgfY+IdzvgtCc6iccBDjn9yxDJZI/n5eBXwEH0LarnVlBbF79tnS+PfNAV4YkLmUP7cd8eeDb6z+svXPtdiWHkgRd2bOAdbx3Ig7QpHOXjtx6IG+lG8OfPXpxYm3gcHrfmX3DOs+8A4PxNWE8mBrF8/hF41erqx5PTh/5Cnv5/oLFY4l4nhfH8nPbCtwgPjgtSiiXraRE2Fq4O9EVxXC7UA95FEPAX5KGXY5v42wfCRWX/KyBA7PGvwPP+z4E/SRsK5wja3qXahSsWziscu9Ro0XOEI26um/xdvYs/D4rCCUTmw7+6PLj/H8qh/2Lv/gyOSA8SiMPTiYilXrkj8DTIOIJ63+oDafEpungDRDGju3+LvocgW6f/jyAUxsvscfw3OUcQcFQHdV9CqOgKtxDUMevpOZ5juPW/2neEjF0hkt/rUg8QfeLIOJ9/qcrW4ZMS6B4e/Qpv+AHUfa//NoKtygPd8K5e+bhCqDqI0ojehXapB/XK5zn6vR4oov/We1IOoWqsIL/A5w4yB5D5Sm7AOxA6ToIwyZgEDyHj3DAvBLyyl1NZWYHjJyVV8eLZSgh2IpwEtRswDPXHtnXwOoU7UxjozWTjX++9joGHia56QHnr/4U3MSBt3RDWzF3hnsAQrf6cV6mGLvRN6I0JNQPotWNVNvO2mPtYpnL5sK0cLoy8cAWHjLCV8rrD0J5AifA+0EOUZpSycq+tQwzXCkf+zAnC2GZ+EhfzuHyeoysIgf7zJ/0LJk6khMApTiHzZNnvDEXIdNdAmw5+jz1vAyGN2KU//tWCovwpKuWvH+ZPwMdwBT6LXdCA7rVXFC72LdQnXLXftnfFboGmQ9FQ5zFb3+9e3Njd9/Dz33oRu/y9v+OnyolijfGbp0na/HkevIjeE4BohCWyR6kFkue/rXAau/RfCOP/ecDaK/pSL1jtl9r4fwF8Yy4ZC7qQ7/yGfugoCJX8FyFkGMuT59gdiH3zqz54+tHLGHJit/Atwn391/pfv+nZZ34fR7zVLW75M1CeYMByeen0Nqb7SKpeBtE7BzUWvyPqqn32etVSnAcNDRvi8g5nlKlTnp5/0QeC1F5KW/d/eClYKG30p9/6L5Ql9hcSr0tX4O+49DuivxgWvdx/ujwwECVSG7r2d7gEUdq6iBsZerXvAb9HL+pdhNW/+ilu/9L/f3659fUfBkicrcCZPnb3v6gh9BpTzOuhVg738NsFma7wO4awGIRw+i92cXMxpw80gnt3pIuBpouMPKgnHCAqQ0is/hXeo4QAFkzwOng6Ubn1JroEnrby5QpJhPcOHi72XA+iIOFWFyCGhXr//+vg5As+HCfhz/Opl4wXx9+Ruot6f88t9lr38BdLyC+/UcfIANd3/q8FD8C/8Da6kwzpOigeE2KZcI9CZv+mCJ+1OPXQsav2Xeym/9yzrPd+K6hXBsoaFSGUJfauPkRp+PvYt1g+PGxbNg/t3wJEdeSVp60H9nhjJSh7rkEz7INHb7OHi6XJpqBswAwuojLJ7BBuZawkJitVUa97xVyx73r2SeAyuljaTxgMPIyjaMsNFrlk5+QIv2x6HMpUe/mbrYF38IkDlaAeujsV647RygRstjtwB0qhieXzo7jTFNEFWmIXC6RYgMT+Xuz3JlvOedK3A0lmiyAmpYetiOAveNa34ZHRxYKbqM6xYtRCHb6FRww5NzRrHC/RgeTRJqkhjRAZvMf+CSKDSHfVgxMlWBXJeZsYpgCT5SOIsifv+n8hDf0fwy8/w/sATjPbgdq6/Ql4X+8Svuv/dprYzru63zwTRr/+4qJEfnnRwEr0p1/R99gdVxfpQER/Vy8+30Ki3OrqT0qRU0wmfvMYAeo/R3HqoC6duvfUMfxFH/zP89SvWLjoDpBHwH3IK8TdPtDOHFfFIjF4tFJ35BLTfeCtfxUiHIRybF2o6NufIZQzhiq/QpnDFf2ueyO86z/agZ6ztIx0X7gS0ey24Hl6tqISysCTJxIY1n/7O3FyvUJ4GO66Ea82buxyKVAvvdqrXni/eENaEJGnGcL8d64geerSDu/5n2TDn4O+AdG7gN/wDERxgPrPsar7FQu69TsB4aO/6I3/ozyxfGtxvs3lNy+3nqI8/uIKpf1Hf/9ZgNT5E9QinismSrZ6Ry3ACrcYAjH0AgJRLjF8xMLUB0diLKzPA+IuwRgUkQhbEWuJJYT28H8FlJAd7z/64EM/lYFJmD7XB0HmzBLK/K8AaW1dz3BFX7dXCj7XhfmvAin+dd22gm3z8N9/zjdqD8cvd/7AX7330VUfguEQ8B+Vi730nn/hWbvh+hv1nFmrHLZ31QG/oZmw4uuvoLYMsWLo11Zl82/bAyW8vfy3vfRfLEIATy4WNyQdetjYNJY9FNkFnRXgTA5mbgsrBDmpY8SIXWzmjFm+Jx0JEDcY0VBnGOoEc/6KZ+Xh80T0zEH8q9esEd6YLxh6pug9XLp0qU+OnvMHO9+HXgpvK9LESIgK6xc//4yPUM9wB0iHjYBRghFE30gmxOd3eMdvtkBiaPu1118xjsv7+MMvZAAzbFttp4w50fr27e1H8vXqXXf17dfPli9fYVnZOb6xcpTFVhBplRg+QlnD1VTG9fx5c+3II4+wdes2+Fwi6CwYRwE8SYUFs8FfCTjGqOawcvYbmzJlih199DEy/jZ4HeqGoZROvPie+sZwyWMEQaaQFt95E8rFiRY+19Jpd3uV+scQ8g7XXwHfyFaF/Yfh/ttAlaJ0/VZXj6hstXI11i7R+yh41E7/CgpCvFh8Xf9liOVFdv8MOPWA46uOPPJIN/gw9EaPPtF75H3kIeZQ/DeabrtQZ1jx7891i/DkuPqLTOF3FhntsutuvmKYirps3G6ckEdEx3yvn0eIE2B77+pD1B51PEF68BAQ/o/e1cmbANum/Vd5/COI8qzL+5+D65Zt2u+/k862UBt/O21YP+3o0n9ehvp42O5Vv6D/fwJ1EtaBCkSV4I6pHzP3XXgjHBAVzJuJXfLUuRAh3rMHrqJLMeqDI1TSjjtCj0PPUZccXJwQl6L3sWEyp7+IWOsI1uPG4kcXw0t4+4N3GGiXXHSRn8Pqw8HbZl4fYg0WHusaMAKlvFUe4aori4ehkIrijc6/evEjqC3vP7pi6W8P/px3aK4QfvtxgNq5QX4Pz4QOhnVdnn7skdqOlXts2ZJUXaH2kMJTaAQcG10ffOhedtaZ5xv7jDLx9Z8RedSjClx//fX2yiuvxspbB9HPunLErm1wUr/efm2nzn8K8w+vrdNlCLWgcJMfD5WV2dAFTjR8iVBmo9QN6ze50efCmvx0iUp1JYp+WVFY48YdWww5tpU+v5lPWpS/xc455yJjyxJfyarIRSWlvnHp+eeca71795HBlREbdlXsGuZlkgnGSlW4e6rUMyq7Eqn3HNWFg77ZN5LVdxHoK/8RXFCXDs4VQA9Jueq4adMGn8z99/c+turK2Crz+Cop0xPszbfe9COboovzcVu1amP5W4qsqIANapkDBFUwpEuqpB0MJjZBFpaVJ72ceq18i0vKrbkMvjEnnWjVCcl+Fixz7HwIS1ckV0glSfhNZB5hXKLeJTt+mMfEHo+9evY2TpRg78toWJfNjj0d9iYkTswYdwQEJCiNoLqRT/AC+gURF/KoTyOx8P8i1MaL0fDWwG/xmG7UpyoeeScpqt8hXkSfW1+Az6X9L0JtWXTV53eegQRV/urLr7AHH3nYt9ChfOxb66spQyPW3rcLteXWFatv7e/tXtvWLbwjofry4h8Bcp4eYfawow0xpMaNG+/OE04bafif+I7v/xQoQ6zc9aEaeqatlE5iTZiy4LQhutu6ntvWKbpCesiIpIQkm/rT95ZfXG7ZchY5GUn/hbLqYlpDdP1vQygzqPnfz+v/4D8TgkRxEBG4gokpGVlLeMxMzvZvtdefwb+Ikrb/NQBLvQnAfCAAw44tP5DH1RiMTBKVcE9gDxxDWCuwBHeFbihW3z3FV79sDczbgNk5c7V7125WrvKyG/j2jL1KeYS+CtONyK2Z3JlBfwiLbT45MGHWK7Cdj4FxY3MFYVwY6q+YSq+ZZ0Kc7WTjijZ8AD962CYQcz+2Vz6AvF1hbgfC6jKe6kVGkQrbHGvElg5s8cEqJhYzVcbXWEpakjVukm5Nm7QUTunF2X7GKNpQKF0xXPALrxsgWw+zHWBYjx5YhPf2INrDcHsQDQNuCxSl/mrR7UPYB5DtLEB5vBQwizDYioZ6oGTBFwf1Ox8oHDWplmPCVh81PnlaRoqv+sJAxkxO0jfVR3RdWlZgFWqrotIKyy+t9K0xksRbbOR6qZQUx/ewTxVbudBTEYZ5yQOAB3nm3NQwebo+1BpG9UFlZT4Tw8LQcQThGUGv+iazPx1x+a06CnfsnfbZ559aXt4a+/33323jpvXi5SorLCqwho0a2KCBA31j7egaNnSE6KGZjKzNtjZvg/IlfYxSLtqZs2HxDKAnb3kric9wPHGxwTN4P+jA/axBk+ZupFaojaNefuQIq2/Zg7K6iraX8a2qVukdwDFSLVu28uHnli1b+KbF9RUYaIlLYKhc6bG1SyweIaK5gRg7+ihAZgXcJKdl+nYbXg74LgYc2L49AK+k5XnXu5Ax2wJ5l6Po9VScv8kq49j3U22LA6C39CYyZ9J//IsAj2Gg/xXQO/1nCGevVsnABzgxqTIpXriVFBDeQ2nqABpz2q9njPiK4nr4jiA4CNAUDRB7WQ/AfbRn2T8Fxad+2wK947xn9IY7G5f75ugRzrcpFrRY7Cdm/BnCaFKod31AHnIlJUE/oheMc4Xx/RuVfnQyR32IksDYZG9HyKtaFztSsH+f+X6ewm5EJyT0J9jeu/85oIzb6rz/g/+3IEhCB4gtEtpBgSVKECCUzjv/HBs/fpyfycfRZiNH7us7rF919dUudPfYYw+b9N0kFxYb1m+w119/3Q444ADfrZ3TKdjLh61VYOLjTzzBTj/zDDvgoP2tT5+uduB+e9vU6VOttKLECvI32h133mIdO3W2Bs1a26FHHGEfffKJSiIlK4H4/feTfJdtzh/lOvf88+3zb79By9mvv0yxg/bb3xYsX+be3s+TJ/shzi1adfLhrS+/+sonxdcXIsHbCQzAnTlIlHPq1Gl2wgkn+N5EHTp0sJdfeTkoCqGI3caPPuYYPzeza9eudtWVV9qmzZu8N5G0MTKi/bRuvOEGO/OMM/1kkCbN2ti+++xrr776igvptNQ0W7x4ifA63pq2aGtNdN12+22WuyqccYoA++TjT2z0iaOtdZt2tq9w/sOPP7jRzLE/L730oh188CHeHpxK8v133/twBm3wzdff2D6qe4+ePY2DnP/2t/u8fuwyzsHcx40aZU2btvbTPw484mgp4Dwv99tvvWHnnXe2nXr6Kb7j/6RJX9sbb76i8KOtujLJGjVqYvfcc4/169ffunXr7mcFTp8+Xa0TPO36MH7CBHvl9Xfs+huut3POPsd7y6Yp7MmnnGKDBg32s5DvvPNOW7xkcWxhQKW9+MKLduihh/p2ANT37bff8nSJy5F1nGXZuUtnP27v0Ucf9X2jUEgcoXTrrbd6e024fIJTMkeUAdDNuvXr7M677vSd3Nu2bWcXXnShlZdxtmG6t2mggcAKEU34pXf0Sv34w2TR8QGiy052znnn2YpVqxQ30WSH2XvvvWtHH3W0NWve0nYctrM99OgTMsjLbPGixdZ/8C42c+Yf1nenXa1YunetaOe8Cy7wk0oGS1FdeNElVlBSqm8V9uuUWXbAyEPs7jvvt52G7mi9enezG2+61tav59xpDM+YYREDerRuuukmtUVfP0f6088+9RXtHM7NBtrTpk2zq6+52tqIB5u2bOdH2jH/EoXrvQnCC3cWoJx/3oXWsWNnu+DCM0SnGBAVTmdr1+aJFpPd4I6u4pJC3Yssf3Oh9erVT+neZfvsvY/kQCffoX7BgkXiv2zbb+SB9oV4F81XFp8uI2ejDerXywqKy0Tjq+RINLEVazdagvD43LNPuVFJWbv37GPX33SLz5/MbJRlo48/VnTxig0cNMRGjTrOccHenCtWrLAbb7zJGjZoLMNG7VyFcQiOqu2Z5x6w88+/0G64/lZr3rK1H6302GNPWFpWlhRwja1avcxOOfUc69S1s763tUMOOdg++fQrKy2vEj0usgED+tn1113v53J/8MGH3pt02mmnWZ/e4QSTvffa24+YchzK+Al8D88HI4LhxhNEk43F8yeNHi0euFEy41hjS6hli+bZ4eIntkLhzFvkLmenfvH5F27wI6Muv/xy48QVZOspp4yxNWvWeJvXB2iB9psxc6afodpK9eRweNqZDetpv08++dTPneZ0B06keVEyg0U8HHDPdfetf7Ozzz3XjROOFLv6yqvEm4M83/ETxtuChQtcFgUHWPJRZUP2cEQVsow8OWnhNvEeuMBxAw/XXnutaHKgXyeffLKfRQqwWfPnn39u+0lOEw9+vPWWW4Xfhf69FoQWZCRndINH2uG4446zqaJp0mfu6MYNG22fffb2zgPqiyzhVJBevXtLhhzm+WAc0tO9w4Ad1I4fOA6Ql3fcfrvPAWSrJ+Z/PiZZ0rtXb2+vwUOH2wOPPGYVpYWWWFMu/TTSbpLeGzZ8uJ/3DF0+9thjrt+6detqe+y5h2TO5XJCCtx45AjFy6+40nqpLY468gj77efvLCE1C/dNUGnfffetnzXbtHUH16NPPfWkyrDWvwrF3qb/B/8H/xuwtbHnPXp1xhBnjiJU8uX9v/fe22KiQ+zTTz/xHhsUL8YODDhcjPDYo48phRr7+/t/dyXEUTbs48PZqo8//rhPpEWhI4QQ1BddeIF9P+lby26YYxdecom86mT74pvv7N3PJtq302bZho1rZLztaZO++Ej+eZnFSeE/+cQT1rV7D5sxa7bNnMWZenr31BPWqGEjS2YT1gp5y+mp9rGMyztvv8OF5pbNa/xsO848XbpsmRttkTKvDwgRzifcsiXfLrr4ItVpmBtxP/zwgxtPzz//vMJU2UMPPeSbQHO4Nid+0CvzqYQqk+9d2gO60wfEsAhn/x162OG2YO5sGz50iD14/72q20Yplgq7+96/+XFFv/7yveUuW+hH5Dzy8CMuwDiHj3Nud9t9NynQuTZs6DA/bocjoD7++CM/4xZBOvnHH+12CXhwjoHBEWSc53fHHXe4Arn22us8/BIZVZwOcNddd7uwWbtmhf38yy/WqlVre1Z1wwjgJIMPP/xUArGnzZw9xfc7BDD4EY4Yph9//LEflj5/wXwv07kyfji+B/JBKUAv4JiyH3HoATZBRt+9f7vXFi1ebOPHjXe8Y/DOmDHD3nv3XR/SBKZNm+qK6sQTT5QjsdAPx+asXXqr3nnnHftFZcWJmDVrlj333HMyYPUtOZzVC2AIz5nzh5/nCP6iXg/KQ7qc9fmdDGLmpmVkZHi5izjPmd5N2ktkDw0kCAcYmH4lF0oRbrHXX/3Qbr/pOftt2jzRxHK75OIzrUQWxg+Tv1edrrODDzra1q9bIefnHHvu+aeEz9etQ6ce9sv3E63foBG2aO4cGQHlduyJJ9uCeQttodrzk08+tkXz59upp50pZZBhRYX5tli/UbrQ78UXX2gPPviynKjv3AiApkAy/1POBx980L784gsZ79/Ym2+8afPmzZcBuMF7ujZt2mx3qv3Bww/ff2c//fCN99o9/fTTrrAx2mgH0hHDy1k42LKzc+yUMcdbdoPQk5makm6rcle5cqLNo+sTXRjfSsBL8/77H9j7H7yvNnrN2xC6bNCokRzAPe2Tz79WiHg/Bebrid9b+07d3JBo0byZNc+Js6LSMpsu+fGdHLZHHnnYFfMd4tu33nrXfhRdw9/Nmja2Bx962B5+9HF74YXnfR9OHC3mV6Lk6aUPK4ZjBheuYVyh6GS2NWnSwpYvXWbXXHOV+Pcl++rLSbZ5yzo5BldZp46DVN5fxVvTZJiOtBOPP8nTKi4qkJHArv0VNl/tgbP68ksv+xnY0OycP+bIkdrHHlZ5/Xgsp/voCqet3CjjDgdzzcrF7iS89PJLli6awyDK37JZhl7APZ2OxCFytCr5rrvucuPyrrvv8mPBGjdu5M4i4HRKeAH0zVncF198sfdE/vjj96Lxn4TP6XbLLbdI1lZ4e59+2un2k95zxvgTjz/hfER6nNt8/vjz7IqrrnTcXX3V1TKaOf5snp/93aRxE7vrzrv8WC560gBGFYAXXnjBjjrqSD+XGaNxtmhr7pw5XqfDZGjN0TOykTNL99xzTznEVzk+kb/QB/wIH38sZ/bXX39VmaaoXtBiqBsAPq6++mpLVT1/++03N/AxsHHooGGmVTDNgs3Yp/w6xV57/TV7RWWBz88660yXEcVy3HHeoed3JUOelGH1lZz+Tz/9zHUSIwo4STj3GId5q5fL+HpajuFd9vvs38V3ZZYqfbJCfPDBhx+pzR+RnPnR5RF6gLm3HDf2wvOvCG8LnB9uuulmWy1n5jfhcJwM5h/EP+g21E2xZP0VE66w/fc7wDasXiGH4jrx7huizRfUXoEX/w/+D/63oJ6xJ0Jj407cPP+JLxIMPwTreeeda23btpawbi9P+BA/1uzwww93gxDjgXlPMBaTzh944AHbZddd5Km3sZ132dl7nuiJQRgg0I9QXM5Jzc7MtNtvuU1MW2PFpRViikSbPWuJff/DZDFxqZ099gx78IH7ZDSpWDKqnnn6KSnU6xUuxXsuPvroYxlzW5Qvh3+nWxMZQk1bNrfHHnnURu6zj5cT44feIoTOt99+W7sacnuAIGWTZzz4KyWg8Cz7yTu9Tkz51JNP+SR9eiW+nTjRPUtWcuIVnifDAY+ZXqBw0SNktm7tWhs+Ymc7TPVt0rSpXXDBhVZYXGSVVTU+wTx35QoXGpwPyRYeF+r7Bx9+YLm5K+23Gb/5OYinnHyKGzxXXnmFfSSBw6HbKPrDDz/CjT2OGqNN6N36VsYzBkzexkIXqhjWnC+MwYBAZ6Xmc88/514qwy4oyYXy3jksu1KCM1mFbtuqmV02bpwMomzVr4UbP4kJaVauNnrxxZc8XXpy6Zk85ZRTrJEU+48/TvYVrQBGBBP3maOCwGZbE2Q4vXAoOzz5LnIScmRcfPXV1/bFl194b/Bnn32udHe3Y44+2o8EwrD87rtJqu96O1jtiFHbd8AA752aOnWqbSooc2GLsU0G9KDQs9WmdRtXfvRIAMxJQ0mjuFq3aW0N5RiMOnaU0v5O+W70MDghHLAdNvOMGX9c1Uz8TrAnnrrfBu7YWYZ2hj39yBM2/ZepyjvXvpbhs/fI3e2Ek46x5PhUO2TkUXbP7XfKkPvA4pPkUCRVGZvkJ5Wut9VL59iqknh74dXXLSszXcZGe3vh6cds3h+zraQGR6XMOom/xo2b4L2q9Da1a5fh+0fSjvQW+wICXZTtnXfedqXbvFlz696ju5ynCx3Py6RQ//jjd6/zFVdcbg0aNvReM4z/byZ+48Og0b5a4AnjiH31qH9BUb5wgAFT421Ir9buex9oo08500affIaNOeUMGaen+3Ad0zA4d/X1195wHHI+MudGrstbZ4sXzrMTTzjOPvniR1u/drM1iy+wZ199x0aderZtXrfWijdtEC3WuLG+ww6DRVPPWfsOHWyBjCssIFVRjpfoeNE8GVTlNuq4E5T+bjKYRUcylgrkfJaVllg1cysxPOWMiLhUbnpATQZrkrVs0drGnnWu6DzJ+vfvZ6ecdqI9/+LT1rRha7vj5ofsovGnyKBpaSUFlVLCxZYsei8tq7CcnGw3Do4+6ig3Kvh91dVX2eMyFFhIMnv2bMcdhnCeeNGRLoicxykyXjKzwjnfvDtx9Il25RVX+RnS3uuv8vpG1VLuXO4kKhxh6Rl7+eWXva2G7DjEz1R+5qXXfaQCo4uwGIQANEtbzp49V07tFU7XjRo3diMH45JpEziaH0qeMKf59LHn+1nKvXv3dgMqTbjnyMOWkj3I7iLJhivlHHPWK0b06Wec7gfpQz8+aqGLFd/UDcfv088+c0ON3rJ333nXOssxxNCdIbn12muv+TnZfZQXspGztuFVRmPeevst69O3j49CfC9HBHmGcxcM9rohYpwTysvoSEPJuH79+rnjSM9Z5IxFfEpPX+6q9fa15Amrxvfdd6S98vIrPpRNW0ID99//gJ/djLNx8y0321Q5JgXC3wUXX+blbdmqpZ/NjFzGmU9jix+VI1/tts/e+0r25/g57eitV1971Xt4N0q3QA8NGmZ63dFt8N/jMqrT0jKsR7fu7pRWqt1RtQ/c/6AchZF27vkXepl2lY7EucGIRYf9H/wf/G9CPWMPQGAheGSs6BMCiDd+FiPz6vxbEGzRNxRGugwtF1ri03USLCeddJKv4ktPy7YWLVpJ2F3rR2JhYKCsYE5iM6+OeGXVlVZQWmwjdhpi4y48zS45d6y1atHB+gwcbNfeeocVlJRZUf4me/zhB61Xn37Wo1cfe+bZZ+y440f5ZHi6z/GyK6QYWOJOHjffdZ8EdXNn8OatOtnDDz/pQo9VXZFA2RYoHwL0jXc+sLT0bOvQsbs1ys6Woh/u5Vwr4+3+++7zYZedd9vbezePleHw3HPPenw/MSCGG+ZzpcgAQgDD6mTpfSFifCaYF0k4fPfjFBe+DD1wCH/v/oN9SwoA4RhAcfQ/aTeSl9+8RXMX5NfffIelZza0pi3a+SH6l4y/yqbJCMIwf+v1F235suXeK3jEEYfbOeec4wYD9fYhiP0PsEZNWtq5et+wQY7PIfThAxmqrEpkKCpDwirsYUW71wivQbiGuT0xgBb056cuSAFGgIBVML8ThhogWL3NayPrE9pb2VI2lBhhqCveOm3IfBwU3tIlS2zAgB2sodriKCnhadOneXx6eEAscVHAGEZ4/OAn5BUym/n7AjvwwANkALS0li1b2l4jD7KiwgIJ643Kh16ECtWbhRnVihXaUA/+zMHZnGNZXVMshVdqqcJJfhGGl9kmGS6ZmTnyjxTHKi0tqcaSVGWUDMebcQRWPPReXWYl+RtE47FNsWVg0YuKkUL6+iXjNM6ysuUwgC21Bdu60Nnh252QFgUVcoIxyhXDX6iip5uVneV7kfn8TL3r3buv9e/HQd85NmDwMJs1c6Yb1vQU+lxJEonF9bms+sPACa/jvLd4w9rltnbVUtu4Ltc2b1kv52qTaCDBy1ShdsIpdKORdqis8DIxz5AV8r367WAffPShbcxdYEtWrLI+O+xojXIyLDMjVc6ReF8G7qrcXBmGJ9lee+5lQ4cNs9dffU1OIPVIsWwZWmzz5CMMTpdeXKdBaJMLGnOajH0Dd8mcEet1gCb5QM0SXKFiHH7z9ee22977+bQEhtqmTZvsuKUn1HcEUAzwDs6hpSefeFKKu5tlNmjmvesrV6z0bxhcGB3gwiMBSofcIuCJXjYcNpcP8TIhOBVEDh88RzpO6/rOiAkyaqcRu/th+axUpm2+/v5n7y1jgUJOTk4sjnhKBhr59e7T2/roapDT2I2QNWvyPK1nnnnWaXrEiD2scU66O1CMquTqAmok0ypk8G3etNmdyyE7DbWdd97FOnXpaSOGj1B+GT4kTdtypcnYpb4XXHCBy6lhw3e39u3b2YUXXuCH/ZeIj+k1764yNGjQWA5PhqVmNLDps+bJ2N3oF50EOKAMp/7ww49eP9J0nQMeYwDeAhnqKda4hKVdIgD/tBm65oH77/LFROBir732tLvvubt2ygJ/xI2AZ/a4xIB95IH7fDiV+X+jjj3WfvzhO8cJZzFzlipbLiUx6iE6Q0YwQnHaqadZO9V7pAw32mWdnGtGTZDZLJLyIofSiwQliyTzkxXf8Ygzo4sy+TzW2OkLFeXBIPSYgXhr8R5dEVD+f+cijyid/4P/d6COu5w8RVAiRJ59pSbPrlC4UOBBidenEZSGGwsyCBF6Pbp3dyNi/rx5Eq75tl4KMTd3qd1y881+wD2bOHIRzxVMgvKVkkzJSJHnuMlGH3OMLZrzh3355cd24GFH20tvvWtr1uVZZWmRvfz8M/KU/mbz5s6z52Vg7SbPCOFCjw4CEKMjNTHdjdPrJlwmD1Re48JFtmrFQluyeL5dII+KPcOCURZv7NsVGbbUGaOhTZvWdvwxh0swrfVrbd5amz9nhvcE4a3OVb2Yt7ZsyTy75ZZb3Qh8S56ZD3EIL7BwjFV9jg7KV/LGmZUVmhzTwgq01NQM69Ojk82cMcOHbebNn69yLrKJ306UZ9nc2rVtJ9ytk3CT0FF5GVJ48IEH7Q953kyCvuXGq6Uziqy0aJNt2rDGqsoL7Y4773Th1FgGJvMMSfuqq652gTT5p8k2XUYSwysvvPiC0s5173zI4IFWqbQTpFCLJXAYXi4tLnFJS09JvIRVfALGFOk2siIpEXrTqHerlq28pxQDk3wjoP5cCH8EKr17CHR6BDB0wUmGFEmJ8smRsclFrwkCmJ5C5kHRC/nC889bXl6ePPFbbE8JcBTh51987vMkUV4zZbww9E2ZaFO8ZWiQK/Q+oUjibfCAXvLGX/NegTVrVlvB5rVKa50NHDhA9Qit5WdVeqkhcP5B5NQ/zvLWrhHdsBCoTM9r3ePftHmLNWvSWPd81ZOpAZWWlFAp3BVKsaMomIRvlpqc5LhKltEgG8QFPwA+CsGz6A+ngEURLEpo1LihG3lJiWmOfy9drcDH4MMYqbEM4YttHapEs1zrxSMYFDg85eKDdJ+3N8Vmz5ppc+f8ZutXL7Off/pJBm9zGRYyhlSOsL2EiqDLOYD8qnRVx9ma1WtV1zxvD3rgU30+qIwTtWdaarorQBaQVMtwcQMTulc99cIHBOgZ3He/vezzrz713vJhw4Zax3ZtZbBnglaLk7HbtkVTe+Thh9xBo+f2l59+tmeefsZaNm8h3MmgFe6ZV5UqI75GdSRipPhccem7t3WtQAptXqEyQhMMP0KrDRo2spW5a/VNyls8c+lll9ill15na9fQgz5VPHKJlRdt8XRJj/aClpApyIRXXn3Fzjv3XCvass7ee+89O3bUsW5UYWRCd14GKiXIlsHNtBd64jKEtw0bNnqvNo4kxkO8aKO6vFQIx4EK02TIh4n99Pwxl3XG1J9s9ZrlKnOulcpJyF0y3+epkiY8QHh6kliI1rxFY+8Boyfs999n2B9//OGrqxkpwFimJ3/WrKn26KOP+Fnk8H+aeK+U+YEqT7vmrYXv5tanb1+b/PNkmzjxa7W9aOXnn+2TTz7x+W6UDcDQgt+7du3iw7fr1q60Bx98yNN9SHemmID/999/33JXLZdcWm0b8nJt5bIFXv733vu7G0WMsPw2/Te78847bPDgwaLjSu8xxMB3B1GAo0ePJqNF5Av+4HWM4mDs4nCF+ZJMEcrMyLSXXnzJ3nn7HTvk0EPtWRm6s2fNUlsGWeULgWQY5jRq4b1v6AHSpY4DBw2SIzTLvv7maxvHNBDxFQuwwt4EcizUvly0MMPdtP3MGTOFq2/stltvs0bZaa73WrVq5fICZw8DGtmdu3a9p8JinIaNGtpqyZIKlUfUrfaXuVdd7lMmcCrgXyQnDgtljWg9XIgBlwa1938EW8fd+iIPALb5q0v/exhge2nUXbFA/wQiOfNXl/PSP7n0759f5PVXl/JBKHta2+S/1aVg2+b9p0thXMD/m9d289/m2l68ba/txdv2CpwVA7xoMOaCVCRKT48bfPod3f0RbAB6QNB5jx0CUgqsf99+9s5bb0sQ5NmSRYv9uuC88+2Zp572HhxXSGIGhCgELS6SMYGXXG7TZ0yzM846y/fx6tath+21974Kn+ppJ0kIMJ8mUeXAO//+u29t/LhxzsR4bwhnjLz84nw77LDDJXA+lFCZJIGbZatyV9s4hf120iQJm0IpQyagl3kcDA68X+ifodgOHTvK8JrnRiW9fEEIfGO33nqLD3d88cUX8pAnuJfav39/H9IkDea+BY2JSgRBMvb0v/cQKG0YGGOPstN70K1rD2dw5oggxNng9zMZX+whhlIfNHiQz4VhPgqG5K+/TnWlg2E1duxYH6ZAeGIQsqKSCcMIcozf00491cvEnBaGLullwdDKyWngJWM+Dh7oVwr/3NNPhdWQEvyWkOzDD1kZ6SIgmFzVYesMGXpNm2Vb27atfOI6w23MD2K4/o+5i3whiB/krbQBhAA/6CVasWK5ypTuc62glQcefMDWSzj/8P0PPhzdt08f77HYZZddbcXKlfbZp5+6IJ44caLde+/ffGgE3FAfhidXr1rtCmbDlmIfkqGnI0vx/XghXVBuoFHdJXjBP+378EMPe3uiMN584y077bQxtlaCF9qhlmG+KnGDI0Bjkkar1i3tzbdet+/l8UNfDz36mO2z9y7WR+Xu26+//Tr1F+HiRynBUpsydYbdccddtsvOw62BFG2ZjMAN6yTcq+Otc5de1r5FA7v/vrt94cPSpcvt7vsesFYy6uPKZfQJKkQbGZnpTi+sAvZyBVTGBCs/oKMa5THCbrrxRvHKMr/ef//vlitcZ0tpDtlxsA9/Pvrww274VUuZvvnmG3JObvLeGoZAMfa8gUmPzGXokR+Gnhtr6ZlWsCVf5V9nS5YsUnmX2IrlMkBWrFDapWqTLbqXiZfLxZuxnnpPJ/Q6Utbddxsqp2+WXX7dzXboASMtvlLxigqtqKTMe0erlU7Dhg1k4DaRkZTtSv+xhx+xWXJSiF8dM/ZSJF/UUKS+FQQ5FcpdBxyHV2k//PqTnLB35Aim2k8//+LDq+ecc7Yb7NlZyU5zzF38ddo04eUGRWMon2P0RC9yApmW4GVQfZBb0Ak9g/SAPSy8/i5azMzKcpqDrqMiwGv0qjHPr1C0xhxMZEZYcY7Bl2KrV0iOiPfWiA4+1zcMA76RHottLrroIh8iXbtmrX0qfmBhHEYN9SUvyoXMxQEi26clQ5Cn0AmL4U4/7TTvfbziiivcCMtWugyD4gQi85g/yEa/6ZJ3K0UzScqblaN33n23l2GDDEoMmcsuGyeDc6XTPZAveqBX+MILL3J5Cj/B14xMUD7OWN1vv/18yJSw8Cpy4txzzvVee76zOpYTW8AbdWNKBlNjgj6oiPEjzkKm9+ojE3HSGO594/XXHaeRseeOpOiD4WUWgm3atFHGcis75OCDffi9SZOmtbT43HPPyyhcb79NnewGO84HxjD7bGLAsoiEntLnnn3GeYceuQrxBL4gZ0bTEQ/uMUA5CQM8bNy4yeduUm6G5umJHbDDDj4nEVpapXI//NjT7CXhHRunS7cxdP265Dg4njnrD7vq6hts2NBdlbZZcekmyfJ1vhLeDU6VO1xg5F83rP4r4Dy03SsW4J/CPy9UxKH/7oV0/2fX9uL9b1zIy+29/0++0Gr1oO516MVjLk+1e+m8bSbmo0cCgOgZNkNIcxoAXjSG3IABA3yO1eFHHCFBMMCGDBnm3uhJJ5/sgh5PrVJCvUQCv0RCmZWYiaLiHAmgvUbua30l7A6WscbqvjPHnG6njT7JunbqYi1at7E999zHRh1zlH53lAd2qR1+2KG2djW9NBs8/yIJkjwJSFbAskqKFVyZOU19ziDMNnToUJ+PggfHCrWCwgIZeGzoioGGgVzjE5+Jz9yXtu06e1xWiZJW1x69/RtzO/oPGmZ9Buxo9z9wv5151pluRND8gVEQ/jKXpawQ4r46FwwqE6kPN3Ywyu699x57+523rUvnnr5hLSvKxpw6RoyfYF27dLULzr/ATqL+MhQuvfQSnyPHdhMYe0cedaQrrzYdulm7jt3dc+4nQxsvdtz48Sr3gV5f5qeRLxOnmds1SJ70cceNMuZN3nTjDTZy372lbDaqTBstPjnNGsg7Ly2WUpbgQ/gV5JdauZRyYnKN3XHn7S5kMSwPPOhwe+utt+yO2270uSzkEWiDVZEo/GobIGOYffbOEM7A++WXT7DPP/vcFc8RRx7hiuk8OQIMG7MYhHTPOfdcH2ql9xSFQm8q836++OJzO/DAg3wuGytRWzZrYHPmzg2LXcrK3OiDrqg/CgPjOlKKDOkwBN+mQ1dr3b6rcHmpzyllCIohScpdXlHiRgJtR3lIA4W0bNli0USK454NhX+bOdtuvvVWS01OsBG77m7nnn2WjT3zNGvetqtofpTofSe76MLzbJPauHGjpqKxDda9l9olLtkevOcOm/j1V9an7xDR5962Qsrw7Xdet2QZGpmZMnY8X4wOGRsyOuLjkmSkFwS8qi7UB0CxsOKRd7vvvrtvNAsfsnKcMPRcMBmf3uihUmrQwVNPPeVzQtmahV4QaN17z2J/7voJiK8m9jlgL770kq+o3GknpeHXTnreyVcQNm3WxBo1ynHFBy0znJYlQzMpOdEdEtLs1b2DHLbd7Zc/ltqAvr3E5xXugBSK951U5OCR9k8/T/FhNBZ6sQCksxwuwm0W/bGYwY0pFSra6HarS/nUSi39x2+Ortux/2B78snHrUnLpjZmzBjbd+89ZXyOUHnT7FC107iLxDvtuvhCikZqp+wGGXLg8pSGDDKMV/hYf+Q9atQoe+SRR6xlq7Z2tnivmQw6HCYWRDm9KGPyp84o/AceeNCHwKnT6JNGW8cO7ZX2BquQ0dRcaey8045qi4vUNiPsVfEHTiZD4MxjhXfp5brs0susZ9+BdvzxJ/iiG+iYK+IxnBiMwWeeecZ71pha0rNnf+/JO+roo32olFXwL7/8kpzSAWqHvX3+MvJsnYweHLQHZZSNPu54l9tPPfO0nJVffR42izcw2JhvSK+X10y4ZpoADv15559nX3/9ta8EZ9UwK1RZQEEP5gknnOhOMW05WE7HYYcfaaefLv5o1tzpBwdst932sJEj97Onn37Ge47pEaReyBaMNy5olCknzBEeMmSIHaFyNVRYFl1QFnidVedgvr3wy3dfedxrgO/CMGzYMNWxh+OJaUbonZ69RWPDhgvP2ZKfR0l/JbmRiNMLj9CLifGbnpoiHG3yueGkz1aEyDN66o499hify4ozfvDBBzkeunTtYmtWr/ERGBbnMG/xoAMlIw880NKyGlqSeGvd+o2WlJrhi+n+dtet1rVnP7XFEdaubTe7Ts5Q23atZRwutb332U0G8BSXl38FQcf8+9f/wf9bEJeXlxekvAOPkQANniQGEUoQQsZoEdV7TxRCkK0SlkuxMKEVBYQQJA7bXuCJMY+uSZMmEqod5MmEISF6B+iKr6oqkyeTL2XewUrK6SZX+hXr3fOsqkoQI+fIcyx1ppb2E/Ez9BtnG7awwKJGxiaelllKZiOlvcUW/DzVzj5vrL3+09fWM7u5VavMefmbXYAggBHEYfVcjXuvbFPAkCkeJD2HKriHxVBhbgZzDJkrxDOCB2NOSHFDgN5EvNEO7dtbM3r0JJzorcToqKgIhk5VpZQ0m2mqfoXMyyqWkVu40aoTKiwlq6U83BJLiq/2fELZKt3D5BmDk7KQJ8OZKE+GAFwYqqywKZ4yHiVCgeEfL7vqBiA4GWJlDgnDlTuN2MOK8tf74oaQRqUPb4nlLVWIpPesaaMGEtZbbL2Mp+wGjdRGiT48t2nTWuNUhbZtO+hd6FVgmwEWTuyw405WXLA5zAd0jxxDoVrtEuaDMazONzx0Tj5gDg1d4Js3b/F6N2nR2vI3hknutDv12bxls+Md48U9ZpWzUE4COPDuc6XNnD7CEBZBzpAVPQm1Q7cijGBw8y8INQwb7wkAf/pG7wbDs40aN1BbVak8wm9NpfIrd2NL1fD8aZPs7EynE37nNG5qpUX5Mg7FH+UlVq5qV4JTlROl6Vu6SAlVVZdbutqmtIQhQSWm4jiOVLZSOSV82yQPPjVH9RTdpOhbZTl7HNLTzTAWBh40GRaOUPdoTpMrO5WFugAcuwZQd3raCIuTQW/SFilgRXD6cd5SOYnPFdHL1hDLy/EX2tvnsekdPJ+QEIbK/Si90hLLL9gipRnvBkpJsdpFCpENljlOLV4GLj1r6TlZtl78gvEc6Dds1ROflG7ZWVLExUU+3AmN5OQ0E64bWEam6pZUbquW5apETUSLaZZo2+x5J/w4Yt05Fc1JqdIL/fYnt9krT82zt9/8SAbjSsmdcDQbq+vTUpK8LYvKq4WrIssQr1WpPeIaNLSK0jJLVd2oa4boE+cUoOcIXgzTDdLFcym1CwUaS75BY9Ap9AH9wzsNlB75IS8eldHCSuZ33npThkaW5ZdKDlWUW7F4OFtpgk/aluPukLHQEVveML8uWQZe1+7dbaXkJjwD/mg2DEwgjfIwJaKwSO0Lb5Q7LzC/DsBApA0Zkmd4mSkiOOnk2aRFM5fVFTKsq9SeGJ0ZakefQ6vf8C8APupDhuQhvXQ4XdAK2/3AJ9SftGnHwMdJ7jRwUgsLpcIG2Ik+7MqIA/VhZILV4+zsgF5x8OyQI/HewUAvGHimN3rlylzXKeAc4xnnhZ5H6hjRKL38zGUuL95iM2fNtNEnnujb0HB6C7zOd3gR+mX0AV6hQ4Ke3oYNG7s8SZWsS8lsYhvXrrA4HHbhHZzTvow0IHMpP6MQbJ1Cu7ErBPUDD4mSnev1Pitd8jlRvL4p3zLVJk1y0qysuNASkmRIJqerPOy/KXlhJcK9SRZLtxoyPfB5QIcQEmsDdyz0vG2bbAtR3H8E/0qYfwX+WVn+p+A/qbyhKP9+ef6Vsvwr9f5X0kkYN27c9bFnQUjUiasm3ntN0iQAmsqYg8ipIUMBKFV6UiBsVpkiMGBamJCCoRwI114eOpuSst0AjA7DtG7TxntZ2F8LrwsjJ11Cv7S42KriKnyoFkMkXV6Q2NaVk2riQzqpKHYJUuYPMfSL0tiwcbPlZGbb5Enf2RJ5lIcff6xlukdmViqmo+fh/9PeufRIchRxvKdnZtcv/MLC3gUkkO0DH4eLkbhwwN+Cky9IlhAnzIcwByPEhSsnrgghJCyEhC2B1+/nzuy8+P/+kVGVXdPdU7vdPdszm/+Z7KrKR2REZGZkVNYLI4Zs6AxjwD1/1M1ZKflQFDwjPRMSK5kYAQwWhtPGQYWdF2MiA87TpuATGQle2cKyvjSkPEwW3PsjYyUn70BEeU3Hvup4/pmn5AjIMZETiJPGfRwYGAwQbcXkgUMEo/CHw4PDBW34Ng/KyBk65Zl4eOKVNGTEuBJY5eRpYejxUMcXn35sZ4d2o81wJpGPCRDHCOePSWNv74YMGJ/Bekpy7JjW008/6zQmb/LhIMRksas202TJqk5xIJA+QuiUS+U/fPVHk6/lHCMfcTwJyBk1TvR//v0v10UZLn3h6HLW7ZVQ0YNnZMCowifONLKimw8/vGNDi9GFZl72SEfFnd//wQ96xYgjN3lZPSANXf7g5Zc1aah+TQCIAR++P05FkduOniY/Lkf/2fdUfscTT7ndz/2By1PompUt+jJ8crvAt+TM3JMTx+VD+j/OKfXwIMyNx29MDo/v6sTk3uS5Z54Xj/uTA+WjjVhxZMUDfpg87BxJJuhyPxM8MckSjz5w8tCT9ahCyI9DbEgOnDATqzB7lNBYQAf6YUzAM4HxH3RjwuEexmc1eT6mPuIKFOiP6PlI8vLOSlaB7t6VI6e2ekJtBKDFGHpejv7NG7IxnBTiXEuZrL7sa2Lk8uDJyTdyJD+YfPzZl5qAb7luXrYeXJdQ2pjgdtYxY+9v//jL5O9//a/fjcfj0F/qhARb8Sw2S33mTH33CU3mnsTVFo+rziefxQbpRFI+JpM5+pOYbgtONHggAYcWe0htOLvZF2GFfpjqpZ++//57kx+88qofaOE1HO+++8/Ja6/9xDaMWzleeOl7kp8V5aPJt1/8/uSrLz51v4c+dTOuAU798zpZpa4Q1mJ2oF1wyujHXFbkKfk86cEB4/YH2oXLmpx0Rd8OuT5Tflagb9+6ZTmQiUuh9Dd/6lD1xHiqKhSwA1zNwQlmHHES5RNmAT455vI8Dutnkp+H4j76+CP12307RPCSNo17eNP+MMZC77QWfJ75RBT5eWMA7yM9OwmbxX2ejBH6O4sHPN1LfmwR9J5Wmx3dO/ADQLweiKejuR0GObk3OPRJfl4g/pV1hV10+4oObXF6fOiTXxYZ4AmFsOjxtfoJb0F4QXbgk48+Ni36NDxwm0TaYp9cPCHHWM7uk7KjxJ8d8eYIzU/qe59+xdyieUJ0Dw6kv1PmFR7AiYdPTLfUm+A4w7Zgm3gZg+uouzF0Bit7uCuKJCj2UB3TA68MIgiyIpJn+gwI8nKJlMHugY4lKTQwKBgjnDeMFwOAvAzGOHPbNd3H5Oyd8qby07jEy4teuZRC4OydpyWnmkS4gDGdHmurzq4t8n1zeDx5881fTf70hz9Ofv7665Mf/+ynk+f2ZfDExs6++BI/OVHBI8aVM3OMDc4CA56VE4x1KAzaCtqjAmRKHZiGJ2qeoirGQjRzJSlXPZgxzib3JnsnOvucSgca2FNNZjf5ssLRXaVq0GNwp8WhYSlHFVIrtKmbSRya9STrH5XDwFJnrqBZBuWLun2YWctPGOHIK0CrwLT1Z+Mq2bi3j8tGTLxM6jiOH965o7hb1hnOMDyFzqIfEDraFdAjspGWcoaOg1/iky/aBhI4C/SvECD5TWHYjw3y5+okPDnZ9YQc5CutaMQZcegHZ49+4NfCCEwAGOrMb36kY+pN+agA55g6WCEjD3/JFycElGfriToYUqAPod++fXiQgbw86Cw32cNuz5+ii/6Jzmn/DIwJdB2FQ2fmS9toAybgMnZFjnFGmvUiXcBrJOqkSXWHjtR+GT8Hpq+tpSzZPPGLLvIA9Edf9MmK4vKVLvCUYz91ZD6V5pVFleWEIW+2F+XQp4LYQ2PKq762j0PNyc+3FH822T39wvX2gI8IXtnDMmiM/fo3v5j8772dyRtv/FLtIXuyF7pwX1NumZTJ9PR4cqT6bG9OxNd+9MFdvtKDwMiqMm4D9Vv4TKcXfafuYuxH/0+9gkxHxt++9dbknXd+P3n7d2/7hBhnqOtX8AJflFfZrAu+OOGgPUknLMIJ9SrkCUy0jxxSnURAL8tTH+MQHmGP6rEhYWtC7N6xL/1NMJ81dJxyhhzQ7mXu+1ycdOCYpSPnPum6w7YC6mPc4NhCI2qj78BT0MixQB9kDjHUVj55UBx1+ZU25j34IJ539PFwDe/HQ+/kY3zR1rYHUdTyRt2MVU4aw3mjb3MM09BzOxX6IOMIyIMtgQY2IE4YVQF9Sm1C79vXGMe2cHuCOqbGjHKrjx8fkZdqik2kLa2fvi4QsvbbRUgdLMOYPGNwES/rwjbxG6yszs8YXsbIPYbOYmdP4UQGkYoYUAxuOqFXHeiMmU+VEJxHx4B48tBZXZ7JStvMa0OhTPDH2Rkg3+lZfMZHsSqvCU+GCDm9KqVY8uzKmPNdSezZLitjnIXeO5l89uEnk1d0Jv3RV59PbormLgYIw6K/NACuo3Ls4uwwnFaYJx14C2/in0FvnvmDBo5E5hFwXDGY5AmZGeoIJ56PNUHo+JQ0Yv0OM/Ey1ZDXYKduMaRySCfoOHk1FdI3DPj1Vn/IyFkvD5tgrFImVmJv3b7l1aOEnbWii3mgbJZP3fkYA6vjdPacV3+AfN4uobsIqSvTmFMcOaPumNBoN3RN7W7n4gwkL07TbsTFcbZNIp1HEM6kgvJHH4uxBCItpKvL+5h47ewwEWnHssNrNbFRJunV5WsQD684H/R99s1vJPb6KbS8XUALWBZt4Tqzdc6etkQxjqGVvFmPJQDqyJDIfegzeQfCTuR+QLZnh4Dzc9N62T2d/+krEROv4exJqsn0xoEa7OnJwV1WRDmBiLqok/TkCfmxLTIp/ryVUdIQ0LLQL6p+45OAGdC2WZjis32ElW/uM+NE6bu3b9uZZz8up5v1gGVwtZ1OkRlnD2T/GsL54RnJVKYnF7YE/pCDY8fhgKgQfIaTFulZkL4b+ok2nQezVGRMnqCVZUgKHfQ2P+uK9DpebaLj7EM9jdBzzht29pCDNiny+PONridoYlNMJ6J8OZqn/r/4/HOvznKJWzW67EYgsnlCi+Oddix0Ef2J+/+w+bQUr2fySTv7RQeZN9sNYfq4Wt/LZajLLMKYPGOwMX0OsE38Biur8zOGlzFyD+nQz/kHWf4CZ4/VljQ84ex5oLkTqvOWCqgIgjl5uLziMl+uJgAzpX0zQB4F6ER637ExDq7LR8Ewhm9nylkXTl+UjRWmvtyxNpQKPi1y51gQqItBz2P+Nnjw6LKSgcbjn2MVpHTIkVxEGoM46wtHtOSjDPWyU+gQIo24OPsuRZU54jDkSc8VF7jMJiHyOYEjA+C+mdty7DCU1M/9LLx+5qUXX4wVqwJ0nga61k/C9PwfW+SL/kJAPb0Oh1gUvwpSl2y9IqU+CReBaB/3GfLBLxNtkYs4eIqVgVnk5EQeB/qTYBn8H1v6rWmXNO/pmH7vkw+yVXJDB33BUx87m6dGxlOG+19BnoBRb+jerJDZ+XNMzoNlKfs1OjkVcnKiT0M49Zfb5Imt9xWnHe9nnsg3ryZI6o90eWLoeXr2jWJCvwHKRQjHW3Wrv8Zb2GPVBx67dhVyvNa8ZRr1xX9skz/KO115s89fhOwXXD6Pe0xz1Z80/3rfKPUnqMf9kyzqh4scPUAW+zyMR+q0PFFP8Bry1c4WcSF/0I3AYegl+3nft2udgyzfI/NEvDXIAb+mH9ueTh/n345ev5X8SuM4ssgW0Y5Vv1HLRD0FnmekB9dfEnAS0SW6z36ada8dIht8SR7+zEuAeNta7SMTIfsDaRkH3zV783gdwz+0LsKYPGMwhp91YJv4DVZW52ddbXmeThwTnbwudfYwHh7wys3EAMEkyjYnkBpBN/Ia2kYnrqrJ/ZIHOvMmHlJrITw0NCvi7HWTlwZU0mdsFdPgiTrLdvVnFURzqDjyDJ25Lh9QkvNUtLptoVGDlQDAsCaN4LKlijQAw3LzkHVuDJVsaXi4X4l7z1h9QMesWvLyYd5iz6pE4iL+kT9lHsK64W+EDtaFWpddn3EDlkgh89AfyDN0Yse0Xd3vgPOSvfoMYeoapMOUl8VAOozZNspQszlDPwEN59d+Oo7h7HFiFJfyEkO57wfDuqknx67rTp4L2LcOCrLuzBPpszQTlHJwOut2B/rt5Ygac5v0duXnaZ9qqDezmIdY2QotLYO4JLtgebIfFJq1PMvQy6gg/Xuyt7y9zoDrKPuAtKxjp/S5pDUEqaGeKFORNRTTyVvTIG/Pn7Z9UtTN/5BYh/M6GDp78zDP2Ruio1vGC8fkDB5Df1k2rwolfIUGiETSGfK5UcBi/JjH2l5w7PZ3zHkknzirOPeJlLXGvLghxsi9Lt2M4Wcd2CZ+g5XV+VlXW9Z0mFNiMSZuVfDqsfySuc4eklAUQ+FfHRNMTkSTcJLnuGaIPdIyn8t7bxYdPW2cDo1Shn2XJxTa5kEzGTn68VDqViAXu1GupGo/0vmPLWnUGvT6vEbJF1FJJDbAtLwTGxD5+7wpt9HVV4pAv9DIbcejD/ivym8YOZGl88zN5dz8n/ezYXh4pQ0PJ3CPXI2O54IZuQssi/5rWa2D0Malw+3OH/wMWOj4Z0Na4TvLDPODWgdRXD+FjJHJXNafox/KBy+xdR4FthkyT+4vg4a0qydfrkIlnQ65u5zUQiSt5MW/7FOPdmfqGoX5+dE8IdJZ2btXjhO5j3xxKdhbYsRDvQoHS8EvuqzjYgsyPvMQH7Jw0oPuM63LOArQqAPlk4T24D4OCohLRwENBGbz1Oi5meWr5jPkWAT4im1fZpYWiKTz8fNQ551fd8RlUs8qbSg+BkWCvdBfAr3V3IReM6Zs6wybRsda7lQ8KIqXlmNuHXuOr4goWQv6vRrL2zJQt30NinI1zLdQoOQlpBbRGGIMPw2XiRgnecUww0JnL3odP+xjfqp+MWjcPCJPjUXxCdLrjlLXMbMPPwlW9ZxYcmQSmev9gjq63xEyocrbYQ6dRBrhZRiuCJ2DSIRMdUVLKt0gOvWzIxZYDeKpuZBTQfHHcvK4V7NefQJ1s4BFctfSzdk5j0H/Wic6XuZVP6faru8tZLdOqAjMCC2UlYouh/Ud4yoVyYqOnW4FxkWODQ9WdF+OlxnXGLJBr+MdkgPehhPlOWTZkSD3PK6W8ZqYGd8VYhVPwfwy7k/ikmUkF6Rk4ez1IHZIl2N0HvGhg97ZyvjcEJ1pM3ZqjG6q/N1eoVfXA62hjkbRH4GuHiHlWAXwNZ4zhCu7y/pr2dZ0GQNcvq9Z9m5Np+hohp/74u/ywdisJHhgrDKmKIuNj/tl61Xy8wgSF2t0DD8NDx/jnL0B3LTDaEWez7kc0Lmoo5iDquP2U1Ruw4xdVn9bi7MnjKFz1bAuucfQuSy4762jqarLuItAXYyHDAk/CFHSwLIxUzt724BlvCYWTUy4YaLgfchMZZ9mc9a0ZRkulPvB9EKpi6WYxSpybyvg9zI4trMnG7BMh6m7q6TDbXD2sCO8EonVPVbBl+vYv95fhjH8NDx8LHftl4DmrcNlgQmgD1yyaR2toeF+wESA0V8WtmEKjVHOPXaEeTzVMexfFB4QW6ibhoYHAY40tzfgnzUn7dHCaGcvnbq6e8wcywLWaZvH5dbW0NDwsJEWpw5rhkgyCWZoaGhouA64r5U9XyIqW+6bI+TStM1iSW9oaGhoaGhoaNgOPPBl3GWw88eZsbbcb7Sp+yq6pw2n+Qzi9QUXj5B32Tu3GhrGgP7D5Zxl4Tr3MORnLPmCrPYzDnBPKfYqQ+JR0U1DQ8P1xH07e7m6B5a5cPFul93uhcbrBjR5iSao3yF2XcEUE58q476hi2/2b2homA87e35/KOPKEX46EQeQJ8+Hzl47uWpoaLjq2IiXhJHkY9p8EohvBfL0z7qBg3fj5k0ba9fl7+1eXzDh5ISUK5oN1xdDh2Ot0KChPy0L1x6VWrn6wBdjePHoTdkUv4B0oIdHSjcLgOz1Cue88Ohqp6Fhu7HzwQcfVGavXBblh1gv40XycBDXK3zAh8qU0XZINFHh7NlBmTNpQXMV44nzw4t+z+To7e2t7lBe5mtBLqxL1dS6YdLn/UjoEyVf9ureVXtlyrYhv/U5FsO2T1w0Xkgdjs2GWaBDPppvB0UnjYwlv2iWqxEcVydTq9inbcJGTho2iWui9xrbJZEtRew2PBIY7ezVcDcZRJ9/2WkYGF9i1fY8lUJnHYNa9PmyxqrYZmfvYaM5e6vhfp29RWjO3npg54cxZo3NgrTr4uQl1uLsLdBXjXU5lddN/9sH9Nt0/CjhgS/jpnOXYR4YsAz+9Qz/xWh2oaGh4X6AbVrkuDRHYxGaXhoarioeyNnrnDwcvgxOaWhoaGhoaGho2CZc/8dYGxoaGhoaGhoeYTRnr6GhoaGhoaHhGmOxs+fbM7oLthw0NDQ0NDQ0NDRcMSxw9ngqN8P2O3xregCsYVXwFKP+1vVE3nVH01NDQ0NDw2Xgal/G5ak5P/Hbvxer4eEB58WvX8GJaX7MUvDEJ+9za09+NjQ0NDRsGjt37twp07Icpp2ykmffKR2onLWZlDLIS7ykScq140SU+urJEeeCT7KdHh/h8zXMgVePsgkXwDpdUX/QOD6KL6bcu3c4mU7LS64hXbfZiPf1XRbWIfdYDN+zx/snDw8P/cWG+/kiSq3LeSC1vWevoaGhoaHGnJW9ZTPF9s0ihwcHmgDbcybbgXTKL8mDuqRqNgFOltrKXkNDQ0PDZWDJPXs4dtqy2pcrflsEc8eqlSfL7XNCHzXEJdz41BRNkk4M8azmZVgVXLI/PY1VsqvqJqEb9MQ3o/kEnldfGxoaGhoaNoTFS2JcC9qW2XTO6gcxTJpMmG2q3A5Md6Z2xrpLuECNY4evhFURq7i5KsYH6yP+KiH1sLu3Z2evre41NDQ0NGwOk8n/AfTzfuachgWsAAAAAElFTkSuQmCC;" parent="1" vertex="1">
          <mxGeometry x="80" width="635" height="136" as="geometry" />
        </mxCell>
        <mxCell id="nvOVnxIDYfyf6h51sC6R-24" style="edgeStyle=orthogonalEdgeStyle;rounded=0;orthogonalLoop=1;jettySize=auto;html=1;exitX=1;exitY=0.5;exitDx=0;exitDy=0;entryX=0;entryY=0.5;entryDx=0;entryDy=0;" parent="1" source="nvOVnxIDYfyf6h51sC6R-2" target="nvOVnxIDYfyf6h51sC6R-7" edge="1">
          <mxGeometry relative="1" as="geometry" />
        </mxCell>
        <mxCell id="nvOVnxIDYfyf6h51sC6R-2" value="" style="ellipse;html=1;shape=startState;fillColor=#000000;strokeColor=#ff0000;" parent="1" vertex="1">
          <mxGeometry x="40" y="195" width="30" height="30" as="geometry" />
        </mxCell>
        <mxCell id="nvOVnxIDYfyf6h51sC6R-5" value="" style="ellipse;html=1;shape=endState;fillColor=#000000;strokeColor=#ff0000;" parent="1" vertex="1">
          <mxGeometry x="440" y="495" width="30" height="30" as="geometry" />
        </mxCell>
        <mxCell id="nvOVnxIDYfyf6h51sC6R-7" value="En telefono ir a enviar mensajes" style="rounded=1;whiteSpace=wrap;html=1;" parent="1" vertex="1">
          <mxGeometry x="130" y="190" width="90" height="40" as="geometry" />
        </mxCell>
        <mxCell id="nvOVnxIDYfyf6h51sC6R-18" style="edgeStyle=orthogonalEdgeStyle;rounded=0;orthogonalLoop=1;jettySize=auto;html=1;exitX=1;exitY=0.5;exitDx=0;exitDy=0;entryX=0;entryY=0.5;entryDx=0;entryDy=0;" parent="1" source="nvOVnxIDYfyf6h51sC6R-8" target="nvOVnxIDYfyf6h51sC6R-17" edge="1">
          <mxGeometry relative="1" as="geometry" />
        </mxCell>
        <mxCell id="nvOVnxIDYfyf6h51sC6R-8" value="escribir mensaje" style="rounded=1;whiteSpace=wrap;html=1;" parent="1" vertex="1">
          <mxGeometry x="155" y="490" width="90" height="40" as="geometry" />
        </mxCell>
        <mxCell id="nvOVnxIDYfyf6h51sC6R-22" style="edgeStyle=orthogonalEdgeStyle;rounded=0;orthogonalLoop=1;jettySize=auto;html=1;exitX=1;exitY=0.5;exitDx=0;exitDy=0;entryX=0;entryY=0.25;entryDx=0;entryDy=0;exitPerimeter=0;" parent="1" source="nvOVnxIDYfyf6h51sC6R-12" target="nvOVnxIDYfyf6h51sC6R-21" edge="1">
          <mxGeometry relative="1" as="geometry">
            <mxPoint x="220" y="260" as="sourcePoint" />
          </mxGeometry>
        </mxCell>
        <mxCell id="nvOVnxIDYfyf6h51sC6R-10" value="Elegir desde agenda" style="rounded=1;whiteSpace=wrap;html=1;" parent="1" vertex="1">
          <mxGeometry x="130" y="400" width="90" height="40" as="geometry" />
        </mxCell>
        <mxCell id="nvOVnxIDYfyf6h51sC6R-12" value="" style="strokeWidth=2;html=1;shape=mxgraph.flowchart.decision;whiteSpace=wrap;" parent="1" vertex="1">
          <mxGeometry x="155" y="280" width="40" height="40" as="geometry" />
        </mxCell>
        <mxCell id="nvOVnxIDYfyf6h51sC6R-13" value="" style="endArrow=open;endFill=1;endSize=12;html=1;rounded=0;exitX=0.5;exitY=1;exitDx=0;exitDy=0;entryX=0.5;entryY=0;entryDx=0;entryDy=0;entryPerimeter=0;" parent="1" source="nvOVnxIDYfyf6h51sC6R-7" target="nvOVnxIDYfyf6h51sC6R-12" edge="1">
          <mxGeometry width="160" relative="1" as="geometry">
            <mxPoint x="175" y="300" as="sourcePoint" />
            <mxPoint x="530" y="340" as="targetPoint" />
          </mxGeometry>
        </mxCell>
        <mxCell id="nvOVnxIDYfyf6h51sC6R-14" value="" style="endArrow=open;endFill=1;endSize=12;html=1;rounded=0;exitX=0.5;exitY=1;exitDx=0;exitDy=0;exitPerimeter=0;entryX=0.5;entryY=0;entryDx=0;entryDy=0;" parent="1" source="nvOVnxIDYfyf6h51sC6R-12" target="nvOVnxIDYfyf6h51sC6R-10" edge="1">
          <mxGeometry width="160" relative="1" as="geometry">
            <mxPoint x="370" y="340" as="sourcePoint" />
            <mxPoint x="530" y="340" as="targetPoint" />
          </mxGeometry>
        </mxCell>
        <mxCell id="nvOVnxIDYfyf6h51sC6R-15" value="" style="endArrow=open;endFill=1;endSize=12;html=1;rounded=0;exitX=0.5;exitY=1;exitDx=0;exitDy=0;" parent="1" source="nvOVnxIDYfyf6h51sC6R-10" edge="1">
          <mxGeometry width="160" relative="1" as="geometry">
            <mxPoint x="370" y="340" as="sourcePoint" />
            <mxPoint x="175" y="490" as="targetPoint" />
          </mxGeometry>
        </mxCell>
        <mxCell id="nvOVnxIDYfyf6h51sC6R-19" style="edgeStyle=orthogonalEdgeStyle;rounded=0;orthogonalLoop=1;jettySize=auto;html=1;exitX=1;exitY=0.5;exitDx=0;exitDy=0;" parent="1" source="nvOVnxIDYfyf6h51sC6R-17" edge="1">
          <mxGeometry relative="1" as="geometry">
            <mxPoint x="440" y="510" as="targetPoint" />
          </mxGeometry>
        </mxCell>
        <mxCell id="nvOVnxIDYfyf6h51sC6R-17" value="Enviar Mensaje" style="rounded=1;whiteSpace=wrap;html=1;" parent="1" vertex="1">
          <mxGeometry x="280" y="490" width="90" height="40" as="geometry" />
        </mxCell>
        <mxCell id="nvOVnxIDYfyf6h51sC6R-23" style="edgeStyle=orthogonalEdgeStyle;rounded=0;orthogonalLoop=1;jettySize=auto;html=1;exitX=1;exitY=0.5;exitDx=0;exitDy=0;entryX=0.833;entryY=0.05;entryDx=0;entryDy=0;entryPerimeter=0;" parent="1" source="nvOVnxIDYfyf6h51sC6R-21" target="nvOVnxIDYfyf6h51sC6R-8" edge="1">
          <mxGeometry relative="1" as="geometry" />
        </mxCell>
        <mxCell id="nvOVnxIDYfyf6h51sC6R-21" value="Ingresar manualmente" style="rounded=1;whiteSpace=wrap;html=1;" parent="1" vertex="1">
          <mxGeometry x="350" y="230" width="90" height="40" as="geometry" />
        </mxCell>
        <mxCell id="nvOVnxIDYfyf6h51sC6R-25" value="[elegir destinatario]" style="text;html=1;align=center;verticalAlign=middle;resizable=0;points=[];autosize=1;strokeColor=none;fillColor=none;" parent="1" vertex="1">
          <mxGeometry x="30" y="290" width="120" height="30" as="geometry" />
        </mxCell>
        <mxCell id="fPEa8i2YBese7cWv3VnU-1" value="Version 1" style="text;align=center;fontStyle=1;verticalAlign=middle;spacingLeft=3;spacingRight=3;strokeColor=none;rotatable=0;points=[[0,0.5],[1,0.5]];portConstraint=eastwest;html=1;" vertex="1" parent="1">
          <mxGeometry x="160" y="150" width="80" height="26" as="geometry" />
        </mxCell>
        <mxCell id="fPEa8i2YBese7cWv3VnU-2" value="Version 2" style="text;align=center;fontStyle=1;verticalAlign=middle;spacingLeft=3;spacingRight=3;strokeColor=none;rotatable=0;points=[[0,0.5],[1,0.5]];portConstraint=eastwest;html=1;" vertex="1" parent="1">
          <mxGeometry x="690" y="150" width="80" height="26" as="geometry" />
        </mxCell>
        <mxCell id="fPEa8i2YBese7cWv3VnU-5" value="" style="endArrow=none;html=1;rounded=0;" edge="1" parent="1">
          <mxGeometry width="50" height="50" relative="1" as="geometry">
            <mxPoint x="520" y="542" as="sourcePoint" />
            <mxPoint x="520" y="180" as="targetPoint" />
          </mxGeometry>
        </mxCell>
        <mxCell id="fPEa8i2YBese7cWv3VnU-7" value="" style="ellipse;html=1;shape=startState;fillColor=#000000;strokeColor=#ff0000;" vertex="1" parent="1">
          <mxGeometry x="540" y="205" width="30" height="30" as="geometry" />
        </mxCell>
        <mxCell id="fPEa8i2YBese7cWv3VnU-8" value="" style="edgeStyle=orthogonalEdgeStyle;html=1;verticalAlign=bottom;endArrow=open;endSize=8;strokeColor=#ff0000;rounded=0;" edge="1" source="fPEa8i2YBese7cWv3VnU-7" parent="1">
          <mxGeometry relative="1" as="geometry">
            <mxPoint x="630" y="220" as="targetPoint" />
          </mxGeometry>
        </mxCell>
        <mxCell id="fPEa8i2YBese7cWv3VnU-9" value="En telefono ir a Enviar nuevo mensaje" style="rounded=1;whiteSpace=wrap;html=1;arcSize=40;fontColor=#000000;fillColor=#ffffc0;strokeColor=#ff0000;" vertex="1" parent="1">
          <mxGeometry x="630" y="200" width="130" height="40" as="geometry" />
        </mxCell>
        <mxCell id="fPEa8i2YBese7cWv3VnU-10" value="" style="edgeStyle=orthogonalEdgeStyle;html=1;verticalAlign=bottom;endArrow=open;endSize=8;strokeColor=#ff0000;rounded=0;entryX=0.419;entryY=0.2;entryDx=0;entryDy=0;entryPerimeter=0;" edge="1" source="fPEa8i2YBese7cWv3VnU-9" parent="1" target="fPEa8i2YBese7cWv3VnU-12">
          <mxGeometry relative="1" as="geometry">
            <mxPoint x="690" y="300" as="targetPoint" />
          </mxGeometry>
        </mxCell>
        <mxCell id="fPEa8i2YBese7cWv3VnU-11" value="Persona" style="text;html=1;align=center;verticalAlign=middle;resizable=0;points=[];autosize=1;strokeColor=none;fillColor=none;" vertex="1" parent="1">
          <mxGeometry x="560" y="176" width="70" height="30" as="geometry" />
        </mxCell>
        <mxCell id="fPEa8i2YBese7cWv3VnU-12" value="" style="shape=line;html=1;strokeWidth=6;strokeColor=#ff0000;" vertex="1" parent="1">
          <mxGeometry x="560" y="300" width="320" height="10" as="geometry" />
        </mxCell>
        <mxCell id="fPEa8i2YBese7cWv3VnU-14" value="" style="edgeStyle=orthogonalEdgeStyle;html=1;verticalAlign=bottom;endArrow=open;endSize=8;strokeColor=#ff0000;rounded=0;" edge="1" parent="1" source="fPEa8i2YBese7cWv3VnU-15">
          <mxGeometry relative="1" as="geometry">
            <mxPoint x="620" y="380" as="targetPoint" />
            <mxPoint x="620" y="310" as="sourcePoint" />
          </mxGeometry>
        </mxCell>
        <mxCell id="fPEa8i2YBese7cWv3VnU-17" value="" style="edgeStyle=orthogonalEdgeStyle;html=1;verticalAlign=bottom;endArrow=open;endSize=8;strokeColor=#ff0000;rounded=0;fontStyle=1;entryX=0.5;entryY=0;entryDx=0;entryDy=0;" edge="1" parent="1" target="fPEa8i2YBese7cWv3VnU-19">
          <mxGeometry relative="1" as="geometry">
            <mxPoint x="777" y="380" as="targetPoint" />
            <mxPoint x="860" y="309" as="sourcePoint" />
          </mxGeometry>
        </mxCell>
        <mxCell id="fPEa8i2YBese7cWv3VnU-19" value="Escribir texto de mensaje" style="rounded=1;whiteSpace=wrap;html=1;arcSize=40;fontColor=#000000;fillColor=#ffffc0;strokeColor=#ff0000;" vertex="1" parent="1">
          <mxGeometry x="800" y="340" width="120" height="40" as="geometry" />
        </mxCell>
        <mxCell id="fPEa8i2YBese7cWv3VnU-20" value="" style="edgeStyle=orthogonalEdgeStyle;html=1;verticalAlign=bottom;endArrow=open;endSize=8;strokeColor=#ff0000;rounded=0;exitX=0.5;exitY=1;exitDx=0;exitDy=0;entryX=0.862;entryY=0.3;entryDx=0;entryDy=0;entryPerimeter=0;" edge="1" source="fPEa8i2YBese7cWv3VnU-19" parent="1" target="fPEa8i2YBese7cWv3VnU-35">
          <mxGeometry relative="1" as="geometry">
            <mxPoint x="860" y="710" as="targetPoint" />
          </mxGeometry>
        </mxCell>
        <mxCell id="fPEa8i2YBese7cWv3VnU-22" value="" style="edgeStyle=orthogonalEdgeStyle;html=1;align=left;verticalAlign=bottom;endArrow=open;endSize=8;strokeColor=#ff0000;rounded=0;entryX=0;entryY=0.5;entryDx=0;entryDy=0;" edge="1" source="fPEa8i2YBese7cWv3VnU-21" parent="1" target="fPEa8i2YBese7cWv3VnU-25">
          <mxGeometry x="-1" relative="1" as="geometry">
            <mxPoint x="760" y="500" as="targetPoint" />
          </mxGeometry>
        </mxCell>
        <mxCell id="fPEa8i2YBese7cWv3VnU-24" value="" style="edgeStyle=orthogonalEdgeStyle;html=1;verticalAlign=bottom;endArrow=open;endSize=8;strokeColor=#ff0000;rounded=0;" edge="1" parent="1" target="fPEa8i2YBese7cWv3VnU-15">
          <mxGeometry relative="1" as="geometry">
            <mxPoint x="620" y="380" as="targetPoint" />
            <mxPoint x="620" y="310" as="sourcePoint" />
          </mxGeometry>
        </mxCell>
        <mxCell id="fPEa8i2YBese7cWv3VnU-15" value="seleccionar destinatario" style="rounded=1;whiteSpace=wrap;html=1;arcSize=40;fontColor=#000000;fillColor=#ffffc0;strokeColor=#ff0000;" vertex="1" parent="1">
          <mxGeometry x="560" y="360" width="120" height="40" as="geometry" />
        </mxCell>
        <mxCell id="fPEa8i2YBese7cWv3VnU-25" value="Escribir numero&amp;nbsp;" style="rounded=1;whiteSpace=wrap;html=1;arcSize=40;fontColor=#000000;fillColor=#ffffc0;strokeColor=#ff0000;" vertex="1" parent="1">
          <mxGeometry x="690" y="440" width="120" height="40" as="geometry" />
        </mxCell>
        <mxCell id="fPEa8i2YBese7cWv3VnU-26" value="" style="edgeStyle=orthogonalEdgeStyle;html=1;verticalAlign=bottom;endArrow=open;endSize=8;strokeColor=#ff0000;rounded=0;entryX=0.75;entryY=0.5;entryDx=0;entryDy=0;entryPerimeter=0;exitX=1;exitY=0.5;exitDx=0;exitDy=0;" edge="1" source="fPEa8i2YBese7cWv3VnU-25" parent="1" target="fPEa8i2YBese7cWv3VnU-35">
          <mxGeometry relative="1" as="geometry">
            <mxPoint x="830" y="680" as="targetPoint" />
          </mxGeometry>
        </mxCell>
        <mxCell id="fPEa8i2YBese7cWv3VnU-27" value="Seleccionar desde agenda" style="rounded=1;whiteSpace=wrap;html=1;arcSize=40;fontColor=#000000;fillColor=#ffffc0;strokeColor=#ff0000;" vertex="1" parent="1">
          <mxGeometry x="560" y="525" width="120" height="40" as="geometry" />
        </mxCell>
        <mxCell id="fPEa8i2YBese7cWv3VnU-28" value="" style="edgeStyle=orthogonalEdgeStyle;html=1;verticalAlign=bottom;endArrow=open;endSize=8;strokeColor=#ff0000;rounded=0;entryX=0.5;entryY=0;entryDx=0;entryDy=0;" edge="1" source="fPEa8i2YBese7cWv3VnU-27" parent="1" target="fPEa8i2YBese7cWv3VnU-32">
          <mxGeometry relative="1" as="geometry">
            <mxPoint x="620" y="685" as="targetPoint" />
          </mxGeometry>
        </mxCell>
        <mxCell id="fPEa8i2YBese7cWv3VnU-29" value="" style="edgeStyle=orthogonalEdgeStyle;html=1;verticalAlign=bottom;endArrow=open;endSize=8;strokeColor=#ff0000;rounded=0;" edge="1" parent="1" source="fPEa8i2YBese7cWv3VnU-15" target="fPEa8i2YBese7cWv3VnU-21">
          <mxGeometry relative="1" as="geometry">
            <mxPoint x="620" y="480" as="targetPoint" />
            <mxPoint x="620" y="400" as="sourcePoint" />
          </mxGeometry>
        </mxCell>
        <mxCell id="fPEa8i2YBese7cWv3VnU-21" value="" style="rhombus;whiteSpace=wrap;html=1;fontColor=#000000;fillColor=#ffffc0;strokeColor=#ff0000;" vertex="1" parent="1">
          <mxGeometry x="580" y="440" width="80" height="40" as="geometry" />
        </mxCell>
        <mxCell id="fPEa8i2YBese7cWv3VnU-31" value="" style="edgeStyle=orthogonalEdgeStyle;html=1;verticalAlign=bottom;endArrow=open;endSize=8;strokeColor=#ff0000;rounded=0;exitX=0.5;exitY=1;exitDx=0;exitDy=0;entryX=0.5;entryY=0;entryDx=0;entryDy=0;" edge="1" parent="1" source="fPEa8i2YBese7cWv3VnU-21" target="fPEa8i2YBese7cWv3VnU-27">
          <mxGeometry relative="1" as="geometry">
            <mxPoint x="620" y="520" as="targetPoint" />
            <mxPoint x="630" y="575" as="sourcePoint" />
          </mxGeometry>
        </mxCell>
        <mxCell id="fPEa8i2YBese7cWv3VnU-32" value="[agendado]" style="rhombus;whiteSpace=wrap;html=1;fontColor=#000000;fillColor=#ffffc0;strokeColor=#ff0000;" vertex="1" parent="1">
          <mxGeometry x="580" y="600" width="80" height="40" as="geometry" />
        </mxCell>
        <mxCell id="fPEa8i2YBese7cWv3VnU-33" value="no" style="edgeStyle=orthogonalEdgeStyle;html=1;align=left;verticalAlign=bottom;endArrow=open;endSize=8;strokeColor=#ff0000;rounded=0;entryX=0.5;entryY=1;entryDx=0;entryDy=0;" edge="1" source="fPEa8i2YBese7cWv3VnU-32" parent="1" target="fPEa8i2YBese7cWv3VnU-25">
          <mxGeometry x="-1" relative="1" as="geometry">
            <mxPoint x="760" y="710" as="targetPoint" />
          </mxGeometry>
        </mxCell>
        <mxCell id="fPEa8i2YBese7cWv3VnU-34" value="si" style="edgeStyle=orthogonalEdgeStyle;html=1;align=left;verticalAlign=top;endArrow=open;endSize=8;strokeColor=#ff0000;rounded=0;entryX=0.034;entryY=0.4;entryDx=0;entryDy=0;entryPerimeter=0;" edge="1" source="fPEa8i2YBese7cWv3VnU-32" parent="1" target="fPEa8i2YBese7cWv3VnU-35">
          <mxGeometry x="-1" relative="1" as="geometry">
            <mxPoint x="620" y="700" as="targetPoint" />
          </mxGeometry>
        </mxCell>
        <mxCell id="fPEa8i2YBese7cWv3VnU-35" value="" style="shape=line;html=1;strokeWidth=6;strokeColor=#ff0000;" vertex="1" parent="1">
          <mxGeometry x="610" y="720" width="290" height="10" as="geometry" />
        </mxCell>
        <mxCell id="fPEa8i2YBese7cWv3VnU-37" value="" style="edgeStyle=orthogonalEdgeStyle;html=1;verticalAlign=bottom;endArrow=open;endSize=8;strokeColor=#ff0000;rounded=0;" edge="1" parent="1" source="fPEa8i2YBese7cWv3VnU-35">
          <mxGeometry relative="1" as="geometry">
            <mxPoint x="755" y="780" as="targetPoint" />
            <mxPoint x="630" y="490" as="sourcePoint" />
          </mxGeometry>
        </mxCell>
        <mxCell id="fPEa8i2YBese7cWv3VnU-38" value="Enviar mensaje" style="rounded=1;whiteSpace=wrap;html=1;arcSize=40;fontColor=#000000;fillColor=#ffffc0;strokeColor=#ff0000;" vertex="1" parent="1">
          <mxGeometry x="695" y="780" width="120" height="40" as="geometry" />
        </mxCell>
        <mxCell id="fPEa8i2YBese7cWv3VnU-39" value="" style="edgeStyle=orthogonalEdgeStyle;html=1;verticalAlign=bottom;endArrow=open;endSize=8;strokeColor=#ff0000;rounded=0;" edge="1" source="fPEa8i2YBese7cWv3VnU-38" parent="1" target="fPEa8i2YBese7cWv3VnU-40">
          <mxGeometry relative="1" as="geometry">
            <mxPoint x="760" y="880" as="targetPoint" />
          </mxGeometry>
        </mxCell>
        <mxCell id="fPEa8i2YBese7cWv3VnU-40" value="" style="ellipse;html=1;shape=endState;fillColor=#000000;strokeColor=#ff0000;" vertex="1" parent="1">
          <mxGeometry x="740" y="865" width="30" height="30" as="geometry" />
        </mxCell>
        <mxCell id="fPEa8i2YBese7cWv3VnU-41" value="Fin" style="text;html=1;align=center;verticalAlign=middle;resizable=0;points=[];autosize=1;strokeColor=none;fillColor=none;" vertex="1" parent="1">
          <mxGeometry x="770" y="868" width="40" height="30" as="geometry" />
        </mxCell>
      </root>
    </mxGraphModel>
  </diagram>
</mxfile>
